BrisaSans-Italic[wght].glyphspackage
{
glyphname = exclam;
layers = (
{
layerId = "3AC68A5C-915A-4DAB-90D3-514E1290D8F5";
name = "#instance";
shapes = (
{
closed = 1;
nodes = (
(229,237,l),
(54,237,l),
(146,700,l),
(324,715,l)
);
},
{
closed = 1;
nodes = (
(205,19,o),
(153,-10,o),
(93,-10,cs),
(36,-10,o),
(-4,21,o),
(7,83,c),
(20,144,o),
(76,176,o),
(131,176,cs),
(190,176,o),
(230,146,o),
(218,83,cs)
);
}
);
width = 303;
},
{
layerId = "5A493680-E9A0-4F8D-8CB4-D0B9001A6F74";
shapes = (
{
closed = 1;
nodes = (
(229,237,l),
(54,237,l),
(146,700,l),
(324,715,l)
);
},
{
closed = 1;
nodes = (
(205,19,o),
(153,-10,o),
(93,-10,cs),
(36,-10,o),
(-4,21,o),
(7,83,c),
(20,144,o),
(76,176,o),
(131,176,cs),
(190,176,o),
(230,146,o),
(218,83,cs)
);
}
);
width = 303;
},
{
layerId = "06FCF6AF-AD24-43D8-9E05-32EA8B277EF6";
shapes = (
{
closed = 1;
nodes = (
(203,226,l),
(62,226,l),
(158,703,l),
(301,715,l)
);
},
{
closed = 1;
nodes = (
(180,17,o),
(136,-10,o),
(87,-10,cs),
(39,-10,o),
(5,18,o),
(14,70,c),
(25,122,o),
(71,150,o),
(119,150,cs),
(170,150,o),
(202,123,o),
(191,70,cs)
);
}
);
width = 289;
},
{
layerId = "55D47B1B-2A7A-4A7C-934D-E2DC43635214";
shapes = (
{
closed = 1;
nodes = (
(164,209,l),
(76,209,l),
(175,707,l),
(265,715,l)
);
},
{
closed = 1;
nodes = (
(142,13,o),
(111,-10,o),
(76,-10,cs),
(40,-10,o),
(18,13,o),
(25,50,cs),
(33,89,o),
(63,111,o),
(100,111,cs),
(139,111,o),
(158,89,o),
(150,50,cs)
);
}
);
width = 267;
},
{
layerId = "FCF11552-E371-44B4-9CC7-EF7308C46468";
shapes = (
{
closed = 1;
nodes = (
(118,217,l),
(82,217,l),
(181,711,l),
(218,715,l)
);
},
{
closed = 1;
nodes = (
(89,4,o),
(75,-10,o),
(55,-10,cs),
(33,-10,o),
(27,9,o),
(31,26,cs),
(35,42,o),
(49,58,o),
(68,58,cs),
(88,58,o),
(97,44,o),
(93,24,cs)
);
}
);
width = 225;
}
);
unicode = 33;
}
{
glyphname = numbersign;
layers = (
{
layerId = "3AC68A5C-915A-4DAB-90D3-514E1290D8F5";
name = "#instance";
shapes = (
{
closed = 1;
nodes = (
(662,160,l),
(524,160,l),
(460,0,l),
(317,0,l),
(382,160,l),
(254,160,l),
(190,0,l),
(47,0,l),
(112,160,l),
(8,160,l),
(47,288,l),
(164,288,l),
(213,408,l),
(88,408,l),
(128,537,l),
(265,537,l),
(330,697,l),
(471,697,l),
(408,537,l),
(535,537,l),
(600,697,l),
(742,697,l),
(678,537,l),
(782,537,l),
(742,408,l),
(625,408,l),
(577,288,l),
(701,288,l)
);
},
{
closed = 1;
nodes = (
(434,288,l),
(483,408,l),
(355,408,l),
(306,288,l)
);
}
);
width = 762;
},
{
layerId = "5A493680-E9A0-4F8D-8CB4-D0B9001A6F74";
shapes = (
{
closed = 1;
nodes = (
(662,160,l),
(524,160,l),
(460,0,l),
(317,0,l),
(382,160,l),
(254,160,l),
(190,0,l),
(47,0,l),
(112,160,l),
(8,160,l),
(47,288,l),
(164,288,l),
(213,408,l),
(88,408,l),
(128,537,l),
(265,537,l),
(330,697,l),
(471,697,l),
(408,537,l),
(535,537,l),
(600,697,l),
(742,697,l),
(678,537,l),
(782,537,l),
(742,408,l),
(625,408,l),
(577,288,l),
(701,288,l)
);
},
{
closed = 1;
nodes = (
(434,288,l),
(483,408,l),
(355,408,l),
(306,288,l)
);
}
);
width = 762;
},
{
layerId = "06FCF6AF-AD24-43D8-9E05-32EA8B277EF6";
shapes = (
{
closed = 1;
nodes = (
(652,169,l),
(505,169,l),
(436,0,l),
(317,0,l),
(387,169,l),
(251,169,l),
(182,0,l),
(63,0,l),
(132,169,l),
(16,169,l),
(49,276,l),
(176,276,l),
(235,417,l),
(101,417,l),
(133,524,l),
(279,524,l),
(349,693,l),
(468,693,l),
(398,524,l),
(534,524,l),
(603,693,l),
(722,693,l),
(653,524,l),
(768,524,l),
(736,417,l),
(608,417,l),
(550,276,l),
(684,276,l)
);
},
{
closed = 1;
nodes = (
(431,276,l),
(490,417,l),
(354,417,l),
(295,276,l)
);
}
);
width = 758;
},
{
layerId = "55D47B1B-2A7A-4A7C-934D-E2DC43635214";
shapes = (
{
closed = 1;
nodes = (
(637,183,l),
(478,183,l),
(400,0,l),
(317,0,l),
(394,183,l),
(247,183,l),
(170,0,l),
(87,0,l),
(164,183,l),
(29,183,l),
(51,258,l),
(196,258,l),
(269,430,l),
(119,430,l),
(141,505,l),
(300,505,l),
(377,687,l),
(461,687,l),
(383,505,l),
(531,505,l),
(608,687,l),
(692,687,l),
(614,505,l),
(749,505,l),
(727,430,l),
(582,430,l),
(509,258,l),
(659,258,l)
);
},
{
closed = 1;
nodes = (
(426,258,l),
(499,430,l),
(352,430,l),
(279,258,l)
);
}
);
width = 752;
},
{
layerId = "FCF11552-E371-44B4-9CC7-EF7308C46468";
shapes = (
{
closed = 1;
nodes = (
(615,197,l),
(447,197,l),
(365,0,l),
(331,0,l),
(413,197,l),
(216,197,l),
(134,0,l),
(100,0,l),
(182,197,l),
(37,197,l),
(46,228,l),
(195,228,l),
(292,458,l),
(129,458,l),
(138,489,l),
(305,489,l),
(387,687,l),
(421,687,l),
(338,489,l),
(536,489,l),
(618,687,l),
(652,687,l),
(568,489,l),
(716,489,l),
(707,458,l),
(555,458,l),
(460,228,l),
(624,228,l)
);
},
{
closed = 1;
nodes = (
(426,228,l),
(523,458,l),
(325,458,l),
(229,228,l)
);
}
);
width = 727;
}
);
unicode = 35;
}
{
glyphname = dollar;
layers = (
{
layerId = "3AC68A5C-915A-4DAB-90D3-514E1290D8F5";
name = "#instance";
shapes = (
{
closed = 1;
nodes = (
(258,-116,l),
(145,-126,l),
(169,-6,l),
(88,5,o),
(18,30,o),
(-31,59,c),
(47,174,l),
(70,155,o),
(129,133,o),
(194,124,c),
(229,299,l),
(143,331,o),
(35,375,o),
(62,510,cs),
(85,623,o),
(175,691,o),
(310,704,c),
(329,798,l),
(443,808,l),
(422,702,l),
(479,695,o),
(537,677,o),
(590,646,c),
(512,531,l),
(483,547,o),
(442,563,o),
(395,570,c),
(363,409,l),
(445,385,o),
(556,323,o),
(529,186,cs),
(508,82,o),
(419,10,o),
(280,-7,c)
);
},
{
closed = 1;
nodes = (
(284,572,l),
(244,563,o),
(222,548,o),
(217,517,c),
(210,484,o),
(227,463,o),
(259,446,c)
);
},
{
closed = 1;
nodes = (
(307,126,l),
(351,137,o),
(371,162,o),
(375,187,c),
(382,222,o),
(360,244,o),
(333,259,c)
);
}
);
width = 574;
},
{
layerId = "5A493680-E9A0-4F8D-8CB4-D0B9001A6F74";
shapes = (
{
closed = 1;
nodes = (
(258,-116,l),
(145,-126,l),
(169,-6,l),
(88,5,o),
(18,30,o),
(-31,59,c),
(47,174,l),
(70,155,o),
(129,133,o),
(194,124,c),
(229,299,l),
(143,331,o),
(35,375,o),
(62,510,cs),
(85,623,o),
(175,691,o),
(310,704,c),
(329,798,l),
(443,808,l),
(422,702,l),
(479,695,o),
(537,677,o),
(590,646,c),
(512,531,l),
(483,547,o),
(442,563,o),
(395,570,c),
(363,409,l),
(445,385,o),
(556,323,o),
(529,186,cs),
(508,82,o),
(419,10,o),
(280,-7,c)
);
},
{
closed = 1;
nodes = (
(284,572,l),
(244,563,o),
(222,548,o),
(217,517,c),
(210,484,o),
(227,463,o),
(259,446,c)
);
},
{
closed = 1;
nodes = (
(307,126,l),
(351,137,o),
(371,162,o),
(375,187,c),
(382,222,o),
(360,244,o),
(333,259,c)
);
}
);
width = 574;
},
{
layerId = "06FCF6AF-AD24-43D8-9E05-32EA8B277EF6";
shapes = (
{
closed = 1;
nodes = (
(251,-117,l),
(153,-126,l),
(177,-7,l),
(100,0,o),
(28,23,o),
(-28,60,c),
(39,158,l),
(76,131,o),
(138,110,o),
(199,103,c),
(240,307,l),
(150,341,o),
(46,384,o),
(73,512,c),
(95,625,o),
(195,690,o),
(319,701,c),
(338,799,l),
(436,808,l),
(414,699,l),
(474,692,o),
(533,673,o),
(582,642,c),
(516,544,l),
(481,563,o),
(439,580,o),
(392,587,c),
(355,400,l),
(445,368,o),
(544,314,o),
(518,187,cs),
(497,82,o),
(409,9,o),
(273,-7,c)
);
},
{
closed = 1;
nodes = (
(296,589,l),
(249,582,o),
(211,562,o),
(202,519,cs),
(194,478,o),
(222,453,o),
(265,433,c)
);
},
{
closed = 1;
nodes = (
(296,105,l),
(351,116,o),
(382,145,o),
(390,184,cs),
(398,227,o),
(372,252,o),
(329,272,c)
);
}
);
width = 574;
},
{
layerId = "55D47B1B-2A7A-4A7C-934D-E2DC43635214";
shapes = (
{
closed = 1;
nodes = (
(241,-119,l),
(166,-126,l),
(190,-9,l),
(118,-6,o),
(41,13,o),
(-24,61,c),
(26,134,l),
(86,94,o),
(151,75,o),
(206,71,c),
(255,319,l),
(157,359,o),
(69,398,o),
(90,515,c),
(114,630,o),
(219,688,o),
(331,696,c),
(352,801,l),
(426,808,l),
(403,694,l),
(467,687,o),
(530,667,o),
(571,636,c),
(522,563,l),
(478,587,o),
(432,605,o),
(387,613,c),
(342,386,l),
(449,340,o),
(525,302,o),
(503,189,cs),
(482,81,o),
(395,8,o),
(263,-7,c)
);
},
{
closed = 1;
nodes = (
(314,615,l),
(260,610,o),
(195,584,o),
(181,522,cs),
(170,469,o),
(214,438,o),
(274,413,c)
);
},
{
closed = 1;
nodes = (
(280,74,l),
(349,85,o),
(399,120,o),
(411,180,cs),
(422,236,o),
(390,263,o),
(323,291,c)
);
}
);
width = 574;
},
{
layerId = "FCF11552-E371-44B4-9CC7-EF7308C46468";
shapes = (
{
closed = 1;
nodes = (
(209,-122,l),
(173,-126,l),
(196,-10,l),
(117,-9,o),
(45,11,o),
(-22,54,c),
(-1,84,l),
(66,41,o),
(136,24,o),
(203,24,c),
(266,338,l),
(154,381,o),
(73,416,o),
(94,519,cs),
(115,625,o),
(218,687,o),
(337,692,c),
(359,804,l),
(395,808,l),
(371,692,l),
(434,689,o),
(492,672,o),
(545,641,c),
(523,610,l),
(472,637,o),
(420,655,o),
(365,658,c),
(306,364,l),
(406,324,o),
(495,281,o),
(471,167,c),
(450,56,o),
(349,-1,o),
(231,-9,c)
);
},
{
closed = 1;
nodes = (
(330,658,l),
(238,653,o),
(151,610,o),
(132,522,c),
(116,440,o),
(181,412,o),
(274,377,c)
);
},
{
closed = 1;
nodes = (
(238,25,l),
(335,33,o),
(415,80,o),
(434,166,cs),
(452,252,o),
(383,289,o),
(298,325,c)
);
}
);
width = 574;
}
);
unicode = 36;
}
{
glyphname = ampersand;
layers = (
{
layerId = "3AC68A5C-915A-4DAB-90D3-514E1290D8F5";
name = "#instance";
shapes = (
{
closed = 1;
nodes = (
(651,90,l),
(524,-10,l),
(452,76,l),
(367,19,o),
(286,-10,o),
(209,-10,cs),
(72,-10,o),
(3,72,o),
(25,177,cs),
(44,269,o),
(123,335,o),
(208,384,c),
(164,440,o),
(148,491,o),
(159,547,cs),
(180,647,o),
(279,717,o),
(393,717,cs),
(506,717,o),
(581,649,o),
(562,552,cs),
(547,479,o),
(487,424,o),
(416,380,c),
(498,279,l),
(526,306,o),
(552,331,o),
(581,362,c),
(680,273,l),
(643,234,o),
(612,206,o),
(580,177,c)
);
},
{
closed = 1;
nodes = (
(278,294,l),
(237,265,o),
(203,236,o),
(196,200,cs),
(189,164,o),
(213,143,o),
(257,143,cs),
(290,143,o),
(326,156,o),
(370,180,c)
);
},
{
closed = 1;
nodes = (
(379,490,o),
(403,516,o),
(408,545,cs),
(413,573,o),
(393,589,o),
(368,589,cs),
(341,589,o),
(316,573,o),
(311,545,cs),
(309,533,o),
(332,481,o),
(344,467,c)
);
}
);
width = 714;
},
{
layerId = "5A493680-E9A0-4F8D-8CB4-D0B9001A6F74";
shapes = (
{
closed = 1;
nodes = (
(651,90,l),
(524,-10,l),
(452,76,l),
(367,19,o),
(286,-10,o),
(209,-10,cs),
(72,-10,o),
(3,72,o),
(25,177,cs),
(44,269,o),
(123,335,o),
(208,384,c),
(164,440,o),
(148,491,o),
(159,547,cs),
(180,647,o),
(279,717,o),
(393,717,cs),
(506,717,o),
(581,649,o),
(562,552,cs),
(547,479,o),
(487,424,o),
(416,380,c),
(498,279,l),
(526,306,o),
(552,331,o),
(581,362,c),
(680,273,l),
(643,234,o),
(612,206,o),
(580,177,c)
);
},
{
closed = 1;
nodes = (
(278,294,l),
(237,265,o),
(203,236,o),
(196,200,cs),
(189,164,o),
(213,143,o),
(257,143,cs),
(290,143,o),
(326,156,o),
(370,180,c)
);
},
{
closed = 1;
nodes = (
(379,490,o),
(403,516,o),
(408,545,cs),
(413,573,o),
(393,589,o),
(368,589,cs),
(341,589,o),
(316,573,o),
(311,545,cs),
(309,533,o),
(332,481,o),
(344,467,c)
);
}
);
width = 714;
},
{
layerId = "06FCF6AF-AD24-43D8-9E05-32EA8B277EF6";
shapes = (
{
closed = 1;
nodes = (
(639,73,l),
(535,-10,l),
(461,82,l),
(373,21,o),
(290,-10,o),
(212,-10,cs),
(85,-10,o),
(12,65,o),
(34,173,cs),
(52,265,o),
(132,329,o),
(225,385,c),
(181,441,o),
(159,491,o),
(171,551,cs),
(190,645,o),
(283,717,o),
(392,717,cs),
(500,717,o),
(568,646,o),
(549,553,cs),
(533,477,o),
(468,424,o),
(399,379,c),
(500,248,l),
(531,275,o),
(559,301,o),
(588,332,c),
(664,258,l),
(631,223,o),
(599,194,o),
(567,165,c)
);
},
{
closed = 1;
nodes = (
(285,308,l),
(229,272,o),
(183,235,o),
(172,187,c),
(163,139,o),
(197,115,o),
(248,115,cs),
(292,115,o),
(343,135,o),
(395,167,c)
);
},
{
closed = 1;
nodes = (
(384,485,o),
(413,514,o),
(420,549,cs),
(427,585,o),
(405,608,o),
(370,608,cs),
(335,608,o),
(306,585,o),
(298,549,cs),
(292,524,o),
(321,477,o),
(339,454,c)
);
}
);
width = 711;
},
{
layerId = "55D47B1B-2A7A-4A7C-934D-E2DC43635214";
shapes = (
{
closed = 1;
nodes = (
(621,48,l),
(552,-10,l),
(475,91,l),
(383,24,o),
(297,-10,o),
(217,-10,cs),
(106,-10,o),
(24,55,o),
(48,167,c),
(67,261,o),
(144,319,o),
(251,386,c),
(207,442,o),
(176,490,o),
(189,557,cs),
(205,641,o),
(288,717,o),
(390,717,cs),
(492,717,o),
(547,641,o),
(528,555,cs),
(512,479,o),
(442,423,o),
(373,378,c),
(505,202,l),
(540,230,o),
(569,256,o),
(598,287,c),
(641,236,l),
(612,205,o),
(579,176,o),
(547,147,c)
);
},
{
closed = 1;
nodes = (
(295,329,l),
(219,280,o),
(152,235,o),
(138,167,cs),
(124,102,o),
(173,73,o),
(236,73,cs),
(296,73,o),
(368,103,o),
(433,147,c)
);
},
{
closed = 1;
nodes = (
(394,477,o),
(429,511,o),
(438,555,cs),
(447,603,o),
(421,637,o),
(374,637,cs),
(327,637,o),
(288,603,o),
(279,555,cs),
(271,511,o),
(302,470,o),
(330,434,c)
);
}
);
width = 706;
},
{
layerId = "FCF11552-E371-44B4-9CC7-EF7308C46468";
shapes = (
{
closed = 1;
nodes = (
(592,19,l),
(563,-5,l),
(479,105,l),
(399,41,o),
(311,-10,o),
(215,-10,cs),
(108,-10,o),
(37,53,o),
(55,156,c),
(74,246,o),
(156,307,o),
(270,379,c),
(214,450,o),
(188,501,o),
(200,565,c),
(218,652,o),
(299,717,o),
(385,717,cs),
(477,717,o),
(523,649,o),
(507,569,cs),
(492,494,o),
(428,443,o),
(321,376,c),
(490,154,l),
(529,187,o),
(562,223,o),
(593,255,c),
(614,232,l),
(582,199,o),
(546,163,o),
(509,130,c)
);
},
{
closed = 1;
nodes = (
(288,355,l),
(180,286,o),
(109,233,o),
(93,157,c),
(77,73,o),
(140,24,o),
(223,24,cs),
(306,24,o),
(384,69,o),
(460,129,c)
);
},
{
closed = 1;
nodes = (
(403,461,o),
(457,505,o),
(470,569,cs),
(483,637,o),
(443,683,o),
(378,683,cs),
(311,683,o),
(253,636,o),
(238,567,c),
(230,525,o),
(264,450,o),
(303,400,c)
);
}
);
width = 690;
}
);
unicode = 38;
}
{
glyphname = quotesingle;
layers = (
{
layerId = "8D3EB4C1-6EEE-43FB-8DDE-90F41862F4B3";
shapes = (
{
closed = 1;
nodes = (
(217.923,425,l),
(77.923,425,l),
(118.473,703,l),
(290.271,717,l)
);
}
);
width = 237;
},
{
layerId = "1EF0794B-345E-4E92-BB90-FDAF9EB84F98";
shapes = (
{
closed = 1;
nodes = (
(197.122,431,l),
(86.122,431,l),
(125.074,701,l),
(267.471,713,l)
);
}
);
width = 222;
},
{
layerId = "8BE48380-DCD1-4C25-918E-D8F452C40939";
shapes = (
{
closed = 1;
nodes = (
(166,440,l),
(98,440,l),
(134,698,l),
(233,707,l)
);
}
);
width = 199;
},
{
layerId = "7825C6D3-92E0-4D36-83E5-F278C36F463D";
shapes = (
{
closed = 1;
nodes = (
(127.918,455,l),
(97.918,455,l),
(141.474,698,l),
(182.273,702,l)
);
}
);
width = 156;
}
);
unicode = 39;
}
{
glyphname = parenleft;
layers = (
{
layerId = "3AC68A5C-915A-4DAB-90D3-514E1290D8F5";
name = "#instance";
shapes = (
{
closed = 1;
nodes = (
(77,-248,l),
(21,-97,o),
(10,75,o),
(42,234,cs),
(74,391,o),
(153,564,o),
(269,715,c),
(410,667,l),
(314,530,o),
(252,394,o),
(220,234,cs),
(188,71,o),
(196,-61,o),
(237,-200,c)
);
}
);
width = 353;
},
{
layerId = "5A493680-E9A0-4F8D-8CB4-D0B9001A6F74";
shapes = (
{
closed = 1;
nodes = (
(77,-248,l),
(21,-97,o),
(10,75,o),
(42,234,cs),
(74,391,o),
(153,564,o),
(269,715,c),
(410,667,l),
(314,530,o),
(252,394,o),
(220,234,cs),
(188,71,o),
(196,-61,o),
(237,-200,c)
);
}
);
width = 353;
},
{
layerId = "06FCF6AF-AD24-43D8-9E05-32EA8B277EF6";
shapes = (
{
closed = 1;
nodes = (
(89,-237,l),
(35,-86,o),
(26,97,o),
(58,256,cs),
(90,415,o),
(170,597,o),
(286,748,c),
(398,710,l),
(299,574,o),
(234,416,o),
(202,256,cs),
(170,95,o),
(172,-63,o),
(216,-199,c)
);
}
);
width = 336;
},
{
layerId = "55D47B1B-2A7A-4A7C-934D-E2DC43635214";
shapes = (
{
closed = 1;
nodes = (
(107,-221,l),
(53,-71,o),
(49,131,o),
(81,289,cs),
(113,449,o),
(195,648,o),
(310,798,c),
(380,775,l),
(277,643,o),
(206,447,o),
(174,289,cs),
(142,134,o),
(136,-69,o),
(186,-198,c)
);
}
);
width = 311;
},
{
layerId = "FCF11552-E371-44B4-9CC7-EF7308C46468";
shapes = (
{
closed = 1;
nodes = (
(116,-238,l),
(64,-85,o),
(51,79,o),
(86,255,cs),
(121,431,o),
(200,595,o),
(313,748,c),
(340,734,l),
(233,585,o),
(157,423,o),
(124,255,cs),
(91,87,o),
(102,-75,o),
(149,-224,c)
);
}
);
width = 284;
}
);
unicode = 40;
}
{
glyphname = parenright;
layers = (
{
layerId = "8D3EB4C1-6EEE-43FB-8DDE-90F41862F4B3";
shapes = (
{
closed = 1;
nodes = (
(-74.964,-200,l),
(22.012,-65,o),
(82.587,73,o),
(114.758,234,cs),
(146.329,392,o),
(141.304,532,o),
(98.28,667,c),
(259.871,715,l),
(315.898,565,o),
(326.93,390,o),
(295.758,234,cs),
(264.186,76,o),
(183.418,-98,o),
(67.445,-248,c)
);
}
);
width = 357;
},
{
layerId = "1EF0794B-345E-4E92-BB90-FDAF9EB84F98";
shapes = (
{
closed = 1;
nodes = (
(-70.764,-199,l),
(28.212,-64,o),
(94.183,96,o),
(126.154,256,cs),
(157.925,415,o),
(155.896,575,o),
(110.872,710,c),
(239.465,748,l),
(295.492,598,o),
(303.725,414,o),
(272.154,256,cs),
(240.582,98,o),
(158.616,-87,o),
(42.643,-237,c)
);
}
);
width = 340;
},
{
layerId = "8BE48380-DCD1-4C25-918E-D8F452C40939";
shapes = (
{
closed = 1;
nodes = (
(-65,-198,l),
(37,-63,o),
(111,130,o),
(143,289,cs),
(175,449,o),
(178,639,o),
(130,775,c),
(209,798,l),
(265,648,o),
(269,450,o),
(237,289,cs),
(205,131,o),
(122,-71,o),
(6,-221,c)
);
}
);
width = 315;
},
{
layerId = "7825C6D3-92E0-4D36-83E5-F278C36F463D";
shapes = (
{
closed = 1;
nodes = (
(-65.76,-224,l),
(40.814,-76,o),
(118.584,88,o),
(151.954,255,cs),
(185.324,422,o),
(173.094,586,o),
(125.668,734,c),
(158.465,748,l),
(212.093,596,o),
(224.922,430,o),
(189.954,255,cs),
(154.986,80,o),
(75.816,-86,o),
(-38.557,-238,c)
);
}
);
width = 287;
}
);
unicode = 41;
}
{
glyphname = asterisk;
layers = (
{
layerId = "3AC68A5C-915A-4DAB-90D3-514E1290D8F5";
name = "#instance";
shapes = (
{
closed = 1;
nodes = (
(494,338,l),
(411,283,l),
(315,415,l),
(166,283,l),
(106,338,l),
(224,479,l),
(98,537,l),
(142,624,l),
(293,589,l),
(337,750,l),
(427,750,l),
(407,589,l),
(572,624,l),
(581,537,l),
(432,479,l)
);
}
);
width = 576;
},
{
layerId = "5A493680-E9A0-4F8D-8CB4-D0B9001A6F74";
shapes = (
{
closed = 1;
nodes = (
(508,337,l),
(410,270,l),
(314,394,l),
(167,270,l),
(95,337,l),
(204,470,l),
(87,526,l),
(140,630,l),
(289,600,l),
(330,750,l),
(438,750,l),
(422,600,l),
(582,630,l),
(593,526,l),
(453,470,l)
);
}
);
width = 581;
},
{
layerId = "06FCF6AF-AD24-43D8-9E05-32EA8B277EF6";
shapes = (
{
closed = 1;
nodes = (
(494,338,l),
(411,283,l),
(315,415,l),
(166,283,l),
(106,338,l),
(224,479,l),
(98,537,l),
(142,624,l),
(293,589,l),
(337,750,l),
(427,750,l),
(407,589,l),
(572,624,l),
(581,537,l),
(432,479,l)
);
}
);
width = 576;
},
{
layerId = "55D47B1B-2A7A-4A7C-934D-E2DC43635214";
shapes = (
{
closed = 1;
nodes = (
(471,339,l),
(413,302,l),
(317,446,l),
(164,302,l),
(121,339,l),
(253,493,l),
(114,553,l),
(145,615,l),
(300,573,l),
(347,750,l),
(409,750,l),
(385,573,l),
(557,615,l),
(563,553,l),
(400,493,l)
);
}
);
width = 568;
},
{
layerId = "FCF11552-E371-44B4-9CC7-EF7308C46468";
shapes = (
{
closed = 1;
nodes = (
(447,341,l),
(423,324,l),
(323,478,l),
(160,324,l),
(143,341,l),
(298,500,l),
(125,574,l),
(139,599,l),
(316,533,l),
(361,737,l),
(387,737,l),
(350,533,l),
(554,599,l),
(558,574,l),
(355,500,l)
);
}
);
width = 565;
}
);
unicode = 42;
}
{
glyphname = plus;
layers = (
{
layerId = "3664570B-2F06-474D-8410-56569ABB35BC";
shapes = (
{
closed = 1;
nodes = (
(522.349,282,l),
(353.349,282,l),
(319.58,113,l),
(188.58,113,l),
(222.349,282,l),
(52.349,282,l),
(78.725,414,l),
(248.725,414,l),
(282.495,583,l),
(413.495,583,l),
(379.725,414,l),
(548.725,414,l)
);
}
);
width = 575;
},
{
layerId = "452821E5-9DA0-4F55-A4C0-CD58A2FD2761";
shapes = (
{
closed = 1;
nodes = (
(511.148,291,l),
(341.148,291,l),
(307.178,121,l),
(197.178,121,l),
(231.148,291,l),
(61.148,291,l),
(83.128,401,l),
(253.128,401,l),
(287.097,571,l),
(397.097,571,l),
(363.128,401,l),
(533.128,401,l)
);
}
);
width = 568;
},
{
layerId = "E64728B9-E266-466D-8B00-8DDE1D2CA3E4";
shapes = (
{
closed = 1;
nodes = (
(494,304,l),
(323,304,l),
(289,133,l),
(211,133,l),
(245,304,l),
(74,304,l),
(89,382,l),
(260,382,l),
(295,553,l),
(373,553,l),
(338,382,l),
(509,382,l)
);
}
);
width = 558;
},
{
layerId = "FCB1C76D-2FA9-4C34-B9A5-09CF66038F2E";
shapes = (
{
closed = 1;
nodes = (
(478.941,325,l),
(298.941,325,l),
(261.775,139,l),
(226.775,139,l),
(263.941,325,l),
(82.941,325,l),
(89.336,357,l),
(270.336,357,l),
(307.502,543,l),
(342.502,543,l),
(305.336,357,l),
(485.336,357,l)
);
}
);
width = 544;
}
);
unicode = 43;
}
{
glyphname = comma;
layers = (
{
layerId = "4183FC63-456F-477E-9B65-436D843A5C2D";
shapes = (
{
closed = 1;
nodes = (
(-88,-124,l),
(-30,-48,o),
(14,20,o),
(43,173,c),
(212,156,l),
(187,30,o),
(118,-100,o),
(18,-188,c)
);
}
);
width = 274;
},
{
layerId = "E9E527C0-D75F-4862-A19F-02900F5EAE88";
shapes = (
{
closed = 1;
nodes = (
(-76,-124,l),
(-17,-47,o),
(22,16,o),
(49,148,c),
(190,135,l),
(170,37,o),
(105,-92,o),
(11,-175,c)
);
}
);
width = 274;
},
{
layerId = "5887A550-6249-40A4-806C-FE2DD5168882";
shapes = (
{
closed = 1;
nodes = (
(-57,-124,l),
(2,-46,o),
(35,10,o),
(58,111,c),
(158,103,l),
(146,47,o),
(86,-80,o),
(1,-156,c)
);
}
);
width = 274;
},
{
layerId = "1321AD43-5B57-4768-A503-D178202AE048";
shapes = (
{
closed = 1;
nodes = (
(-15,-123,l),
(31,-58,o),
(64,10,o),
(88,95,c),
(130,91,l),
(101,2,o),
(63,-72,o),
(11,-137,c)
);
}
);
width = 274;
}
);
unicode = 44;
}
{
glyphname = hyphen;
layers = (
{
layerId = "4183FC63-456F-477E-9B65-436D843A5C2D";
shapes = (
{
closed = 1;
nodes = (
(394.564,198,l),
(17.564,198,l),
(43.741,329,l),
(420.741,329,l)
);
}
);
width = 445;
},
{
layerId = "E9E527C0-D75F-4862-A19F-02900F5EAE88";
shapes = (
{
closed = 1;
nodes = (
(380.363,207,l),
(26.363,207,l),
(48.143,316,l),
(402.143,316,l)
);
}
);
width = 436;
},
{
layerId = "5887A550-6249-40A4-806C-FE2DD5168882";
shapes = (
{
closed = 1;
nodes = (
(359,220,l),
(39,220,l),
(54,296,l),
(374,296,l)
);
}
);
width = 422;
},
{
layerId = "1321AD43-5B57-4768-A503-D178202AE048";
shapes = (
{
closed = 1;
nodes = (
(339.957,240,l),
(49.957,240,l),
(56.551,273,l),
(346.551,273,l)
);
}
);
width = 406;
}
);
unicode = 45;
}
{
glyphname = period;
layers = (
{
layerId = "8D3EB4C1-6EEE-43FB-8DDE-90F41862F4B3";
shapes = (
{
closed = 1;
nodes = (
(216,146,o),
(174,176,o),
(116,176,cs),
(60,176,o),
(3,145,o),
(-9,83,cs),
(-22,21,o),
(23,-10,o),
(79,-10,cs),
(137,-10,o),
(191,21,o),
(204,83,cs)
);
}
);
width = 274;
},
{
layerId = "1EF0794B-345E-4E92-BB90-FDAF9EB84F98";
shapes = (
{
closed = 1;
nodes = (
(195,123,o),
(161,150,o),
(111,150,cs),
(63,150,o),
(16,122,o),
(6,70,cs),
(-4,18,o),
(31,-10,o),
(79,-10,cs),
(129,-10,o),
(173,17,o),
(184,70,cs)
);
}
);
width = 274;
},
{
layerId = "8BE48380-DCD1-4C25-918E-D8F452C40939";
shapes = (
{
closed = 1;
nodes = (
(162,89,o),
(141,111,o),
(103,111,cs),
(66,111,o),
(36,88,o),
(28,50,cs),
(21,13,o),
(43,-10,o),
(79,-10,cs),
(116,-10,o),
(146,11,o),
(154,50,cs)
);
}
);
width = 274;
},
{
layerId = "7825C6D3-92E0-4D36-83E5-F278C36F463D";
shapes = (
{
closed = 1;
nodes = (
(122,44,o),
(113,58,o),
(93,58,cs),
(73,58,o),
(58,44,o),
(54,24,cs),
(50,4,o),
(59,-10,o),
(79,-10,cs),
(99,-10,o),
(114,4,o),
(118,24,cs)
);
}
);
width = 274;
}
);
unicode = 46;
}
{
glyphname = slash;
layers = (
{
layerId = "4183FC63-456F-477E-9B65-436D843A5C2D";
shapes = (
{
closed = 1;
nodes = (
(103.818,-101,l),
(-75.182,-101,l),
(465.857,795,l),
(644.857,795,l)
);
}
);
width = 543;
},
{
layerId = "E9E527C0-D75F-4862-A19F-02900F5EAE88";
shapes = (
{
closed = 1;
nodes = (
(69.818,-101,l),
(-74.182,-101,l),
(465.857,795,l),
(609.857,795,l)
);
}
);
width = 509;
},
{
layerId = "5887A550-6249-40A4-806C-FE2DD5168882";
shapes = (
{
closed = 1;
nodes = (
(19,-101,l),
(-73,-101,l),
(466,795,l),
(558,795,l)
);
}
);
width = 458;
},
{
layerId = "1321AD43-5B57-4768-A503-D178202AE048";
shapes = (
{
closed = 1;
nodes = (
(-35.182,-101,l),
(-73.182,-101,l),
(466.857,795,l),
(504.857,795,l)
);
}
);
width = 405;
}
);
unicode = 47;
}
{
glyphname = zero;
layers = (
{
layerId = "4183FC63-456F-477E-9B65-436D843A5C2D";
shapes = (
{
closed = 1;
nodes = (
(306,160,o),
(316,172,o),
(326,192,c),
(348,226,o),
(367,282,o),
(382,353,cs),
(396,425,o),
(399,480,o),
(391,514,c),
(386,550,o),
(369,570,o),
(347,570,cs),
(323,570,o),
(297,550,o),
(277,514,c),
(259,480,o),
(240,425,o),
(226,353,cs),
(211,282,o),
(208,226,o),
(212,192,c),
(218,156,o),
(236,137,o),
(260,137,cs),
(277,137,o),
(296,151,q)
);
},
{
closed = 1;
nodes = (
(391,27,o),
(319,-10,o),
(231,-10,cs),
(141,-10,o),
(83,27,o),
(54,91,cs),
(24,155,o),
(22,246,o),
(44,353,cs),
(65,460,o),
(103,552,o),
(159,616,cs),
(214,680,o),
(286,717,o),
(376,717,cs),
(464,717,o),
(522,680,o),
(551,616,cs),
(580,552,o),
(585,460,o),
(564,353,cs),
(547,272,o),
(489,140,o),
(446,92,c)
);
}
);
width = 574;
},
{
layerId = "E9E527C0-D75F-4862-A19F-02900F5EAE88";
shapes = (
{
closed = 1;
nodes = (
(322,141,o),
(336,157,o),
(350,179,cs),
(376,220,o),
(396,281,o),
(411,353,cs),
(425,426,o),
(429,487,o),
(420,528,cs),
(411,570,o),
(388,595,o),
(351,595,cs),
(313,595,o),
(280,570,o),
(255,528,cs),
(229,487,o),
(209,426,o),
(195,353,cs),
(180,281,o),
(176,220,o),
(185,179,cs),
(193,137,o),
(216,112,o),
(254,112,cs),
(282,112,o),
(307,130,qs)
);
},
{
closed = 1;
nodes = (
(391,30,o),
(320,-10,o),
(230,-10,cs),
(140,-10,o),
(84,30,o),
(56,95,cs),
(27,160,o),
(26,251,o),
(47,353,cs),
(67,455,o),
(104,547,o),
(159,612,cs),
(213,677,o),
(285,717,o),
(375,717,cs),
(465,717,o),
(520,677,o),
(549,612,cs),
(577,547,o),
(579,455,o),
(559,353,cs),
(543,276,o),
(487,144,o),
(446,95,cs)
);
}
);
width = 574;
},
{
layerId = "5887A550-6249-40A4-806C-FE2DD5168882";
shapes = (
{
closed = 1;
nodes = (
(347,113,o),
(367,134,o),
(385,160,c),
(418,211,o),
(440,280,o),
(455,353,cs),
(469,427,o),
(475,497,o),
(463,549,c),
(448,600,o),
(416,632,o),
(357,632,cs),
(298,632,o),
(254,600,o),
(221,549,cs),
(185,497,o),
(163,427,o),
(149,353,cs),
(134,280,o),
(128,211,o),
(143,160,c),
(156,108,o),
(187,75,o),
(246,75,cs),
(290,75,o),
(324,98,qs)
);
},
{
closed = 1;
nodes = (
(391,34,o),
(321,-10,o),
(229,-10,cs),
(138,-10,o),
(85,34,o),
(58,101,cs),
(31,167,o),
(33,258,o),
(52,353,cs),
(71,448,o),
(106,539,o),
(159,606,cs),
(212,673,o),
(283,717,o),
(374,717,cs),
(466,717,o),
(518,673,o),
(546,606,cs),
(573,539,o),
(571,448,o),
(552,353,cs),
(537,282,o),
(484,150,o),
(445,100,c)
);
}
);
width = 574;
},
{
layerId = "1321AD43-5B57-4768-A503-D178202AE048";
shapes = (
{
closed = 1;
nodes = (
(363,69,o),
(389,94,o),
(410,124,cs),
(455,185,o),
(484,266,o),
(502,353,cs),
(519,441,o),
(523,523,o),
(502,584,cs),
(482,644,o),
(438,681,o),
(367,681,cs),
(293,681,o),
(238,644,o),
(194,584,cs),
(149,523,o),
(119,441,o),
(102,353,cs),
(84,266,o),
(81,185,o),
(102,124,cs),
(122,64,o),
(162,26,o),
(236,26,cs),
(290,26,o),
(333,52,qs)
);
},
{
closed = 1;
nodes = (
(382,32,o),
(313,-10,o),
(229,-10,cs),
(145,-10,o),
(92,32,o),
(67,100,cs),
(42,166,o),
(43,257,o),
(63,353,cs),
(82,450,o),
(117,541,o),
(168,608,cs),
(221,675,o),
(290,717,o),
(374,717,cs),
(458,717,o),
(511,675,o),
(535,608,cs),
(561,541,o),
(560,450,o),
(541,353,cs),
(526,281,o),
(473,149,o),
(434,98,cs)
);
}
);
width = 574;
}
);
unicode = 48;
}
{
glyphname = one;
layers = (
{
layerId = "3664570B-2F06-474D-8410-56569ABB35BC";
shapes = (
{
closed = 1;
nodes = (
(380,0,l),
(200,0,l),
(306,532,l),
(136,472,l),
(124,604,l),
(399,707,l),
(521,707,l)
);
}
);
width = 574;
},
{
layerId = "452821E5-9DA0-4F55-A4C0-CD58A2FD2761";
shapes = (
{
closed = 1;
nodes = (
(367,0,l),
(222,0,l),
(334,563,l),
(154,500,l),
(142,611,l),
(400,707,l),
(508,707,l)
);
}
);
width = 574;
},
{
layerId = "E64728B9-E266-466D-8B00-8DDE1D2CA3E4";
shapes = (
{
closed = 1;
nodes = (
(348,0,l),
(255,0,l),
(377,610,l),
(180,542,l),
(169,622,l),
(402,707,l),
(489,707,l)
);
}
);
width = 574;
},
{
layerId = "FCB1C76D-2FA9-4C34-B9A5-09CF66038F2E";
shapes = (
{
closed = 1;
nodes = (
(323,0,l),
(285,0,l),
(420,674,l),
(173,584,l),
(167,617,l),
(413,707,l),
(464,707,l)
);
}
);
width = 574;
}
);
unicode = 49;
}
{
glyphname = two;
layers = (
{
layerId = "3AC68A5C-915A-4DAB-90D3-514E1290D8F5";
name = "#instance";
shapes = (
{
closed = 1;
nodes = (
(447,0,l),
(6,0,l),
(5,15,o),
(7,37,o),
(12,62,cs),
(34,164,o),
(86,244,o),
(223,343,cs),
(299,399,o),
(360,453,o),
(368,494,cs),
(376,537,o),
(348,570,o),
(299,570,cs),
(264,570,o),
(226,552,o),
(166,501,c),
(108,615,l),
(161,663,o),
(254,717,o),
(360,717,cs),
(489,717,o),
(578,632,o),
(551,496,cs),
(532,401,o),
(470,342,o),
(368,267,c),
(313,228,o),
(257,180,o),
(216,144,c),
(476,144,l)
);
}
);
width = 568;
},
{
layerId = "5A493680-E9A0-4F8D-8CB4-D0B9001A6F74";
shapes = (
{
closed = 1;
nodes = (
(450,0,l),
(9,0,l),
(8,15,o),
(10,37,o),
(15,62,cs),
(37,164,o),
(89,244,o),
(226,343,cs),
(302,399,o),
(363,453,o),
(371,494,cs),
(379,537,o),
(351,570,o),
(302,570,cs),
(267,570,o),
(229,552,o),
(169,501,c),
(111,615,l),
(164,663,o),
(257,717,o),
(363,717,cs),
(492,717,o),
(581,632,o),
(554,496,cs),
(535,401,o),
(473,342,o),
(371,267,c),
(316,228,o),
(260,180,o),
(219,144,c),
(479,144,l)
);
}
);
width = 574;
},
{
layerId = "06FCF6AF-AD24-43D8-9E05-32EA8B277EF6";
shapes = (
{
closed = 1;
nodes = (
(443,0,l),
(6,0,l),
(5,16,o),
(7,35,o),
(12,57,c),
(36,180,o),
(119,257,o),
(242,343,c),
(323,397,o),
(390,449,o),
(401,504,cs),
(412,556,o),
(378,595,o),
(318,595,cs),
(275,595,o),
(225,571,o),
(167,524,c),
(118,620,l),
(182,673,o),
(267,717,o),
(362,717,cs),
(489,717,o),
(576,637,o),
(549,505,cs),
(528,401,o),
(452,342,o),
(351,273,c),
(283,228,o),
(217,180,o),
(177,120,c),
(467,120,l)
);
}
);
width = 574;
},
{
layerId = "55D47B1B-2A7A-4A7C-934D-E2DC43635214";
shapes = (
{
closed = 1;
nodes = (
(433,0,l),
(2,0,l),
(2,17,o),
(4,35,o),
(7,50,cs),
(36,202,o),
(159,279,o),
(266,343,cs),
(354,396,o),
(430,440,o),
(446,519,cs),
(459,587,o),
(418,632,o),
(342,632,cs),
(281,632,o),
(222,605,o),
(162,558,c),
(129,627,l),
(208,690,o),
(285,717,o),
(361,717,cs),
(485,717,o),
(566,640,o),
(542,518,cs),
(518,400,o),
(419,344,o),
(322,282,cs),
(235,227,o),
(148,177,o),
(113,84,c),
(450,84,l)
);
}
);
width = 574;
},
{
layerId = "FCF11552-E371-44B4-9CC7-EF7308C46468";
shapes = (
{
closed = 1;
nodes = (
(418,0,l),
(17,0,l),
(18,16,o),
(21,21,o),
(22,29,c),
(54,185,o),
(173,258,o),
(301,333,c),
(396,391,o),
(472,433,o),
(491,525,c),
(509,620,o),
(446,681,o),
(349,681,cs),
(286,681,o),
(225,658,o),
(162,615,c),
(148,643,l),
(212,690,o),
(288,717,o),
(359,717,cs),
(472,717,o),
(554,643,o),
(530,526,cs),
(508,415,o),
(418,366,o),
(321,307,c),
(198,235,o),
(92,170,o),
(63,35,c),
(425,35,l)
);
}
);
width = 580;
}
);
unicode = 50;
}
{
glyphname = three;
layers = (
{
layerId = "3664570B-2F06-474D-8410-56569ABB35BC";
shapes = (
{
closed = 1;
nodes = (
(85,206,l),
(117,166,o),
(153,137,o),
(214,137,cs),
(276,137,o),
(317,169,o),
(326,213,cs),
(336,267,o),
(297,295,o),
(228,295,cs),
(187,295,l),
(215,434,l),
(244,434,ls),
(302,434,o),
(347,460,o),
(356,506,cs),
(364,546,o),
(345,570,o),
(301,570,cs),
(257,570,o),
(208,549,o),
(149,501,c),
(91,615,l),
(145,662,o),
(241,717,o),
(357,717,cs),
(495,717,o),
(566,636,o),
(547,539,cs),
(528,447,o),
(442,398,o),
(381,370,c),
(474,344,o),
(526,290,o),
(506,188,cs),
(480,58,o),
(355,-10,o),
(201,-10,cs),
(87,-10,o),
(30,25,o),
(-21,92,c)
);
}
);
width = 574;
},
{
layerId = "452821E5-9DA0-4F55-A4C0-CD58A2FD2761";
shapes = (
{
closed = 1;
nodes = (
(70,183,l),
(102,143,o),
(151,112,o),
(216,112,cs),
(286,112,o),
(342,148,o),
(353,206,cs),
(366,271,o),
(315,307,o),
(239,307,cs),
(190,307,l),
(214,424,l),
(251,424,ls),
(317,424,o),
(373,455,o),
(385,513,cs),
(395,565,o),
(365,595,o),
(312,595,cs),
(264,595,o),
(209,572,o),
(150,524,c),
(101,620,l),
(164,673,o),
(254,717,o),
(353,717,cs),
(489,717,o),
(557,633,o),
(538,535,cs),
(521,450,o),
(447,400,o),
(379,370,c),
(464,343,o),
(518,287,o),
(499,189,cs),
(475,69,o),
(357,-10,o),
(202,-10,cs),
(104,-10,o),
(34,20,o),
(-19,87,c)
);
}
);
width = 574;
},
{
layerId = "E64728B9-E266-466D-8B00-8DDE1D2CA3E4";
shapes = (
{
closed = 1;
nodes = (
(46,149,l),
(79,108,o),
(149,75,o),
(220,75,cs),
(301,75,o),
(378,117,o),
(394,196,cs),
(410,277,o),
(343,325,o),
(256,325,cs),
(196,325,l),
(213,409,l),
(262,409,ls),
(340,409,o),
(413,448,o),
(428,523,cs),
(441,593,o),
(394,632,o),
(328,632,cs),
(274,632,o),
(212,606,o),
(150,558,c),
(115,627,l),
(194,689,o),
(273,717,o),
(347,717,cs),
(480,717,o),
(544,628,o),
(525,529,cs),
(510,455,o),
(456,403,o),
(376,370,c),
(448,341,o),
(508,283,o),
(489,190,cs),
(468,85,o),
(360,-10,o),
(203,-10,cs),
(129,-10,o),
(41,13,o),
(-16,80,c)
);
}
);
width = 574;
},
{
layerId = "FCB1C76D-2FA9-4C34-B9A5-09CF66038F2E";
shapes = (
{
closed = 1;
nodes = (
(24,92,l),
(73,47,o),
(135,26,o),
(205,26,cs),
(318,26,o),
(416,84,o),
(436,187,cs),
(456,283,o),
(395,350,o),
(272,350,cs),
(210,350,l),
(217,386,l),
(263,386,ls),
(383,386,o),
(458,454,o),
(474,537,cs),
(492,624,o),
(432,681,o),
(341,681,cs),
(279,681,o),
(211,655,o),
(152,615,c),
(137,643,l),
(199,688,o),
(277,717,o),
(350,717,cs),
(465,717,o),
(534,643,o),
(513,536,cs),
(493,436,o),
(405,383,o),
(352,371,c),
(421,358,o),
(498,301,o),
(475,185,cs),
(451,63,o),
(339,-10,o),
(198,-10,cs),
(114,-10,o),
(47,16,o),
(-1,64,c)
);
}
);
width = 574;
}
);
unicode = 51;
}
{
glyphname = four;
layers = (
{
layerId = "3AC68A5C-915A-4DAB-90D3-514E1290D8F5";
name = "#instance";
shapes = (
{
closed = 1;
nodes = (
(426,0,l),
(274,0,l),
(302,141,l),
(1,141,l),
(9,230,l),
(425,707,l),
(567,707,l),
(481,276,l),
(550,276,l),
(523,141,l),
(454,141,l)
);
},
{
closed = 1;
nodes = (
(329,276,l),
(365,456,l),
(206,276,l)
);
}
);
width = 568;
},
{
layerId = "5A493680-E9A0-4F8D-8CB4-D0B9001A6F74";
shapes = (
{
closed = 1;
nodes = (
(429,0,l),
(277,0,l),
(305,141,l),
(4,141,l),
(12,230,l),
(428,707,l),
(570,707,l),
(484,276,l),
(553,276,l),
(526,141,l),
(457,141,l)
);
},
{
closed = 1;
nodes = (
(332,276,l),
(368,456,l),
(209,276,l)
);
}
);
width = 574;
},
{
layerId = "06FCF6AF-AD24-43D8-9E05-32EA8B277EF6";
shapes = (
{
closed = 1;
nodes = (
(416,0,l),
(290,0,l),
(320,150,l),
(9,150,l),
(15,223,l),
(437,707,l),
(558,707,l),
(469,263,l),
(543,263,l),
(520,150,l),
(446,150,l)
);
},
{
closed = 1;
nodes = (
(342,263,l),
(390,501,l),
(182,263,l)
);
}
);
width = 574;
},
{
layerId = "55D47B1B-2A7A-4A7C-934D-E2DC43635214";
shapes = (
{
closed = 1;
nodes = (
(397,0,l),
(308,0,l),
(341,164,l),
(15,164,l),
(20,213,l),
(450,707,l),
(539,707,l),
(446,244,l),
(528,244,l),
(512,164,l),
(430,164,l)
);
},
{
closed = 1;
nodes = (
(357,244,l),
(422,569,l),
(140,244,l)
);
}
);
width = 574;
},
{
layerId = "FCF11552-E371-44B4-9CC7-EF7308C46468";
shapes = (
{
closed = 1;
nodes = (
(379,0,l),
(341,0,l),
(376,174,l),
(24,174,l),
(27,208,l),
(467,707,l),
(520,707,l),
(420,209,l),
(506,209,l),
(499,174,l),
(413,174,l)
);
},
{
closed = 1;
nodes = (
(383,209,l),
(475,669,l),
(71,209,l)
);
}
);
width = 580;
}
);
unicode = 52;
}
{
glyphname = five;
layers = (
{
layerId = "3AC68A5C-915A-4DAB-90D3-514E1290D8F5";
name = "#instance";
shapes = (
{
closed = 1;
nodes = (
(97,206,l),
(133,155,o),
(169,137,o),
(216,137,cs),
(276,137,o),
(324,172,o),
(336,232,cs),
(349,301,o),
(302,329,o),
(251,329,cs),
(223,329,o),
(197,324,o),
(174,309,c),
(94,367,l),
(173,707,l),
(565,707,l),
(537,563,l),
(300,563,l),
(273,451,l),
(298,455,o),
(319,458,o),
(340,458,cs),
(454,458,o),
(547,384,o),
(515,226,cs),
(485,78,o),
(341,-10,o),
(209,-10,cs),
(129,-10,o),
(35,25,o),
(-8,92,c)
);
}
);
width = 568;
},
{
layerId = "5A493680-E9A0-4F8D-8CB4-D0B9001A6F74";
shapes = (
{
closed = 1;
nodes = (
(100,206,l),
(136,155,o),
(172,137,o),
(219,137,cs),
(279,137,o),
(327,172,o),
(339,232,cs),
(352,301,o),
(305,329,o),
(254,329,cs),
(226,329,o),
(200,324,o),
(177,309,c),
(97,367,l),
(176,707,l),
(568,707,l),
(540,563,l),
(303,563,l),
(276,451,l),
(301,455,o),
(322,458,o),
(343,458,cs),
(457,458,o),
(550,384,o),
(518,226,cs),
(488,78,o),
(344,-10,o),
(212,-10,cs),
(132,-10,o),
(38,25,o),
(-5,92,c)
);
}
);
width = 574;
},
{
layerId = "06FCF6AF-AD24-43D8-9E05-32EA8B277EF6";
shapes = (
{
closed = 1;
nodes = (
(89,183,l),
(126,135,o),
(167,112,o),
(223,112,cs),
(294,112,o),
(351,152,o),
(366,225,cs),
(382,306,o),
(326,341,o),
(266,341,cs),
(234,341,o),
(197,334,o),
(161,314,c),
(99,361,l),
(181,707,l),
(562,707,l),
(539,587,l),
(285,587,l),
(249,438,l),
(278,446,o),
(307,451,o),
(335,451,cs),
(452,451,o),
(541,373,o),
(512,222,c),
(483,81,o),
(352,-10,o),
(213,-10,cs),
(132,-10,o),
(51,20,o),
(2,87,c)
);
}
);
width = 574;
},
{
layerId = "55D47B1B-2A7A-4A7C-934D-E2DC43635214";
shapes = (
{
closed = 1;
nodes = (
(72,148,l),
(112,103,o),
(159,75,o),
(228,75,cs),
(316,75,o),
(387,119,o),
(407,214,cs),
(428,314,o),
(360,359,o),
(282,359,cs),
(245,359,o),
(194,351,o),
(138,322,c),
(103,352,l),
(188,707,l),
(554,707,l),
(537,623,l),
(259,623,l),
(210,419,l),
(245,432,o),
(285,440,o),
(322,440,cs),
(442,440,o),
(532,356,o),
(503,216,c),
(477,81,o),
(362,-10,o),
(214,-10,cs),
(133,-10,o),
(68,15,o),
(12,80,c)
);
}
);
width = 574;
},
{
layerId = "FCF11552-E371-44B4-9CC7-EF7308C46468";
shapes = (
{
closed = 1;
nodes = (
(54,92,l),
(95,52,o),
(154,26,o),
(223,26,cs),
(329,26,o),
(425,84,o),
(449,207,cs),
(473,332,o),
(399,387,o),
(306,387,cs),
(247,387,o),
(191,366,o),
(144,341,c),
(122,360,l),
(205,707,l),
(547,707,l),
(540,672,l),
(234,672,l),
(166,380,l),
(215,407,o),
(264,423,o),
(319,423,cs),
(431,423,o),
(517,351,o),
(488,207,c),
(461,67,o),
(350,-10,o),
(216,-10,cs),
(136,-10,o),
(73,18,o),
(28,63,c)
);
}
);
width = 580;
}
);
unicode = 53;
}
{
glyphname = six;
layers = (
{
layerId = "4183FC63-456F-477E-9B65-436D843A5C2D";
shapes = (
{
closed = 1;
nodes = (
(523,524,l),
(487,547,o),
(445,570,o),
(395,570,cs),
(312,570,o),
(274,534,o),
(241,420,c),
(285,443,o),
(328,457,o),
(374,457,cs),
(478,457,o),
(567,378,o),
(539,240,cs),
(511,100,o),
(403,-10,o),
(252,-10,cs),
(52,-10,o),
(19,156,o),
(57,343,cs),
(94,530,o),
(182,717,o),
(418,717,cs),
(492,717,o),
(551,691,o),
(600,656,c)
);
},
{
closed = 1;
nodes = (
(195,181,o),
(214,137,o),
(268,137,cs),
(317,137,o),
(357,182,o),
(368,235,cs),
(378,286,o),
(354,328,o),
(300,328,cs),
(258,328,o),
(254,321,o),
(217,303,c)
);
}
);
width = 574;
},
{
layerId = "E9E527C0-D75F-4862-A19F-02900F5EAE88";
shapes = (
{
closed = 1;
nodes = (
(519,549,l),
(484,574,o),
(438,595,o),
(391,595,cs),
(294,595,o),
(244,523,o),
(211,401,c),
(260,433,o),
(313,453,o),
(367,453,cs),
(479,453,o),
(558,367,o),
(531,232,cs),
(504,93,o),
(392,-10,o),
(249,-10,cs),
(58,-10,o),
(23,157,o),
(60,342,cs),
(94,508,o),
(181,717,o),
(410,717,cs),
(477,717,o),
(535,696,o),
(586,659,c)
);
},
{
closed = 1;
nodes = (
(172,170,o),
(198,112,o),
(267,112,cs),
(329,112,o),
(377,165,o),
(390,229,cs),
(403,294,o),
(373,341,o),
(307,341,cs),
(250,341,o),
(238,331,o),
(191,298,c)
);
}
);
width = 574;
},
{
layerId = "5887A550-6249-40A4-806C-FE2DD5168882";
shapes = (
{
closed = 1;
nodes = (
(513,587,l),
(478,615,o),
(427,632,o),
(385,632,cs),
(267,632,o),
(198,507,o),
(166,372,c),
(222,418,o),
(288,447,o),
(355,447,cs),
(479,447,o),
(546,350,o),
(520,220,cs),
(492,82,o),
(375,-10,o),
(244,-10,cs),
(67,-10,o),
(30,158,o),
(66,340,cs),
(93,475,o),
(180,717,o),
(398,717,cs),
(454,717,o),
(510,703,o),
(563,663,c)
);
},
{
closed = 1;
nodes = (
(137,154,o),
(175,75,o),
(266,75,cs),
(348,75,o),
(407,140,o),
(423,220,cs),
(440,306,o),
(402,361,o),
(319,361,cs),
(239,361,o),
(214,346,o),
(152,290,c)
);
}
);
width = 574;
},
{
layerId = "1321AD43-5B57-4768-A503-D178202AE048";
shapes = (
{
closed = 1;
nodes = (
(527,643,l),
(484,669,o),
(441,681,o),
(397,681,cs),
(240,681,o),
(150,531,o),
(109,327,c),
(157,371,o),
(233,427,o),
(339,427,cs),
(467,427,o),
(525,335,o),
(500,211,cs),
(474,79,o),
(368,-10,o),
(243,-10,cs),
(83,-10,o),
(32,134,o),
(74,346,cs),
(116,554,o),
(229,717,o),
(403,717,cs),
(457,717,o),
(503,703,o),
(548,675,c)
);
},
{
closed = 1;
nodes = (
(86,130,o),
(131,26,o),
(252,26,cs),
(357,26,o),
(440,107,o),
(461,211,cs),
(482,315,o),
(434,391,o),
(326,391,cs),
(238,391,o),
(182,365,o),
(103,284,c)
);
}
);
width = 574;
}
);
unicode = 54;
}
{
glyphname = seven;
layers = (
{
layerId = "3AC68A5C-915A-4DAB-90D3-514E1290D8F5";
name = "#instance";
shapes = (
{
closed = 1;
nodes = (
(79,0,l),
(93,72,o),
(148,220,o),
(224,364,o),
(312,501,o),
(360,563,q),
(101,563,l),
(130,707,l),
(593,707,l),
(587,617,l),
(531,547,o),
(425,399,o),
(335,245,o),
(266,83,o),
(249,0,q)
);
}
);
width = 568;
},
{
layerId = "5A493680-E9A0-4F8D-8CB4-D0B9001A6F74";
shapes = (
{
closed = 1;
nodes = (
(82,0,l),
(96,72,o),
(151,220,o),
(227,364,o),
(315,501,o),
(363,563,q),
(104,563,l),
(133,707,l),
(596,707,l),
(590,617,l),
(534,547,o),
(428,399,o),
(338,245,o),
(269,83,o),
(252,0,q)
);
}
);
width = 574;
},
{
layerId = "06FCF6AF-AD24-43D8-9E05-32EA8B277EF6";
shapes = (
{
closed = 1;
nodes = (
(101,0,l),
(117,78,o),
(177,231,o),
(257,379,o),
(352,521,o),
(403,587,q),
(113,587,l),
(137,707,l),
(593,707,l),
(586,629,l),
(530,557,o),
(421,407,o),
(329,250,o),
(258,86,o),
(241,0,q)
);
}
);
width = 574;
},
{
layerId = "55D47B1B-2A7A-4A7C-934D-E2DC43635214";
shapes = (
{
closed = 1;
nodes = (
(131,0,l),
(148,85,o),
(215,247,o),
(304,401,o),
(408,550,o),
(463,623,q),
(126,623,l),
(143,707,l),
(588,707,l),
(581,647,l),
(523,572,o),
(411,418,o),
(314,258,o),
(242,90,o),
(224,0,q)
);
}
);
width = 574;
},
{
layerId = "FCF11552-E371-44B4-9CC7-EF7308C46468";
shapes = (
{
closed = 1;
nodes = (
(166,0,l),
(186,99,o),
(258,272,o),
(354,434,o),
(470,590,o),
(535,672,q),
(152,672,l),
(159,707,l),
(582,707,l),
(578,677,l),
(514,598,o),
(395,438,o),
(295,272,o),
(222,96,o),
(202,0,q)
);
}
);
width = 580;
}
);
unicode = 55;
}
{
glyphname = eight;
layers = (
{
layerId = "3AC68A5C-915A-4DAB-90D3-514E1290D8F5";
name = "#instance";
shapes = (
{
closed = 1;
nodes = (
(98,-10,o),
(-18,52,o),
(14,200,c),
(31,284,o),
(86,340,o),
(167,371,c),
(110,402,o),
(81,455,o),
(96,526,cs),
(125,670,o),
(251,717,o),
(373,717,cs),
(491,717,o),
(599,660,o),
(572,527,cs),
(557,456,o),
(508,402,o),
(439,371,c),
(508,339,o),
(540,284,o),
(524,200,c),
(494,52,o),
(358,-10,o),
(228,-10,cs)
);
},
{
closed = 1;
nodes = (
(311,123,o),
(338,160,o),
(349,213,cs),
(360,266,o),
(347,302,o),
(290,302,cs),
(233,302,o),
(205,268,o),
(193,213,cs),
(182,160,o),
(199,123,o),
(255,123,cs)
);
},
{
closed = 1;
nodes = (
(364,435,o),
(384,466,o),
(392,509,c),
(401,550,o),
(397,584,o),
(347,584,cs),
(301,584,o),
(277,553,o),
(269,510,cs),
(261,467,o),
(270,435,o),
(317,435,cs)
);
}
);
width = 568;
},
{
layerId = "5A493680-E9A0-4F8D-8CB4-D0B9001A6F74";
shapes = (
{
closed = 1;
nodes = (
(101,-10,o),
(-15,52,o),
(17,200,c),
(34,284,o),
(89,340,o),
(170,371,c),
(113,402,o),
(84,455,o),
(99,526,cs),
(128,670,o),
(254,717,o),
(376,717,cs),
(494,717,o),
(602,660,o),
(575,527,cs),
(560,456,o),
(511,402,o),
(442,371,c),
(511,339,o),
(543,284,o),
(527,200,c),
(497,52,o),
(361,-10,o),
(231,-10,cs)
);
},
{
closed = 1;
nodes = (
(314,123,o),
(341,160,o),
(352,213,cs),
(363,266,o),
(350,302,o),
(293,302,cs),
(236,302,o),
(208,268,o),
(196,213,cs),
(185,160,o),
(202,123,o),
(258,123,cs)
);
},
{
closed = 1;
nodes = (
(367,435,o),
(387,466,o),
(395,509,c),
(404,550,o),
(400,584,o),
(350,584,cs),
(304,584,o),
(280,553,o),
(272,510,cs),
(264,467,o),
(273,435,o),
(320,435,cs)
);
}
);
width = 574;
},
{
layerId = "06FCF6AF-AD24-43D8-9E05-32EA8B277EF6";
shapes = (
{
closed = 1;
nodes = (
(104,-10,o),
(-6,53,o),
(23,196,cs),
(40,281,o),
(98,340,o),
(181,371,c),
(124,400,o),
(92,457,o),
(107,528,cs),
(134,662,o),
(260,717,o),
(376,717,cs),
(492,717,o),
(592,658,o),
(568,529,c),
(553,457,o),
(502,400,o),
(431,371,c),
(502,340,o),
(537,281,o),
(520,196,cs),
(491,53,o),
(359,-10,o),
(231,-10,cs)
);
},
{
closed = 1;
nodes = (
(318,103,o),
(366,142,o),
(378,207,cs),
(391,274,o),
(361,313,o),
(296,313,cs),
(229,313,o),
(182,274,o),
(169,207,cs),
(156,142,o),
(189,103,o),
(254,103,cs)
);
},
{
closed = 1;
nodes = (
(374,425,o),
(410,459,o),
(421,515,cs),
(432,571,o),
(409,604,o),
(354,604,cs),
(298,604,o),
(259,571,o),
(248,515,cs),
(237,460,o),
(263,425,o),
(318,425,cs)
);
}
);
width = 574;
},
{
layerId = "55D47B1B-2A7A-4A7C-934D-E2DC43635214";
shapes = (
{
closed = 1;
nodes = (
(109,-10,o),
(3,57,o),
(30,190,cs),
(47,275,o),
(114,341,o),
(197,372,c),
(137,399,o),
(105,460,o),
(120,532,cs),
(144,652,o),
(268,717,o),
(374,717,cs),
(482,717,o),
(579,652,o),
(555,532,cs),
(540,459,o),
(486,399,o),
(414,372,c),
(486,341,o),
(526,278,o),
(509,190,cs),
(482,57,o),
(351,-10,o),
(229,-10,cs)
);
},
{
closed = 1;
nodes = (
(321,73,o),
(401,113,o),
(417,199,cs),
(433,285,o),
(378,329,o),
(297,329,cs),
(216,329,o),
(142,283,o),
(124,199,c),
(108,113,o),
(170,73,o),
(246,73,cs)
);
},
{
closed = 1;
nodes = (
(383,411,o),
(446,451,o),
(462,524,cs),
(478,600,o),
(425,634,o),
(358,634,cs),
(289,634,o),
(227,599,o),
(211,523,c),
(198,452,o),
(247,411,o),
(313,411,cs)
);
}
);
width = 574;
},
{
layerId = "FCF11552-E371-44B4-9CC7-EF7308C46468";
shapes = (
{
closed = 1;
nodes = (
(115,-10,o),
(22,57,o),
(46,185,c),
(65,280,o),
(134,340,o),
(225,371,c),
(160,399,o),
(122,457,o),
(137,537,c),
(161,655,o),
(271,717,o),
(377,717,cs),
(487,717,o),
(570,656,o),
(546,537,cs),
(530,457,o),
(469,399,o),
(392,371,c),
(472,339,o),
(516,281,o),
(497,185,cs),
(470,54,o),
(351,-10,o),
(232,-10,cs)
);
},
{
closed = 1;
nodes = (
(337,26,o),
(437,76,o),
(458,185,cs),
(479,292,o),
(404,352,o),
(304,352,cs),
(204,352,o),
(106,292,o),
(85,185,cs),
(64,76,o),
(141,26,o),
(239,26,cs)
);
},
{
closed = 1;
nodes = (
(402,387,o),
(487,441,o),
(508,536,c),
(527,632,o),
(458,681,o),
(370,681,cs),
(283,681,o),
(195,631,o),
(176,536,cs),
(157,442,o),
(223,387,o),
(311,387,cs)
);
}
);
width = 580;
}
);
unicode = 56;
}
{
glyphname = nine;
layers = (
{
layerId = "3AC68A5C-915A-4DAB-90D3-514E1290D8F5";
name = "#instance";
shapes = (
{
closed = 1;
nodes = (
(85,187,l),
(124,159,o),
(173,137,o),
(224,137,cs),
(295,137,o),
(337,173,o),
(369,281,c),
(325,261,o),
(290,250,o),
(242,250,cs),
(112,250,o),
(53,350,o),
(77,470,cs),
(104,599,o),
(211,717,o),
(368,717,cs),
(553,717,o),
(590,549,o),
(553,355,cs),
(513,151,o),
(404,-10,o),
(208,-10,cs),
(116,-10,o),
(45,25,o),
(9,58,c)
);
},
{
closed = 1;
nodes = (
(412,511,o),
(408,570,o),
(345,570,cs),
(292,570,o),
(256,524,o),
(245,472,cs),
(234,421,o),
(251,380,o),
(308,380,cs),
(327,380,o),
(360,388,o),
(397,408,c)
);
}
);
width = 568;
},
{
layerId = "5A493680-E9A0-4F8D-8CB4-D0B9001A6F74";
shapes = (
{
closed = 1;
nodes = (
(88,187,l),
(127,159,o),
(176,137,o),
(227,137,cs),
(298,137,o),
(340,173,o),
(372,281,c),
(328,261,o),
(293,250,o),
(245,250,cs),
(115,250,o),
(56,350,o),
(80,470,cs),
(107,599,o),
(214,717,o),
(371,717,cs),
(556,717,o),
(593,549,o),
(556,355,cs),
(516,151,o),
(407,-10,o),
(211,-10,cs),
(119,-10,o),
(48,25,o),
(12,58,c)
);
},
{
closed = 1;
nodes = (
(415,511,o),
(411,570,o),
(348,570,cs),
(295,570,o),
(259,524,o),
(248,472,cs),
(237,421,o),
(254,380,o),
(311,380,cs),
(330,380,o),
(363,388,o),
(400,408,c)
);
}
);
width = 574;
},
{
layerId = "06FCF6AF-AD24-43D8-9E05-32EA8B277EF6";
shapes = (
{
closed = 1;
nodes = (
(76,165,l),
(116,137,o),
(165,112,o),
(221,112,cs),
(313,112,o),
(365,181,o),
(398,304,c),
(338,268,o),
(295,255,o),
(247,255,cs),
(122,255,o),
(58,352,o),
(82,477,cs),
(106,602,o),
(214,717,o),
(366,717,cs),
(547,717,o),
(587,550,o),
(547,358,cs),
(507,163,o),
(404,-10,o),
(205,-10,cs),
(122,-10,o),
(54,20,o),
(11,57,c)
);
},
{
closed = 1;
nodes = (
(436,539,o),
(409,595,o),
(344,595,cs),
(279,595,o),
(235,541,o),
(222,478,cs),
(209,411,o),
(237,367,o),
(301,367,cs),
(332,367,o),
(392,393,o),
(419,412,c)
);
}
);
width = 574;
},
{
layerId = "55D47B1B-2A7A-4A7C-934D-E2DC43635214";
shapes = (
{
closed = 1;
nodes = (
(58,132,l),
(98,104,o),
(148,75,o),
(211,75,cs),
(338,75,o),
(404,196,o),
(436,338,c),
(380,291,o),
(318,262,o),
(251,262,cs),
(133,262,o),
(59,355,o),
(86,487,cs),
(110,609,o),
(211,717,o),
(360,717,cs),
(540,717,o),
(572,552,o),
(535,362,c),
(498,181,o),
(400,-10,o),
(196,-10,cs),
(125,-10,o),
(61,13,o),
(9,56,c)
);
},
{
closed = 1;
nodes = (
(468,578,o),
(407,632,o),
(338,632,cs),
(257,632,o),
(198,566,o),
(182,487,cs),
(163,396,o),
(210,348,o),
(287,348,cs),
(365,348,o),
(388,365,o),
(449,418,c)
);
}
);
width = 574;
},
{
layerId = "FCF11552-E371-44B4-9CC7-EF7308C46468";
shapes = (
{
closed = 1;
nodes = (
(47,87,l),
(99,46,o),
(152,26,o),
(207,26,cs),
(357,26,o),
(445,178,o),
(485,378,c),
(425,322,o),
(351,280,o),
(263,280,cs),
(134,280,o),
(83,374,o),
(107,497,c),
(134,628,o),
(236,717,o),
(358,717,cs),
(514,717,o),
(564,574,o),
(521,361,cs),
(478,152,o),
(370,-10,o),
(199,-10,cs),
(128,-10,o),
(71,16,o),
(24,55,c)
);
},
{
closed = 1;
nodes = (
(511,578,o),
(465,681,o),
(349,681,cs),
(252,681,o),
(166,604,o),
(145,495,cs),
(124,392,o),
(172,316,o),
(274,316,cs),
(376,316,o),
(418,344,o),
(492,423,c)
);
}
);
width = 580;
}
);
unicode = 57;
}
{
glyphname = colon;
layers = (
{
layerId = "3664570B-2F06-474D-8410-56569ABB35BC";
shapes = (
{
closed = 1;
nodes = (
(216,146,o),
(174,176,o),
(116,176,cs),
(60,176,o),
(3,145,o),
(-9,83,cs),
(-22,21,o),
(23,-10,o),
(79,-10,cs),
(137,-10,o),
(191,21,o),
(204,83,cs)
);
},
{
closed = 1;
nodes = (
(285,492,o),
(243,522,o),
(185,522,cs),
(129,522,o),
(72,491,o),
(60,429,cs),
(47,367,o),
(92,336,o),
(148,336,cs),
(206,336,o),
(260,367,o),
(273,429,cs)
);
}
);
width = 275;
},
{
layerId = "452821E5-9DA0-4F55-A4C0-CD58A2FD2761";
shapes = (
{
closed = 1;
nodes = (
(196,123,o),
(162,150,o),
(112,150,cs),
(64,150,o),
(17,122,o),
(7,70,cs),
(-3,18,o),
(32,-10,o),
(80,-10,cs),
(130,-10,o),
(174,17,o),
(185,70,cs)
);
},
{
closed = 1;
nodes = (
(269,489,o),
(235,516,o),
(185,516,cs),
(137,516,o),
(91,488,o),
(80,436,cs),
(70,384,o),
(105,356,o),
(153,356,cs),
(203,356,o),
(248,383,o),
(258,436,cs)
);
}
);
width = 276;
},
{
layerId = "E64728B9-E266-466D-8B00-8DDE1D2CA3E4";
shapes = (
{
closed = 1;
nodes = (
(163,89,o),
(142,111,o),
(104,111,cs),
(67,111,o),
(37,88,o),
(29,50,cs),
(22,13,o),
(44,-10,o),
(80,-10,cs),
(117,-10,o),
(147,11,o),
(155,50,cs)
);
},
{
closed = 1;
nodes = (
(242,485,o),
(221,507,o),
(183,507,cs),
(146,507,o),
(116,484,o),
(108,446,cs),
(101,409,o),
(123,386,o),
(159,386,cs),
(196,386,o),
(226,407,o),
(234,446,cs)
);
}
);
width = 276;
},
{
layerId = "FCB1C76D-2FA9-4C34-B9A5-09CF66038F2E";
shapes = (
{
closed = 1;
nodes = (
(122,44,o),
(113,58,o),
(93,58,cs),
(73,58,o),
(58,44,o),
(54,24,cs),
(50,4,o),
(59,-10,o),
(79,-10,cs),
(99,-10,o),
(114,4,o),
(118,24,cs)
);
},
{
closed = 1;
nodes = (
(207,470,o),
(198,484,o),
(178,484,cs),
(158,484,o),
(143,470,o),
(139,450,cs),
(135,430,o),
(144,416,o),
(164,416,cs),
(184,416,o),
(199,430,o),
(203,450,cs)
);
}
);
width = 275;
}
);
unicode = 58;
}
{
glyphname = semicolon;
layers = (
{
layerId = "3AC68A5C-915A-4DAB-90D3-514E1290D8F5";
name = "#instance";
shapes = (
{
closed = 1;
nodes = (
(-89,-124,l),
(-33,-49,o),
(14,21,o),
(41,173,c),
(209,156,l),
(185,31,o),
(116,-101,o),
(16,-188,c)
);
},
{
closed = 1;
nodes = (
(110,336,o),
(70,362,o),
(70,411,cs),
(70,478,o),
(133,522,o),
(197,522,cs),
(249,522,o),
(285,499,o),
(285,451,cs),
(285,380,o),
(228,336,o),
(160,336,cs)
);
}
);
width = 271;
},
{
layerId = "5A493680-E9A0-4F8D-8CB4-D0B9001A6F74";
shapes = (
{
closed = 1;
nodes = (
(-87,-124,l),
(-31,-49,o),
(16,21,o),
(43,173,c),
(211,156,l),
(187,31,o),
(118,-101,o),
(18,-188,c)
);
},
{
closed = 1;
nodes = (
(112,336,o),
(72,362,o),
(72,411,cs),
(72,478,o),
(135,522,o),
(199,522,cs),
(251,522,o),
(287,499,o),
(287,451,cs),
(287,380,o),
(230,336,o),
(162,336,cs)
);
}
);
width = 274;
},
{
layerId = "06FCF6AF-AD24-43D8-9E05-32EA8B277EF6";
shapes = (
{
closed = 1;
nodes = (
(-74,-124,l),
(-15,-47,o),
(23,16,o),
(50,148,c),
(190,135,l),
(172,38,o),
(105,-93,o),
(12,-175,c)
);
},
{
closed = 1;
nodes = (
(119,356,o),
(87,377,o),
(87,418,cs),
(87,476,o),
(137,516,o),
(193,516,cs),
(237,516,o),
(267,496,o),
(267,456,cs),
(267,396,o),
(219,356,o),
(161,356,cs)
);
}
);
width = 274;
},
{
layerId = "55D47B1B-2A7A-4A7C-934D-E2DC43635214";
shapes = (
{
closed = 1;
nodes = (
(-55,-124,l),
(4,-47,o),
(38,10,o),
(59,111,c),
(158,103,l),
(147,47,o),
(86,-80,o),
(2,-156,c)
);
},
{
closed = 1;
nodes = (
(127,386,o),
(107,404,o),
(107,433,cs),
(107,476,o),
(141,507,o),
(183,507,cs),
(216,507,o),
(235,491,o),
(235,462,cs),
(235,419,o),
(203,386,o),
(159,386,cs)
);
}
);
width = 274;
},
{
layerId = "FCF11552-E371-44B4-9CC7-EF7308C46468";
shapes = (
{
closed = 1;
nodes = (
(-14,-123,l),
(33,-58,o),
(64,10,o),
(88,95,c),
(130,91,l),
(102,3,o),
(62,-73,o),
(11,-137,c)
);
},
{
closed = 1;
nodes = (
(154,416,o),
(146,428,o),
(146,442,cs),
(146,461,o),
(161,484,o),
(185,484,cs),
(202,484,o),
(211,474,o),
(211,459,cs),
(211,437,o),
(196,416,o),
(172,416,cs)
);
}
);
width = 274;
}
);
unicode = 59;
}
{
glyphname = less;
layers = (
{
layerId = "B4A5DE42-3F2E-4279-A036-A3B49F620938";
shapes = (
{
closed = 1;
nodes = (
(445,104,l),
(69,284,l),
(94,412,l),
(542,592,l),
(538,442,l),
(272,348,l),
(501,254,l)
);
}
);
width = 576;
},
{
layerId = "7A2D1CAB-A283-4D96-9C16-88BF86DF5DBE";
shapes = (
{
closed = 1;
nodes = (
(440.58,113,l),
(74.348,287,l),
(97.927,405,l),
(533.696,579,l),
(530.118,456,l),
(228.138,346,l),
(486.157,236,l)
);
}
);
width = 568;
},
{
layerId = "EAA4FF5F-B48D-48C5-8560-F51BB314283C";
shapes = (
{
closed = 1;
nodes = (
(434,126,l),
(82,291,l),
(103,395,l),
(521,560,l),
(517,477,l),
(163,343,l),
(464,209,l)
);
}
);
width = 558;
},
{
layerId = "46A11582-2913-4625-BD09-5353CD2303E1";
shapes = (
{
closed = 1;
nodes = (
(423.373,147,l),
(96.542,323,l),
(103.735,359,l),
(500.904,535,l),
(499.51,498,l),
(133.139,341,l),
(436.767,184,l)
);
}
);
width = 544;
}
);
unicode = 60;
}
{
glyphname = greater;
layers = (
{
layerId = "3664570B-2F06-474D-8410-56569ABB35BC";
shapes = (
{
closed = 1;
nodes = (
(506.749,284,l),
(59.781,104,l),
(62.754,254,l),
(329.537,348,l),
(100.32,442,l),
(157.293,592,l),
(532.326,412,l)
);
}
);
width = 575;
},
{
layerId = "452821E5-9DA0-4F55-A4C0-CD58A2FD2761";
shapes = (
{
closed = 1;
nodes = (
(496.348,287,l),
(60.58,113,l),
(64.157,236,l),
(366.138,346,l),
(108.118,456,l),
(153.696,579,l),
(519.927,405,l)
);
}
);
width = 568;
},
{
layerId = "E64728B9-E266-466D-8B00-8DDE1D2CA3E4";
shapes = (
{
closed = 1;
nodes = (
(480,291,l),
(62,126,l),
(66,209,l),
(421,343,l),
(119,477,l),
(149,560,l),
(501,395,l)
);
}
);
width = 558;
},
{
layerId = "FCB1C76D-2FA9-4C34-B9A5-09CF66038F2E";
shapes = (
{
closed = 1;
nodes = (
(464.542,323,l),
(67.373,147,l),
(68.767,184,l),
(435.139,341,l),
(131.51,498,l),
(144.904,535,l),
(471.735,359,l)
);
}
);
width = 544;
}
);
unicode = 62;
}
{
glyphname = question;
layers = (
{
layerId = "3AC68A5C-915A-4DAB-90D3-514E1290D8F5";
name = "#instance";
shapes = (
{
closed = 1;
nodes = (
(141,237,l),
(173,397,o),
(339,420,o),
(355,508,cs),
(364,553,o),
(335,572,o),
(295,572,cs),
(239,572,o),
(185,541,o),
(137,506,c),
(87,615,l),
(163,682,o),
(247,717,o),
(339,717,cs),
(448,717,o),
(543,664,o),
(543,555,cs),
(543,364,o),
(347,367,o),
(314,237,c)
);
},
{
closed = 1;
nodes = (
(128,-10,o),
(90,15,o),
(90,64,cs),
(90,131,o),
(152,176,o),
(216,176,cs),
(267,176,o),
(304,153,o),
(304,106,cs),
(304,33,o),
(249,-10,o),
(179,-10,cs)
);
}
);
width = 529;
},
{
layerId = "5A493680-E9A0-4F8D-8CB4-D0B9001A6F74";
shapes = (
{
closed = 1;
nodes = (
(141,237,l),
(173,397,o),
(339,420,o),
(355,508,cs),
(364,553,o),
(335,572,o),
(295,572,cs),
(239,572,o),
(185,541,o),
(137,506,c),
(87,615,l),
(163,682,o),
(247,717,o),
(339,717,cs),
(448,717,o),
(543,664,o),
(543,555,cs),
(543,364,o),
(347,367,o),
(314,237,c)
);
},
{
closed = 1;
nodes = (
(128,-10,o),
(90,15,o),
(90,64,cs),
(90,131,o),
(152,176,o),
(216,176,cs),
(267,176,o),
(304,153,o),
(304,106,cs),
(304,33,o),
(249,-10,o),
(179,-10,cs)
);
}
);
width = 529;
},
{
layerId = "06FCF6AF-AD24-43D8-9E05-32EA8B277EF6";
shapes = (
{
closed = 1;
nodes = (
(144,226,l),
(176,391,o),
(353,424,o),
(373,521,cs),
(384,575,o),
(345,596,o),
(297,596,cs),
(240,596,o),
(184,568,o),
(133,533,c),
(93,625,l),
(165,685,o),
(246,717,o),
(330,717,cs),
(436,717,o),
(525,666,o),
(525,561,cs),
(525,379,o),
(321,370,o),
(283,226,c)
);
},
{
closed = 1;
nodes = (
(125,-10,o),
(93,11,o),
(93,52,cs),
(93,110,o),
(143,150,o),
(199,150,cs),
(243,150,o),
(273,130,o),
(273,90,cs),
(273,29,o),
(226,-10,o),
(167,-10,cs)
);
}
);
width = 518;
},
{
layerId = "55D47B1B-2A7A-4A7C-934D-E2DC43635214";
shapes = (
{
closed = 1;
nodes = (
(148,209,l),
(186,385,o),
(378,427,o),
(399,540,cs),
(412,609,o),
(359,632,o),
(300,632,cs),
(240,632,o),
(182,607,o),
(126,574,c),
(102,640,l),
(167,689,o),
(244,717,o),
(317,717,cs),
(411,717,o),
(498,667,o),
(498,573,cs),
(498,404,o),
(281,370,o),
(236,209,c)
);
},
{
closed = 1;
nodes = (
(118,-10,o),
(97,7,o),
(97,35,cs),
(97,78,o),
(130,111,o),
(173,111,cs),
(206,111,o),
(225,95,o),
(225,66,cs),
(225,23,o),
(194,-10,o),
(149,-10,cs)
);
}
);
width = 501;
},
{
layerId = "FCF11552-E371-44B4-9CC7-EF7308C46468";
shapes = (
{
closed = 1;
nodes = (
(159,217,l),
(195,381,o),
(401,426,o),
(425,550,cs),
(446,632,o),
(367,681,o),
(294,681,cs),
(234,681,o),
(176,664,o),
(121,629,c),
(109,659,l),
(168,699,o),
(237,717,o),
(300,717,cs),
(389,717,o),
(468,671,o),
(468,583,cs),
(468,416,o),
(230,374,o),
(196,217,c)
);
},
{
closed = 1;
nodes = (
(116,-10,o),
(108,2,o),
(108,16,cs),
(108,35,o),
(124,58,o),
(148,58,cs),
(166,58,o),
(174,46,o),
(174,32,cs),
(174,13,o),
(158,-10,o),
(134,-10,cs)
);
}
);
width = 477;
}
);
unicode = 63;
}
{
glyphname = at;
layers = (
{
layerId = "3AC68A5C-915A-4DAB-90D3-514E1290D8F5";
name = "#instance";
shapes = (
{
closed = 1;
nodes = (
(175,-242,o),
(10,-104,o),
(10,121,cs),
(10,444,o),
(293,702,o),
(612,702,cs),
(831,702,o),
(1003,581,o),
(1003,368,cs),
(1003,185,o),
(886,0,o),
(686,0,cs),
(631,0,o),
(578,14,o),
(553,61,c),
(502,22,o),
(458,0,o),
(398,0,cs),
(302,0,o),
(257,68,o),
(257,153,cs),
(257,288,o),
(360,451,o),
(506,451,cs),
(550,451,o),
(590,438,o),
(618,407,c),
(645,441,l),
(766,446,l),
(749,375,o),
(694,222,o),
(694,158,cs),
(694,140,o),
(700,124,o),
(722,124,cs),
(810,124,o),
(838,269,o),
(838,340,cs),
(838,485,o),
(741,568,o),
(582,568,cs),
(346,568,o),
(173,372,o),
(173,143,cs),
(173,-5,o),
(263,-108,o),
(428,-108,cs),
(491,-108,o),
(559,-92,o),
(620,-69,c),
(638,-193,l),
(557,-228,o),
(494,-242,o),
(413,-242,cs)
);
},
{
closed = 1;
nodes = (
(421,150,o),
(434,127,o),
(474,127,cs),
(498,127,o),
(520,134,o),
(539,149,c),
(539,242,o),
(554,234,o),
(573,319,c),
(561,328,o),
(545,335,o),
(526,335,cs),
(454,335,o),
(421,243,o),
(421,181,cs)
);
}
);
width = 1024;
},
{
layerId = "5A493680-E9A0-4F8D-8CB4-D0B9001A6F74";
shapes = (
{
closed = 1;
nodes = (
(175,-242,o),
(10,-104,o),
(10,121,cs),
(10,444,o),
(293,702,o),
(612,702,cs),
(831,702,o),
(1003,581,o),
(1003,368,cs),
(1003,185,o),
(886,0,o),
(686,0,cs),
(631,0,o),
(578,14,o),
(553,61,c),
(502,22,o),
(458,0,o),
(398,0,cs),
(302,0,o),
(257,68,o),
(257,153,cs),
(257,288,o),
(360,451,o),
(506,451,cs),
(550,451,o),
(590,438,o),
(618,407,c),
(645,441,l),
(766,446,l),
(749,375,o),
(694,222,o),
(694,158,cs),
(694,140,o),
(700,124,o),
(722,124,cs),
(810,124,o),
(838,269,o),
(838,340,cs),
(838,485,o),
(741,568,o),
(582,568,cs),
(346,568,o),
(173,372,o),
(173,143,cs),
(173,-5,o),
(263,-108,o),
(428,-108,cs),
(491,-108,o),
(559,-92,o),
(620,-69,c),
(638,-193,l),
(557,-228,o),
(494,-242,o),
(413,-242,cs)
);
},
{
closed = 1;
nodes = (
(421,150,o),
(434,127,o),
(474,127,cs),
(498,127,o),
(520,134,o),
(539,149,c),
(539,242,o),
(554,234,o),
(573,319,c),
(561,328,o),
(545,335,o),
(526,335,cs),
(454,335,o),
(421,243,o),
(421,181,cs)
);
}
);
width = 1024;
},
{
layerId = "06FCF6AF-AD24-43D8-9E05-32EA8B277EF6";
shapes = (
{
closed = 1;
nodes = (
(169,-242,o),
(15,-105,o),
(15,114,cs),
(15,436,o),
(291,702,o),
(613,702,cs),
(826,702,o),
(988,585,o),
(988,380,cs),
(988,208,o),
(879,0,o),
(687,0,cs),
(634,0,o),
(582,17,o),
(562,64,c),
(513,25,o),
(461,0,o),
(401,0,cs),
(303,0,o),
(260,69,o),
(260,155,cs),
(260,292,o),
(367,451,o),
(514,451,cs),
(561,451,o),
(600,436,o),
(629,405,c),
(652,441,l),
(753,447,l),
(735,377,o),
(682,213,o),
(682,149,cs),
(682,126,o),
(689,105,o),
(715,105,cs),
(812,105,o),
(852,274,o),
(852,356,cs),
(852,504,o),
(753,591,o),
(589,591,cs),
(338,591,o),
(149,376,o),
(149,133,cs),
(149,-23,o),
(244,-131,o),
(417,-131,cs),
(484,-131,o),
(549,-115,o),
(614,-90,c),
(629,-193,l),
(548,-228,o),
(486,-242,o),
(405,-242,cs)
);
},
{
closed = 1;
nodes = (
(396,138,o),
(411,107,o),
(461,107,cs),
(492,107,o),
(523,119,o),
(550,139,c),
(550,202,o),
(575,265,o),
(591,329,c),
(572,342,o),
(550,351,o),
(525,351,cs),
(438,351,o),
(396,254,o),
(396,178,cs)
);
}
);
width = 1013;
},
{
layerId = "55D47B1B-2A7A-4A7C-934D-E2DC43635214";
shapes = (
{
closed = 1;
nodes = (
(160,-242,o),
(24,-106,o),
(24,103,cs),
(24,425,o),
(288,702,o),
(614,702,cs),
(824,702,o),
(963,588,o),
(963,393,cs),
(963,238,o),
(866,0,o),
(689,0,cs),
(637,0,o),
(591,22,o),
(575,69,c),
(524,29,o),
(465,0,o),
(405,0,cs),
(309,0,o),
(265,71,o),
(265,157,cs),
(265,297,o),
(378,451,o),
(526,451,cs),
(577,451,o),
(612,433,o),
(645,402,c),
(662,441,l),
(734,448,l),
(716,375,o),
(662,195,o),
(662,129,cs),
(662,101,o),
(672,77,o),
(706,77,cs),
(816,77,o),
(872,279,o),
(872,375,cs),
(872,532,o),
(771,625,o),
(599,625,cs),
(329,625,o),
(114,383,o),
(114,119,cs),
(114,-46,o),
(214,-165,o),
(400,-165,cs),
(471,-165,o),
(532,-149,o),
(605,-122,c),
(616,-193,l),
(535,-228,o),
(472,-242,o),
(391,-242,cs)
);
},
{
closed = 1;
nodes = (
(357,120,o),
(378,77,o),
(443,77,cs),
(486,77,o),
(530,96,o),
(567,124,c),
(567,138,o),
(610,316,o),
(618,344,c),
(591,363,o),
(560,375,o),
(524,375,cs),
(415,375,o),
(357,272,o),
(357,174,cs)
);
}
);
width = 997;
},
{
layerId = "FCF11552-E371-44B4-9CC7-EF7308C46468";
shapes = (
{
closed = 1;
nodes = (
(152,-242,o),
(29,-110,o),
(29,93,cs),
(29,408,o),
(284,702,o),
(608,702,cs),
(818,702,o),
(940,583,o),
(940,394,cs),
(940,250,o),
(858,0,o),
(691,0,cs),
(639,0,o),
(598,23,o),
(589,74,c),
(536,27,o),
(481,0,o),
(416,0,cs),
(318,0,o),
(273,61,o),
(273,147,cs),
(273,279,o),
(376,441,o),
(519,441,cs),
(574,441,o),
(618,420,o),
(654,387,c),
(671,433,l),
(700,435,l),
(680,362,o),
(626,176,o),
(626,107,cs),
(626,64,o),
(647,33,o),
(698,33,cs),
(838,33,o),
(901,267,o),
(901,387,cs),
(901,561,o),
(796,668,o),
(598,668,cs),
(300,668,o),
(67,393,o),
(67,105,cs),
(67,-81,o),
(178,-208,o),
(388,-208,cs),
(455,-208,o),
(524,-192,o),
(589,-164,c),
(594,-196,l),
(522,-228,o),
(454,-242,o),
(382,-242,cs)
);
},
{
closed = 1;
nodes = (
(310,87,o),
(344,33,o),
(424,33,cs),
(485,33,o),
(537,62,o),
(588,105,c),
(584,130,o),
(632,315,o),
(643,353,c),
(604,383,o),
(567,409,o),
(516,409,cs),
(393,409,o),
(310,266,o),
(310,155,cs)
);
}
);
width = 982;
}
);
unicode = 64;
}
{
glyphname = A;
layers = (
{
anchors = (
{
name = top;
position = "{396, 477}";
},
{
name = hook;
position = "{392, 457}";
},
{
name = bottom;
position = "{301, 0}";
}
);
layerId = "56E18E9B-B806-41A9-AC2F-A405CDEE66B8";
name = "#instance";
shapes = (
{
closed = 1;
nodes = (
(651,0,l),
(462,0,l),
(443.973,150,l),
(213.973,150,l),
(136,0,l),
(-48,0,l),
(347.273,707,l),
(538.273,707,l)
);
},
{
closed = 1;
nodes = (
(430.548,288,l),
(403.106,521,l),
(282.548,288,l)
);
}
);
width = 715;
},
{
anchors = (
{
name = top;
position = "{396, 477}";
},
{
name = hook;
position = "{392, 457}";
},
{
name = bottom;
position = "{301, 0}";
}
);
layerId = "8D3EB4C1-6EEE-43FB-8DDE-90F41862F4B3";
shapes = (
{
closed = 1;
nodes = (
(651,0,l),
(462,0,l),
(443.973,150,l),
(213.973,150,l),
(136,0,l),
(-48,0,l),
(347.273,707,l),
(538.273,707,l)
);
},
{
closed = 1;
nodes = (
(430.548,288,l),
(403.106,521,l),
(282.548,288,l)
);
}
);
width = 715;
},
{
anchors = (
{
name = top;
position = "{388, 477}";
},
{
name = Anchor_7;
position = "{396, 517}";
},
{
name = hook;
position = "{384, 457}";
},
{
name = Anchor_10;
position = "{392, 497}";
},
{
name = bottom;
position = "{293, 0}";
}
);
layerId = "1EF0794B-345E-4E92-BB90-FDAF9EB84F98";
shapes = (
{
closed = 1;
nodes = (
(633,0,l),
(479,0,l),
(453.569,173,l),
(197.569,173,l),
(103,0,l),
(-46,0,l),
(360.273,707,l),
(509.273,707,l)
);
},
{
closed = 1;
nodes = (
(439.348,287,l),
(400.901,550,l),
(257.348,287,l)
);
}
);
width = 699;
},
{
anchors = (
{
name = top;
position = "{376, 477}";
},
{
name = Anchor_5;
position = "{384, 517}";
},
{
name = hook;
position = "{372, 457}";
},
{
name = Anchor_8;
position = "{380, 497}";
},
{
name = bottom;
position = "{281, 0}";
}
);
layerId = "8BE48380-DCD1-4C25-918E-D8F452C40939";
shapes = (
{
closed = 1;
nodes = (
(606,0,l),
(505,0,l),
(467,207,l),
(173,207,l),
(53,0,l),
(-43,0,l),
(379,707,l),
(466,707,l)
);
},
{
closed = 1;
nodes = (
(453,286,l),
(398,594,l),
(219,286,l)
);
}
);
width = 675;
},
{
anchors = (
{
name = top;
position = "{356, 477}";
},
{
name = Anchor_6;
position = "{364, 517}";
},
{
name = hook;
position = "{352, 457}";
},
{
name = Anchor_9;
position = "{360, 497}";
},
{
name = bottom;
position = "{261, 0}";
}
);
layerId = "7825C6D3-92E0-4D36-83E5-F278C36F463D";
shapes = (
{
closed = 1;
nodes = (
(567,0,l),
(524,0,l),
(479.158,231,l),
(136.158,231,l),
(0,0,l),
(-42,0,l),
(383.273,707,l),
(423.273,707,l)
);
},
{
closed = 1;
nodes = (
(472.152,266,l),
(394.48,668,l),
(157.152,266,l)
);
}
);
width = 637;
}
);
unicode = 65;
}
{
glyphname = B;
layers = (
{
layerId = "3AC68A5C-915A-4DAB-90D3-514E1290D8F5";
name = "#instance";
shapes = (
{
closed = 1;
nodes = (
(2,0,l),
(144,707,l),
(447,707,ls),
(586,707,o),
(660,637,o),
(639,528,cs),
(624,455,o),
(572,405,o),
(500,366,c),
(577,335,o),
(623,284,o),
(604,191,cs),
(576,57,o),
(456,0,o),
(329,0,cs)
);
},
{
closed = 1;
nodes = (
(340,136,ls),
(384,136,o),
(425,164,o),
(434,211,cs),
(445,262,o),
(415,284,o),
(370,284,cs),
(233,284,l),
(204,136,l)
);
},
{
closed = 1;
nodes = (
(365,422,ls),
(408,422,o),
(449,450,o),
(458,497,cs),
(469,548,o),
(439,571,o),
(395,571,cs),
(291,571,l),
(261,422,l)
);
}
);
width = 646;
},
{
layerId = "5A493680-E9A0-4F8D-8CB4-D0B9001A6F74";
shapes = (
{
closed = 1;
nodes = (
(2,0,l),
(144,707,l),
(447,707,ls),
(586,707,o),
(660,637,o),
(639,528,cs),
(624,455,o),
(572,405,o),
(500,366,c),
(577,335,o),
(623,284,o),
(604,191,cs),
(576,57,o),
(456,0,o),
(329,0,cs)
);
},
{
closed = 1;
nodes = (
(340,136,ls),
(384,136,o),
(425,164,o),
(434,211,cs),
(445,262,o),
(415,284,o),
(370,284,cs),
(233,284,l),
(204,136,l)
);
},
{
closed = 1;
nodes = (
(365,422,ls),
(408,422,o),
(449,450,o),
(458,497,cs),
(469,548,o),
(439,571,o),
(395,571,cs),
(291,571,l),
(261,422,l)
);
}
);
width = 646;
},
{
layerId = "06FCF6AF-AD24-43D8-9E05-32EA8B277EF6";
shapes = (
{
closed = 1;
nodes = (
(15,0,l),
(157,707,l),
(436,707,ls),
(574,707,o),
(648,637,o),
(627,528,cs),
(612,452,o),
(556,402,o),
(487,367,c),
(568,336,o),
(611,282,o),
(592,190,cs),
(568,71,o),
(456,0,o),
(320,0,cs)
);
},
{
closed = 1;
nodes = (
(333,114,ls),
(393,114,o),
(441,148,o),
(452,205,cs),
(464,265,o),
(430,299,o),
(370,299,cs),
(217,299,l),
(180,114,l)
);
},
{
closed = 1;
nodes = (
(360,413,ls),
(420,413,o),
(468,448,o),
(479,504,cs),
(491,561,o),
(460,593,o),
(396,593,cs),
(275,593,l),
(239,413,l)
);
}
);
width = 639;
},
{
layerId = "55D47B1B-2A7A-4A7C-934D-E2DC43635214";
shapes = (
{
closed = 1;
nodes = (
(34,0,l),
(175,707,l),
(419,707,ls),
(557,707,o),
(630,637,o),
(609,528,cs),
(593,448,o),
(535,399,o),
(466,368,c),
(551,336,o),
(591,277,o),
(574,189,cs),
(550,65,o),
(429,0,o),
(307,0,cs)
);
},
{
closed = 1;
nodes = (
(323,81,ls),
(406,81,o),
(465,124,o),
(480,196,cs),
(496,270,o),
(449,322,o),
(371,322,cs),
(191,322,l),
(143,81,l)
);
},
{
closed = 1;
nodes = (
(353,400,ls),
(440,400,o),
(496,443,o),
(511,515,cs),
(524,583,o),
(489,626,o),
(398,626,cs),
(252,626,l),
(207,400,l)
);
}
);
width = 629;
},
{
layerId = "FCF11552-E371-44B4-9CC7-EF7308C46468";
shapes = (
{
closed = 1;
nodes = (
(47,0,l),
(188,707,l),
(420,707,ls),
(538,707,o),
(610,641,o),
(588,528,c),
(567,427,o),
(491,383,o),
(448,367,c),
(506,351,o),
(574,296,o),
(552,183,cs),
(528,66,o),
(430,0,o),
(309,0,cs)
);
},
{
closed = 1;
nodes = (
(315,35,ls),
(410,35,o),
(493,84,o),
(512,184,c),
(533,284,o),
(471,344,o),
(377,344,cs),
(153,344,l),
(92,35,l)
);
},
{
closed = 1;
nodes = (
(348,379,ls),
(456,379,o),
(529,435,o),
(548,527,cs),
(567,623,o),
(507,672,o),
(407,672,cs),
(219,672,l),
(160,379,l)
);
}
);
width = 613;
}
);
unicode = 66;
}
{
glyphname = C;
layers = (
{
anchors = (
{
name = top;
position = "{428, 477}";
},
{
name = hook;
position = "{431, 457}";
}
);
layerId = "3664570B-2F06-474D-8410-56569ABB35BC";
shapes = (
{
closed = 1;
nodes = (
(590.99,55,l),
(520.397,17,o),
(442.002,-10,o),
(341.002,-10,cs),
(96.002,-10,o),
(10.572,153,o),
(50.536,353,cs),
(90.7,554,o),
(239.271,717,o),
(483.271,717,cs),
(584.271,717,o),
(658.676,689,o),
(710.282,652,c),
(624.105,526,l),
(580.5,553,o),
(517.697,569,o),
(468.697,569,cs),
(348.697,569,o),
(258.513,483,o),
(232.536,353,cs),
(206.76,224,o),
(262.575,138,o),
(382.575,138,cs),
(431.575,138,o),
(500.772,154,o),
(555.167,181,c)
);
}
);
width = 654;
},
{
anchors = (
{
name = top;
position = "{423, 477}";
},
{
name = Anchor_7;
position = "{437, 517}";
},
{
name = hook;
position = "{417, 457}";
}
);
layerId = "452821E5-9DA0-4F55-A4C0-CD58A2FD2761";
shapes = (
{
closed = 1;
nodes = (
(582.79,54,l),
(515.397,17,o),
(429.002,-10,o),
(332.002,-10,cs),
(96.002,-10,o),
(18.172,156,o),
(57.536,353,cs),
(97.101,551,o),
(241.271,717,o),
(477.271,717,cs),
(574.271,717,o),
(649.876,690,o),
(702.482,653,c),
(631.301,547,l),
(574.895,580,o),
(509.693,594,o),
(460.693,594,cs),
(323.693,594,o),
(232.712,489,o),
(205.536,353,cs),
(178.561,218,o),
(227.58,113,o),
(364.58,113,cs),
(413.58,113,o),
(484.377,127,o),
(553.971,160,c)
);
}
);
width = 649;
},
{
anchors = (
{
name = top;
position = "{415, 477}";
},
{
name = Anchor_5;
position = "{430, 517}";
},
{
name = hook;
position = "{396, 457}";
}
);
layerId = "E64728B9-E266-466D-8B00-8DDE1D2CA3E4";
shapes = (
{
closed = 1;
nodes = (
(570,52,l),
(507,17,o),
(409,-10,o),
(319,-10,cs),
(96,-10,o),
(30,161,o),
(69,353,cs),
(107,546,o),
(244,717,o),
(468,717,cs),
(559,717,o),
(637,691,o),
(691,655,c),
(642,579,l),
(566,620,o),
(497,632,o),
(449,632,cs),
(286,632,o),
(194,498,o),
(165,353,cs),
(136,209,o),
(175,75,o),
(338,75,cs),
(386,75,o),
(459,87,o),
(552,128,c)
);
}
);
width = 642;
},
{
anchors = (
{
name = top;
position = "{409, 477}";
},
{
name = Anchor_6;
position = "{429, 517}";
},
{
name = hook;
position = "{395, 457}";
}
);
layerId = "FCB1C76D-2FA9-4C34-B9A5-09CF66038F2E";
shapes = (
{
closed = 1;
nodes = (
(536.793,39,l),
(450.799,4,o),
(383.002,-10,o),
(320.002,-10,cs),
(101.002,-10,o),
(38.571,163,o),
(76.936,355,cs),
(115.501,548,o),
(249.271,717,o),
(468.271,717,cs),
(532.271,717,o),
(590.473,703,o),
(662.48,668,c),
(640.886,635,l),
(568.879,670,o),
(510.077,681,o),
(457.077,681,cs),
(265.077,681,o),
(150.905,525,o),
(116.736,354,cs),
(82.967,185,o),
(135.195,26,o),
(322.195,26,cs),
(375.195,26,o),
(445.793,39,o),
(528.387,72,c)
);
}
);
width = 614;
}
);
unicode = 67;
}
{
glyphname = D;
layers = (
{
layerId = "3AC68A5C-915A-4DAB-90D3-514E1290D8F5";
name = "#instance";
shapes = (
{
closed = 1;
nodes = (
(306,135,ls),
(353,135,o),
(422,174,o),
(474,236,o),
(507,315,o),
(515,355,qs),
(523,395,o),
(521,473,o),
(494,534,o),
(438,572,o),
(393,572,qs),
(296,572,l),
(209,135,l)
);
},
{
closed = 1;
nodes = (
(2,0,l),
(144,707,l),
(434,707,ls),
(512,707,o),
(624,654,o),
(691,559,o),
(711,430,o),
(696,353,qs),
(681,277,o),
(609,148,o),
(504,54,o),
(370,0,o),
(292,0,qs)
);
}
);
width = 716;
},
{
layerId = "5A493680-E9A0-4F8D-8CB4-D0B9001A6F74";
shapes = (
{
closed = 1;
nodes = (
(306,135,ls),
(353,135,o),
(422,174,o),
(474,236,o),
(507,315,o),
(515,355,qs),
(523,395,o),
(521,473,o),
(494,534,o),
(438,572,o),
(393,572,qs),
(296,572,l),
(209,135,l)
);
},
{
closed = 1;
nodes = (
(2,0,l),
(144,707,l),
(434,707,ls),
(512,707,o),
(624,654,o),
(691,559,o),
(711,430,o),
(696,353,qs),
(681,277,o),
(609,148,o),
(504,54,o),
(370,0,o),
(292,0,qs)
);
}
);
width = 716;
},
{
layerId = "06FCF6AF-AD24-43D8-9E05-32EA8B277EF6";
shapes = (
{
closed = 1;
nodes = (
(291,114,ls),
(342,114,o),
(425,154,o),
(486,220,o),
(526,307,o),
(535,354,qs),
(544,401,o),
(539,487,o),
(505,553,o),
(439,593,o),
(387,593,qs),
(278,593,l),
(183,114,l)
);
},
{
closed = 1;
nodes = (
(15,0,l),
(157,707,l),
(421,707,ls),
(499,707,o),
(611,654,o),
(677,559,o),
(697,430,o),
(682,353,qs),
(667,277,o),
(595,148,o),
(490,54,o),
(357,0,o),
(280,0,qs)
);
}
);
width = 709;
},
{
layerId = "55D47B1B-2A7A-4A7C-934D-E2DC43635214";
shapes = (
{
closed = 1;
nodes = (
(270,82,ls),
(329,82,o),
(428,125,o),
(503,198,o),
(555,297,o),
(566,353,qs),
(577,409,o),
(566,508,o),
(520,582,o),
(438,625,o),
(379,625,qs),
(252,625,l),
(144,82,l)
);
},
{
closed = 1;
nodes = (
(34,0,l),
(175,707,l),
(401,707,ls),
(479,707,o),
(591,654,o),
(658,559,o),
(676,430,o),
(661,353,qs),
(646,277,o),
(575,148,o),
(471,54,o),
(337,0,o),
(260,0,qs)
);
}
);
width = 699;
},
{
layerId = "FCF11552-E371-44B4-9CC7-EF7308C46468";
shapes = (
{
closed = 1;
nodes = (
(258,35,ls),
(327,35,o),
(441,86,o),
(528,173,o),
(586,288,o),
(599,353,qs),
(612,418,o),
(600,534,o),
(548,621,o),
(454,672,o),
(385,672,qs),
(219,672,l),
(92,35,l)
);
},
{
closed = 1;
nodes = (
(47,0,l),
(188,707,l),
(398,707,ls),
(474,707,o),
(579,650,o),
(639,554,o),
(653,425,o),
(638,353,qs),
(624,281,o),
(558,152,o),
(461,56,o),
(333,0,o),
(257,0,qs)
);
}
);
width = 685;
}
);
unicode = 68;
}
{
glyphname = E;
layers = (
{
anchors = (
{
name = top;
position = "{354, 477}";
},
{
name = hook;
position = "{350, 457}";
},
{
name = bottom;
position = "{259, 0}";
}
);
layerId = "8D3EB4C1-6EEE-43FB-8DDE-90F41862F4B3";
shapes = (
{
closed = 1;
nodes = (
(502,0,l),
(3,0,l),
(144.273,707,l),
(643.273,707,l),
(616.297,572,l),
(293.297,572,l),
(263.124,421,l),
(528.124,421,l),
(501.148,286,l),
(236.148,286,l),
(205.976,135,l),
(528.976,135,l)
);
}
);
width = 587;
},
{
anchors = (
{
name = top;
position = "{352, 477}";
},
{
name = Anchor_7;
position = "{370, 517}";
},
{
name = hook;
position = "{348, 457}";
},
{
name = Anchor_10;
position = "{344, 497}";
},
{
name = bottom;
position = "{257, 0}";
}
);
layerId = "1EF0794B-345E-4E92-BB90-FDAF9EB84F98";
shapes = (
{
closed = 1;
nodes = (
(491,0,l),
(16,0,l),
(157.273,707,l),
(632.273,707,l),
(609.493,593,l),
(277.493,593,l),
(241.126,411,l),
(513.126,411,l),
(490.346,297,l),
(218.346,297,l),
(181.779,114,l),
(513.779,114,l)
);
}
);
width = 583;
},
{
anchors = (
{
name = top;
position = "{349, 477}";
},
{
name = Anchor_5;
position = "{357, 517}";
},
{
name = hook;
position = "{345, 457}";
},
{
name = Anchor_8;
position = "{341, 497}";
},
{
name = bottom;
position = "{254, 0}";
}
);
layerId = "8BE48380-DCD1-4C25-918E-D8F452C40939";
shapes = (
{
closed = 1;
nodes = (
(475,0,l),
(35,0,l),
(176,707,l),
(616,707,l),
(600,625,l),
(254,625,l),
(208,396,l),
(490,396,l),
(474,314,l),
(192,314,l),
(145,82,l),
(491,82,l)
);
}
);
width = 577;
},
{
anchors = (
{
name = top;
position = "{349, 477}";
},
{
name = Anchor_6;
position = "{352, 517}";
},
{
name = hook;
position = "{345, 457}";
},
{
name = Anchor_9;
position = "{336, 497}";
},
{
name = bottom;
position = "{249, 0}";
}
);
layerId = "7825C6D3-92E0-4D36-83E5-F278C36F463D";
shapes = (
{
closed = 1;
nodes = (
(458,0,l),
(48,0,l),
(189.273,707,l),
(599.273,707,l),
(592.279,672,l),
(220.279,672,l),
(160.333,372,l),
(468.333,372,l),
(461.339,337,l),
(153.339,337,l),
(92.994,35,l),
(464.994,35,l)
);
}
);
width = 566;
}
);
unicode = 69;
}
{
glyphname = F;
layers = (
{
layerId = "B4A5DE42-3F2E-4279-A036-A3B49F620938";
shapes = (
{
closed = 1;
nodes = (
(180,0,l),
(4,0,l),
(145,707,l),
(644,707,l),
(617,572,l),
(294,572,l),
(261,406,l),
(526,406,l),
(499,271,l),
(234,271,l)
);
}
);
width = 574;
},
{
layerId = "7A2D1CAB-A283-4D96-9C16-88BF86DF5DBE";
shapes = (
{
closed = 1;
nodes = (
(160,0,l),
(17,0,l),
(158,707,l),
(633,707,l),
(610,593,l),
(278,593,l),
(240,398,l),
(512,398,l),
(489,284,l),
(217,284,l)
);
}
);
width = 567;
},
{
layerId = "EAA4FF5F-B48D-48C5-8560-F51BB314283C";
shapes = (
{
closed = 1;
nodes = (
(130,0,l),
(36,0,l),
(177,707,l),
(617,707,l),
(601,625,l),
(255,625,l),
(207,386,l),
(489,386,l),
(473,304,l),
(191,304,l)
);
}
);
width = 558;
},
{
layerId = "46A11582-2913-4625-BD09-5353CD2303E1";
shapes = (
{
closed = 1;
nodes = (
(87,0,l),
(49,0,l),
(190,707,l),
(600,707,l),
(593,672,l),
(221,672,l),
(159,361,l),
(467,361,l),
(460,326,l),
(152,326,l)
);
}
);
width = 543;
}
);
unicode = 70;
}
{
glyphname = G;
layers = (
{
anchors = (
{
name = t.uni0302;
position = "{320, 477}";
},
{
name = t.acutecomb;
position = "{327, 517}";
},
{
name = t.uni0307;
position = "{305, 457}";
},
{
name = b.uni0329;
position = "{344, 0}";
}
);
layerId = "5A493680-E9A0-4F8D-8CB4-D0B9001A6F74";
shapes = (
{
closed = 1;
nodes = (
(585,45,l),
(518,18,o),
(436,-10,o),
(333,-10,cs),
(94,-10,o),
(10,155,o),
(50,354,cs),
(90,554,o),
(238,717,o),
(481,717,cs),
(580,717,o),
(652,689,o),
(704,652,c),
(618,526,l),
(575,557,o),
(513,569,o),
(465,569,cs),
(346,569,o),
(257,482,o),
(230,353,cs),
(203,224,o),
(262,138,o),
(377,138,cs),
(397,138,o),
(418,137,o),
(439,144,c),
(466,280,l),
(359,280,l),
(386,413,l),
(658,413,l)
);
}
);
width = 679;
},
{
anchors = (
{
name = t.uni0302;
position = "{320, 477}";
},
{
name = t.acutecomb;
position = "{327, 517}";
},
{
name = t.uni0307;
position = "{305, 457}";
},
{
name = b.uni0329;
position = "{344, 0}";
}
);
layerId = "06FCF6AF-AD24-43D8-9E05-32EA8B277EF6";
shapes = (
{
closed = 1;
nodes = (
(578,44,l),
(513,16,o),
(425,-10,o),
(330,-10,cs),
(95,-10,o),
(17,156,o),
(57,353,cs),
(97,551,o),
(239,717,o),
(474,717,cs),
(569,717,o),
(644,690,o),
(696,653,c),
(626,547,l),
(570,582,o),
(505,594,o),
(457,594,cs),
(321,594,o),
(233,489,o),
(203,352,c),
(176,219,o),
(222,113,o),
(366,113,cs),
(390,113,o),
(422,114,o),
(459,125,c),
(491,286,l),
(363,286,l),
(386,398,l),
(649,398,l)
);
}
);
width = 683;
},
{
anchors = (
{
name = t.uni0302;
position = "{320, 477}";
},
{
name = t.acutecomb;
position = "{327, 517}";
},
{
name = t.uni0307;
position = "{305, 457}";
},
{
name = b.uni0329;
position = "{344, 0}";
}
);
layerId = "55D47B1B-2A7A-4A7C-934D-E2DC43635214";
shapes = (
{
closed = 1;
nodes = (
(569,42,l),
(508,13,o),
(410,-10,o),
(325,-10,cs),
(97,-10,o),
(28,159,o),
(68,352,cs),
(108,546,o),
(242,717,o),
(464,717,cs),
(555,717,o),
(632,691,o),
(685,655,c),
(636,579,l),
(561,620,o),
(493,632,o),
(445,632,cs),
(284,632,o),
(194,499,o),
(162,350,c),
(133,209,o),
(168,75,o),
(348,75,cs),
(377,75,o),
(426,78,o),
(489,97,c),
(529,295,l),
(369,295,l),
(385,375,l),
(636,375,l)
);
}
);
width = 689;
},
{
anchors = (
{
name = t.uni0302;
position = "{320, 477}";
},
{
name = t.acutecomb;
position = "{327, 517}";
},
{
name = t.uni0307;
position = "{305, 457}";
},
{
name = b.uni0329;
position = "{344, 0}";
}
);
layerId = "FCF11552-E371-44B4-9CC7-EF7308C46468";
shapes = (
{
closed = 1;
nodes = (
(539,35,l),
(478,10,o),
(394,-10,o),
(318,-10,cs),
(101,-10,o),
(39,163,o),
(76,355,cs),
(114,548,o),
(250,717,o),
(464,717,cs),
(528,717,o),
(584,703,o),
(657,668,c),
(635,635,l),
(563,670,o),
(506,681,o),
(453,681,cs),
(263,681,o),
(151,525,o),
(116,354,cs),
(81,186,o),
(132,26,o),
(330,26,cs),
(390,26,o),
(458,40,o),
(506,57,c),
(558,317,l),
(382,317,l),
(389,352,l),
(602,352,l)
);
}
);
width = 670;
}
);
unicode = 71;
}
{
glyphname = H;
layers = (
{
anchors = (
{
name = top;
position = "{400, 477}";
}
);
layerId = "B4A5DE42-3F2E-4279-A036-A3B49F620938";
shapes = (
{
closed = 1;
nodes = (
(606,0,l),
(425,0,l),
(482.148,286,l),
(241.148,286,l),
(184,0,l),
(3,0,l),
(144.273,707,l),
(325.273,707,l),
(268.124,421,l),
(509.124,421,l),
(566.273,707,l),
(747.273,707,l)
);
}
);
width = 721;
},
{
anchors = (
{
name = top;
position = "{399, 477}";
}
);
layerId = "7A2D1CAB-A283-4D96-9C16-88BF86DF5DBE";
shapes = (
{
closed = 1;
nodes = (
(592,0,l),
(446,0,l),
(505.346,297,l),
(221.346,297,l),
(162,0,l),
(16,0,l),
(157.273,707,l),
(303.273,707,l),
(244.126,411,l),
(528.126,411,l),
(587.273,707,l),
(733.273,707,l)
);
}
);
width = 720;
},
{
anchors = (
{
name = top;
position = "{398, 477}";
}
);
layerId = "EAA4FF5F-B48D-48C5-8560-F51BB314283C";
shapes = (
{
closed = 1;
nodes = (
(571,0,l),
(477,0,l),
(540,314,l),
(192,314,l),
(129,0,l),
(35,0,l),
(176,707,l),
(270,707,l),
(208,396,l),
(556,396,l),
(618,707,l),
(712,707,l)
);
}
);
width = 718;
},
{
anchors = (
{
name = top;
position = "{393, 477}";
}
);
layerId = "46A11582-2913-4625-BD09-5353CD2303E1";
shapes = (
{
closed = 1;
nodes = (
(548,0,l),
(510,0,l),
(577.339,337,l),
(153.339,337,l),
(86,0,l),
(48,0,l),
(189.273,707,l),
(227.273,707,l),
(160.333,372,l),
(584.333,372,l),
(651.273,707,l),
(689.273,707,l)
);
}
);
width = 708;
}
);
unicode = 72;
}
{
glyphname = I;
layers = (
{
anchors = (
{
name = top;
position = "{192, 477}";
},
{
name = hook;
position = "{188, 457}";
},
{
name = bottom;
position = "{97, 0}";
}
);
layerId = "3664570B-2F06-474D-8410-56569ABB35BC";
shapes = (
{
closed = 1;
nodes = (
(187,0,l),
(7,0,l),
(148.273,707,l),
(328.273,707,l)
);
}
);
width = 306;
},
{
anchors = (
{
name = top;
position = "{188, 477}";
},
{
name = Anchor_6;
position = "{172, 397}";
},
{
name = Anchor_7;
position = "{196, 517}";
},
{
name = hook;
position = "{184, 457}";
},
{
name = Anchor_10;
position = "{202, 497}";
},
{
name = Anchor_11;
position = "{168, 377}";
},
{
name = bottom;
position = "{93, 0}";
}
);
layerId = "452821E5-9DA0-4F55-A4C0-CD58A2FD2761";
shapes = (
{
closed = 1;
nodes = (
(166,0,l),
(20,0,l),
(161.273,707,l),
(307.273,707,l)
);
}
);
width = 298;
},
{
anchors = (
{
name = top;
position = "{182, 477}";
},
{
name = Anchor_4;
position = "{166, 397}";
},
{
name = Anchor_5;
position = "{190, 517}";
},
{
name = hook;
position = "{178, 457}";
},
{
name = Anchor_8;
position = "{196, 497}";
},
{
name = Anchor_9;
position = "{162, 377}";
},
{
name = bottom;
position = "{87, 0}";
}
);
layerId = "E64728B9-E266-466D-8B00-8DDE1D2CA3E4";
shapes = (
{
closed = 1;
nodes = (
(134,0,l),
(40,0,l),
(181,707,l),
(275,707,l)
);
}
);
width = 286;
},
{
anchors = (
{
name = top;
position = "{168, 477}";
},
{
name = Anchor_4;
position = "{152, 397}";
},
{
name = Anchor_6;
position = "{186, 517}";
},
{
name = hook;
position = "{164, 457}";
},
{
name = Anchor_9;
position = "{162, 497}";
},
{
name = Anchor_10;
position = "{148, 377}";
},
{
name = bottom;
position = "{73, 0}";
}
);
layerId = "FCB1C76D-2FA9-4C34-B9A5-09CF66038F2E";
shapes = (
{
closed = 1;
nodes = (
(92,0,l),
(54,0,l),
(195.273,707,l),
(233.273,707,l)
);
}
);
width = 258;
}
);
unicode = 73;
}
{
glyphname = J;
layers = (
{
layerId = "3AC68A5C-915A-4DAB-90D3-514E1290D8F5";
name = "#instance";
shapes = (
{
closed = 1;
nodes = (
(391,253,ls),
(353,60,o),
(263,-10,o),
(106,-10,cs),
(39,-10,o),
(-3,3,o),
(-47,16,c),
(8,156,l),
(40,143,o),
(76,135,o),
(108,135,cs),
(162,135,o),
(195,158,o),
(211,248,c),
(303,707,l),
(481,707,l)
);
}
);
width = 453;
},
{
layerId = "5A493680-E9A0-4F8D-8CB4-D0B9001A6F74";
shapes = (
{
closed = 1;
nodes = (
(391,253,ls),
(353,60,o),
(263,-10,o),
(106,-10,cs),
(39,-10,o),
(-3,3,o),
(-47,16,c),
(8,156,l),
(40,143,o),
(76,135,o),
(108,135,cs),
(162,135,o),
(195,158,o),
(211,248,c),
(303,707,l),
(481,707,l)
);
}
);
width = 453;
},
{
layerId = "06FCF6AF-AD24-43D8-9E05-32EA8B277EF6";
shapes = (
{
closed = 1;
nodes = (
(370,252,ls),
(335,79,o),
(262,-10,o),
(101,-10,cs),
(40,-10,o),
(-6,2,o),
(-46,17,c),
(0,133,l),
(32,120,o),
(71,111,o),
(106,111,cs),
(179,111,o),
(207,158,o),
(224,249,c),
(316,707,l),
(460,707,l)
);
}
);
width = 444;
},
{
layerId = "55D47B1B-2A7A-4A7C-934D-E2DC43635214";
shapes = (
{
closed = 1;
nodes = (
(338,251,ls),
(309,107,o),
(259,-10,o),
(93,-10,cs),
(42,-10,o),
(-11,1,o),
(-44,18,c),
(-11,99,l),
(21,86,o),
(64,75,o),
(103,75,cs),
(205,75,o),
(226,158,o),
(245,251,cs),
(336,707,l),
(429,707,l)
);
}
);
width = 430;
},
{
layerId = "FCF11552-E371-44B4-9CC7-EF7308C46468";
shapes = (
{
closed = 1;
nodes = (
(303,243,ls),
(274,96,o),
(212,-10,o),
(69,-10,cs),
(29,-10,o),
(-12,-2,o),
(-45,10,c),
(-29,44,l),
(6,32,o),
(40,26,o),
(72,26,cs),
(193,26,o),
(239,117,o),
(266,243,c),
(359,707,l),
(396,707,l)
);
}
);
width = 410;
}
);
unicode = 74;
}
{
glyphname = K;
layers = (
{
anchors = (
{
name = b.uni0329;
position = "{288, 0}";
}
);
layerId = "5A493680-E9A0-4F8D-8CB4-D0B9001A6F74";
shapes = (
{
closed = 1;
nodes = (
(476,-23,l),
(399,65,o),
(342,178,o),
(295,287,c),
(219,213,l),
(177,0,l),
(2,0,l),
(144,707,l),
(318,707,l),
(265,442,l),
(534,707,l),
(728,707,l),
(428,415,l),
(503,268,o),
(546,194,o),
(624,87,c)
);
}
);
width = 667;
},
{
anchors = (
{
name = b.uni0329;
position = "{288, 0}";
}
);
layerId = "06FCF6AF-AD24-43D8-9E05-32EA8B277EF6";
shapes = (
{
closed = 1;
nodes = (
(475,-18,l),
(402,71,o),
(333,199,o),
(288,303,c),
(200,217,l),
(157,0,l),
(15,0,l),
(157,707,l),
(298,707,l),
(237,403,l),
(542,707,l),
(699,707,l),
(395,408,l),
(460,272,o),
(523,169,o),
(596,72,c)
);
}
);
width = 643;
},
{
anchors = (
{
name = b.uni0329;
position = "{288, 0}";
}
);
layerId = "55D47B1B-2A7A-4A7C-934D-E2DC43635214";
shapes = (
{
closed = 1;
nodes = (
(474,-10,l),
(405,80,o),
(319,231,o),
(276,327,c),
(172,223,l),
(127,0,l),
(34,0,l),
(175,707,l),
(268,707,l),
(196,345,l),
(554,707,l),
(656,707,l),
(345,397,l),
(398,283,o),
(487,130,o),
(555,49,c)
);
}
);
width = 607;
},
{
anchors = (
{
name = b.uni0329;
position = "{288, 0}";
}
);
layerId = "FCF11552-E371-44B4-9CC7-EF7308C46468";
shapes = (
{
closed = 1;
nodes = (
(488,-3,l),
(403,105,o),
(338,222,o),
(277,354,c),
(126,205,l),
(85,0,l),
(47,0,l),
(188,707,l),
(226,707,l),
(136,259,l),
(589,707,l),
(635,707,l),
(307,384,l),
(367,251,o),
(433,137,o),
(522,22,c)
);
}
);
width = 581;
}
);
unicode = 75;
}
{
glyphname = L;
layers = (
{
anchors = (
{
name = t.uni0302;
position = "{82, 477}";
},
{
name = t.acutecomb;
position = "{82, 517}";
},
{
name = b.uni0329;
position = "{253, 0}";
},
{
name = t.uni0315;
position = "{317, 477}";
}
);
layerId = "5A493680-E9A0-4F8D-8CB4-D0B9001A6F74";
shapes = (
{
closed = 1;
nodes = (
(496,0,l),
(2,0,l),
(144,707,l),
(323,707,l),
(209,135,l),
(523,135,l)
);
}
);
width = 558;
},
{
anchors = (
{
name = t.uni0302;
position = "{82, 477}";
},
{
name = t.acutecomb;
position = "{82, 517}";
},
{
name = b.uni0329;
position = "{253, 0}";
},
{
name = t.uni0315;
position = "{317, 477}";
}
);
layerId = "06FCF6AF-AD24-43D8-9E05-32EA8B277EF6";
shapes = (
{
closed = 1;
nodes = (
(486,0,l),
(15,0,l),
(157,707,l),
(301,707,l),
(183,114,l),
(508,114,l)
);
}
);
width = 549;
},
{
anchors = (
{
name = t.uni0302;
position = "{82, 477}";
},
{
name = t.acutecomb;
position = "{82, 517}";
},
{
name = b.uni0329;
position = "{253, 0}";
},
{
name = t.uni0315;
position = "{317, 477}";
}
);
layerId = "55D47B1B-2A7A-4A7C-934D-E2DC43635214";
shapes = (
{
closed = 1;
nodes = (
(470,0,l),
(34,0,l),
(175,707,l),
(268,707,l),
(144,82,l),
(486,82,l)
);
}
);
width = 536;
},
{
anchors = (
{
name = t.uni0302;
position = "{82, 477}";
},
{
name = t.acutecomb;
position = "{82, 517}";
},
{
name = b.uni0329;
position = "{253, 0}";
},
{
name = t.uni0315;
position = "{317, 477}";
}
);
layerId = "FCF11552-E371-44B4-9CC7-EF7308C46468";
shapes = (
{
closed = 1;
nodes = (
(453,0,l),
(47,0,l),
(188,707,l),
(226,707,l),
(92,35,l),
(460,35,l)
);
}
);
width = 520;
}
);
unicode = 76;
}
{
glyphname = M;
layers = (
{
layerId = "8D3EB4C1-6EEE-43FB-8DDE-90F41862F4B3";
shapes = (
{
closed = 1;
nodes = (
(731,0,l),
(550,0,l),
(637.521,438,l),
(443.364,197,l),
(355.364,197,l),
(260.522,433,l),
(174,0,l),
(3,0,l),
(144.273,707,l),
(327.273,707,l),
(450.126,411,l),
(690.273,707,l),
(872.273,707,l)
);
}
);
width = 846;
},
{
layerId = "1EF0794B-345E-4E92-BB90-FDAF9EB84F98";
shapes = (
{
closed = 1;
nodes = (
(719,0,l),
(573,0,l),
(669.913,485,l),
(440.363,207,l),
(368.363,207,l),
(251.313,482,l),
(155,0,l),
(16,0,l),
(157.273,707,l),
(307.273,707,l),
(445.331,382,l),
(713.273,707,l),
(860.273,707,l)
);
}
);
width = 847;
},
{
layerId = "8BE48380-DCD1-4C25-918E-D8F452C40939";
shapes = (
{
closed = 1;
nodes = (
(701,0,l),
(608,0,l),
(719,555,l),
(436,222,l),
(387,222,l),
(238,555,l),
(127,0,l),
(35,0,l),
(176,707,l),
(277,707,l),
(439,339,l),
(747,707,l),
(842,707,l)
);
}
);
width = 848;
},
{
layerId = "7825C6D3-92E0-4D36-83E5-F278C36F463D";
shapes = (
{
closed = 1;
nodes = (
(678,0,l),
(641,0,l),
(773.48,663,l),
(429.556,243,l),
(394.556,243,l),
(216.48,663,l),
(84,0,l),
(48,0,l),
(189.273,707,l),
(239.273,707,l),
(420.349,282,l),
(768.273,707,l),
(819.273,707,l)
);
}
);
width = 838;
}
);
unicode = 77;
}
{
glyphname = N;
layers = (
{
anchors = (
{
name = top;
position = "{400, 477}";
},
{
name = hook;
position = "{396, 457}";
},
{
name = bottom;
position = "{306, 0}";
}
);
layerId = "3664570B-2F06-474D-8410-56569ABB35BC";
shapes = (
{
closed = 1;
nodes = (
(609,0,l),
(439,0,l),
(259.323,427,l),
(174,0,l),
(3,0,l),
(144.273,707,l),
(315.273,707,l),
(494.95,280,l),
(580.273,707,l),
(750.273,707,l)
);
}
);
width = 724;
},
{
anchors = (
{
name = top;
position = "{400, 477}";
},
{
name = Anchor_7;
position = "{434, 517}";
},
{
name = hook;
position = "{396, 457}";
},
{
name = bottom;
position = "{305, 0}";
}
);
layerId = "452821E5-9DA0-4F55-A4C0-CD58A2FD2761";
shapes = (
{
closed = 1;
nodes = (
(595,0,l),
(456,0,l),
(250.114,476,l),
(155,0,l),
(16,0,l),
(157.273,707,l),
(296.273,707,l),
(502.158,231,l),
(597.273,707,l),
(736.273,707,l)
);
}
);
width = 723;
},
{
anchors = (
{
name = top;
position = "{400, 477}";
},
{
name = Anchor_5;
position = "{434, 517}";
},
{
name = hook;
position = "{396, 457}";
},
{
name = bottom;
position = "{304, 0}";
}
);
layerId = "E64728B9-E266-466D-8B00-8DDE1D2CA3E4";
shapes = (
{
closed = 1;
nodes = (
(574,0,l),
(482,0,l),
(237,550,l),
(127,0,l),
(35,0,l),
(176,707,l),
(268,707,l),
(513,157,l),
(623,707,l),
(715,707,l)
);
}
);
width = 721;
},
{
anchors = (
{
name = top;
position = "{395, 477}";
},
{
name = Anchor_6;
position = "{422, 517}";
},
{
name = hook;
position = "{391, 457}";
},
{
name = bottom;
position = "{299, 0}";
}
);
layerId = "FCB1C76D-2FA9-4C34-B9A5-09CF66038F2E";
shapes = (
{
closed = 1;
nodes = (
(551,0,l),
(502,0,l),
(215.681,659,l),
(84,0,l),
(48,0,l),
(189.273,707,l),
(237.273,707,l),
(524.392,47,l),
(656.273,707,l),
(692.273,707,l)
);
}
);
width = 711;
}
);
unicode = 78;
}
{
glyphname = O;
layers = (
{
anchors = (
{
name = top;
position = "{418, 477}";
},
{
name = hook;
position = "{414, 457}";
},
{
name = bottom;
position = "{323, 0}";
}
);
layerId = "8D3EB4C1-6EEE-43FB-8DDE-90F41862F4B3";
shapes = (
{
closed = 1;
nodes = (
(224,135,o),
(212,248,o),
(233,353,cs),
(254,459,o),
(310,572,o),
(437,572,cs),
(564,572,o),
(575,459,o),
(554,353,cs),
(532,247,o),
(476,135,o),
(350,135,cs)
);
},
{
closed = 1;
nodes = (
(535,-10,o),
(695,143,o),
(737,353,cs),
(778,563,o),
(682,717,o),
(466,717,cs),
(251,717,o),
(92,561,o),
(51,353,cs),
(9,145,o),
(106,-10,o),
(321,-10,cs)
);
}
);
width = 758;
},
{
anchors = (
{
name = top;
position = "{415, 477}";
},
{
name = Anchor_7;
position = "{423, 517}";
},
{
name = hook;
position = "{411, 457}";
},
{
name = Anchor_9;
position = "{461, 537}";
},
{
name = Anchor_10;
position = "{419, 497}";
},
{
name = bottom;
position = "{320, 0}";
}
);
layerId = "1EF0794B-345E-4E92-BB90-FDAF9EB84F98";
shapes = (
{
closed = 1;
nodes = (
(204,111,o),
(182,235,o),
(206,353,cs),
(229,472,o),
(300,596,o),
(439,596,cs),
(578,596,o),
(599,472,o),
(576,353,cs),
(552,234,o),
(480,111,o),
(342,111,cs)
);
},
{
closed = 1;
nodes = (
(530,-10,o),
(683,150,o),
(724,353,cs),
(764,556,o),
(676,717,o),
(463,717,cs),
(251,717,o),
(98,555,o),
(58,353,cs),
(17,151,o),
(106,-10,o),
(318,-10,cs)
);
}
);
width = 753;
},
{
anchors = (
{
name = top;
position = "{411, 477}";
},
{
name = Anchor_5;
position = "{419, 517}";
},
{
name = hook;
position = "{407, 457}";
},
{
name = Anchor_7;
position = "{457, 537}";
},
{
name = Anchor_8;
position = "{415, 497}";
},
{
name = bottom;
position = "{316, 0}";
}
);
layerId = "8BE48380-DCD1-4C25-918E-D8F452C40939";
shapes = (
{
closed = 1;
nodes = (
(175,75,o),
(137,215,o),
(165,353,cs),
(192,491,o),
(285,632,o),
(442,632,cs),
(599,632,o),
(636,491,o),
(609,353,cs),
(581,215,o),
(487,75,o),
(331,75,cs)
);
},
{
closed = 1;
nodes = (
(522,-10,o),
(666,160,o),
(705,353,cs),
(743,546,o),
(667,717,o),
(459,717,cs),
(251,717,o),
(107,546,o),
(69,353,cs),
(30,160,o),
(106,-10,o),
(314,-10,cs)
);
}
);
width = 745;
},
{
anchors = (
{
name = top;
position = "{400, 477}";
},
{
name = Anchor_6;
position = "{408, 517}";
},
{
name = hook;
position = "{396, 457}";
},
{
name = Anchor_8;
position = "{446, 537}";
},
{
name = Anchor_9;
position = "{404, 497}";
},
{
name = bottom;
position = "{305, 0}";
}
);
layerId = "7825C6D3-92E0-4D36-83E5-F278C36F463D";
shapes = (
{
closed = 1;
nodes = (
(127,26,o),
(85,194,o),
(117,354,cs),
(149,516,o),
(257,681,o),
(441,681,cs),
(627,681,o),
(667,517,o),
(635,354,cs),
(603,193,o),
(494,26,o),
(310,26,cs)
);
},
{
closed = 1;
nodes = (
(509,-10,o),
(638,170,o),
(675,354,cs),
(712,539,o),
(655,717,o),
(448,717,cs),
(241,717,o),
(114,539,o),
(77,354,cs),
(40,169,o),
(97,-10,o),
(303,-10,cs)
);
}
);
width = 723;
}
);
unicode = 79;
}
{
glyphname = P;
layers = (
{
layerId = "3AC68A5C-915A-4DAB-90D3-514E1290D8F5";
name = "#instance";
shapes = (
{
closed = 1;
nodes = (
(177,0,l),
(2,0,l),
(144,707,l),
(434,707,ls),
(576,707,o),
(661,617,o),
(632,470,c),
(602,325,o),
(482,234,o),
(339,234,cs),
(223,234,l)
);
},
{
closed = 1;
nodes = (
(343,369,ls),
(400,369,o),
(443,404,o),
(456,472,cs),
(469,540,o),
(441,572,o),
(384,572,cs),
(291,572,l),
(250,369,l)
);
}
);
width = 614;
},
{
layerId = "5A493680-E9A0-4F8D-8CB4-D0B9001A6F74";
shapes = (
{
closed = 1;
nodes = (
(177,0,l),
(2,0,l),
(144,707,l),
(434,707,ls),
(576,707,o),
(661,617,o),
(632,470,c),
(602,325,o),
(482,234,o),
(339,234,cs),
(223,234,l)
);
},
{
closed = 1;
nodes = (
(343,369,ls),
(400,369,o),
(443,404,o),
(456,472,cs),
(469,540,o),
(441,572,o),
(384,572,cs),
(291,572,l),
(250,369,l)
);
}
);
width = 614;
},
{
layerId = "06FCF6AF-AD24-43D8-9E05-32EA8B277EF6";
shapes = (
{
closed = 1;
nodes = (
(157,0,l),
(15,0,l),
(157,707,l),
(428,707,ls),
(566,707,o),
(647,619,o),
(620,479,cs),
(593,339,o),
(473,251,o),
(337,251,cs),
(207,251,l)
);
},
{
closed = 1;
nodes = (
(344,365,ls),
(411,365,o),
(462,407,o),
(477,480,cs),
(492,552,o),
(457,593,o),
(389,593,cs),
(275,593,l),
(230,365,l)
);
}
);
width = 605;
},
{
layerId = "55D47B1B-2A7A-4A7C-934D-E2DC43635214";
shapes = (
{
closed = 1;
nodes = (
(127,0,l),
(34,0,l),
(175,707,l),
(419,707,ls),
(552,707,o),
(628,624,o),
(602,492,cs),
(575,360,o),
(465,277,o),
(333,277,cs),
(182,277,l)
);
},
{
closed = 1;
nodes = (
(344,359,ls),
(423,359,o),
(491,412,o),
(507,492,cs),
(523,572,o),
(478,625,o),
(398,625,cs),
(252,625,l),
(199,359,l)
);
}
);
width = 592;
},
{
layerId = "FCF11552-E371-44B4-9CC7-EF7308C46468";
shapes = (
{
closed = 1;
nodes = (
(85,0,l),
(47,0,l),
(188,707,l),
(417,707,ls),
(540,707,o),
(607,626,o),
(583,502,cs),
(559,378,o),
(457,297,o),
(335,297,cs),
(144,297,l)
);
},
{
closed = 1;
nodes = (
(338,332,ls),
(439,332,o),
(524,400,o),
(543,502,c),
(565,604,o),
(507,672,o),
(406,672,cs),
(219,672,l),
(151,332,l)
);
}
);
width = 575;
}
);
unicode = 80;
}
{
glyphname = Q;
layers = (
{
layerId = "3AC68A5C-915A-4DAB-90D3-514E1290D8F5";
name = "#instance";
shapes = (
{
closed = 1;
nodes = (
(113,-12,o),
(7,142,o),
(50,353,cs),
(93,561,o),
(250,717,o),
(462,717,cs),
(675,717,o),
(771,563,o),
(729,353,c),
(702,223,o),
(631,96,o),
(497,32,c),
(526,-11,o),
(560,-49,o),
(596,-85,c),
(449,-195,l),
(394,-151,o),
(353,-80,o),
(328,-13,c),
(326,-12,o),
(322,-12,o),
(317,-12,cs)
);
},
{
closed = 1;
nodes = (
(471,135,o),
(527,246,o),
(548,353,cs),
(569,459,o),
(560,572,o),
(434,572,cs),
(308,572,o),
(251,459,o),
(230,353,cs),
(209,249,o),
(223,135,o),
(346,135,cs)
);
}
);
width = 749;
},
{
layerId = "5A493680-E9A0-4F8D-8CB4-D0B9001A6F74";
shapes = (
{
closed = 1;
nodes = (
(113,-12,o),
(7,142,o),
(50,353,cs),
(93,561,o),
(250,717,o),
(462,717,cs),
(675,717,o),
(771,563,o),
(729,353,c),
(702,223,o),
(631,96,o),
(497,32,c),
(526,-11,o),
(560,-49,o),
(596,-85,c),
(449,-195,l),
(394,-151,o),
(353,-80,o),
(328,-13,c),
(326,-12,o),
(322,-12,o),
(317,-12,cs)
);
},
{
closed = 1;
nodes = (
(471,135,o),
(527,246,o),
(548,353,cs),
(569,459,o),
(560,572,o),
(434,572,cs),
(308,572,o),
(251,459,o),
(230,353,cs),
(209,249,o),
(223,135,o),
(346,135,cs)
);
}
);
width = 749;
},
{
layerId = "06FCF6AF-AD24-43D8-9E05-32EA8B277EF6";
shapes = (
{
closed = 1;
nodes = (
(95,-11,o),
(21,168,o),
(57,353,cs),
(99,555,o),
(248,717,o),
(460,717,c),
(671,721,o),
(757,551,o),
(716,353,cs),
(689,222,o),
(618,99,o),
(488,31,c),
(517,-14,o),
(550,-56,o),
(589,-92,c),
(471,-187,l),
(416,-142,o),
(379,-75,o),
(352,-8,c),
(340,-10,o),
(327,-11,o),
(314,-11,cs)
);
},
{
closed = 1;
nodes = (
(476,111,o),
(546,234,o),
(570,353,cs),
(594,473,o),
(573,596,o),
(435,596,cs),
(298,596,o),
(228,473,o),
(204,353,cs),
(180,235,o),
(202,111,o),
(338,111,cs)
);
}
);
width = 744;
},
{
layerId = "55D47B1B-2A7A-4A7C-934D-E2DC43635214";
shapes = (
{
closed = 1;
nodes = (
(104,-10,o),
(30,160,o),
(68,353,cs),
(106,546,o),
(250,717,o),
(456,717,cs),
(662,717,o),
(736,546,o),
(698,353,c),
(671,224,o),
(598,100,o),
(474,30,c),
(502,-21,o),
(535,-66,o),
(578,-103,c),
(505,-175,l),
(450,-128,o),
(416,-68,o),
(389,-1,c),
(364,-7,o),
(337,-10,o),
(310,-10,cs)
);
},
{
closed = 1;
nodes = (
(483,75,o),
(574,214,o),
(603,353,c),
(630,492,o),
(595,632,o),
(439,632,cs),
(283,632,o),
(190,492,o),
(163,353,cs),
(136,214,o),
(173,75,o),
(327,75,cs)
);
}
);
width = 736;
},
{
layerId = "FCF11552-E371-44B4-9CC7-EF7308C46468";
shapes = (
{
closed = 1;
nodes = (
(97,-10,o),
(39,170,o),
(76,354,cs),
(113,541,o),
(239,717,o),
(445,717,cs),
(649,717,o),
(706,539,o),
(668,354,cs),
(641,223,o),
(569,84,o),
(436,20,c),
(463,-39,o),
(500,-89,o),
(543,-134,c),
(513,-162,l),
(468,-113,o),
(429,-58,o),
(401,6,c),
(367,-5,o),
(333,-10,o),
(299,-10,cs)
);
},
{
closed = 1;
nodes = (
(487,26,o),
(597,193,o),
(629,354,cs),
(661,518,o),
(623,681,o),
(437,681,cs),
(256,681,o),
(148,516,o),
(116,354,cs),
(84,195,o),
(125,26,o),
(307,26,cs)
);
}
);
width = 714;
}
);
unicode = 81;
}
{
glyphname = R;
layers = (
{
layerId = "8D3EB4C1-6EEE-43FB-8DDE-90F41862F4B3";
shapes = (
{
closed = 1;
nodes = (
(451.404,-23,l),
(394.591,48,o),
(352.377,127,o),
(301.555,248,c),
(228.555,248,l),
(179,0,l),
(3,0,l),
(144.273,707,l),
(437.273,707,ls),
(507.273,707,o),
(568.677,684,o),
(603.484,643,cs),
(638.291,602,o),
(652.902,545,o),
(639.314,477,cs),
(620.731,384,o),
(562.942,320,o),
(481.549,283,c),
(518.363,207,o),
(554.773,149,o),
(598.384,87,c)
);
},
{
closed = 1;
nodes = (
(348.332,377,ls),
(407.332,377,o),
(448.725,414,o),
(460.715,474,cs),
(472.704,534,o),
(446.297,572,o),
(387.297,572,cs),
(293.297,572,l),
(254.332,377,l)
);
}
);
width = 650;
},
{
layerId = "1EF0794B-345E-4E92-BB90-FDAF9EB84F98";
shapes = (
{
closed = 1;
nodes = (
(465.403,-18,l),
(400.988,65,o),
(353.772,154,o),
(303.952,265,c),
(211.952,265,l),
(159,0,l),
(16,0,l),
(157.273,707,l),
(431.273,707,ls),
(500.273,707,o),
(557.877,685,o),
(592.084,646,cs),
(626.291,607,o),
(640.3,552,o),
(626.913,485,cs),
(606.931,385,o),
(541.142,321,o),
(450.948,290,c),
(493.363,207,o),
(535.775,139,o),
(586.387,72,c)
);
},
{
closed = 1;
nodes = (
(348.733,374,ls),
(416.733,374,o),
(467.925,415,o),
(481.513,483,cs),
(495.101,551,o),
(460.493,593,o),
(392.493,593,cs),
(277.493,593,l),
(233.733,374,l)
);
}
);
width = 642;
},
{
layerId = "8BE48380-DCD1-4C25-918E-D8F452C40939";
shapes = (
{
closed = 1;
nodes = (
(486,-10,l),
(410,91,o),
(356,194,o),
(307,291,c),
(187,291,l),
(129,0,l),
(35,0,l),
(176,707,l),
(422,707,ls),
(489,707,o),
(542,687,o),
(575,651,cs),
(608,615,o),
(621,562,o),
(608,497,cs),
(586,386,o),
(509,323,o),
(405,300,c),
(455,207,o),
(508,124,o),
(568,49,c)
);
},
{
closed = 1;
nodes = (
(350,369,ls),
(431,369,o),
(496,417,o),
(512,497,cs),
(528,577,o),
(482,625,o),
(401,625,cs),
(254,625,l),
(203,369,l)
);
}
);
width = 630;
},
{
layerId = "7825C6D3-92E0-4D36-83E5-F278C36F463D";
shapes = (
{
closed = 1;
nodes = (
(507.401,-3,l),
(428.383,97,o),
(372.565,193,o),
(315.344,312,c),
(148.344,312,l),
(86,0,l),
(48,0,l),
(189.273,707,l),
(422.273,707,ls),
(482.273,707,o),
(529.676,689,o),
(559.882,655,cs),
(590.088,621,o),
(601.897,570,o),
(589.708,509,cs),
(566.529,393,o),
(477.542,323,o),
(358.344,312,c),
(410.563,208,o),
(467.379,117,o),
(541.396,22,c)
);
},
{
closed = 1;
nodes = (
(345.337,347,ls),
(446.337,347,o),
(528.927,405,o),
(549.708,509,cs),
(570.29,612,o),
(511.279,672,o),
(410.279,672,cs),
(220.279,672,l),
(155.337,347,l)
);
}
);
width = 611;
}
);
unicode = 82;
}
{
glyphname = S;
layers = (
{
layerId = "3AC68A5C-915A-4DAB-90D3-514E1290D8F5";
name = "#instance";
shapes = (
{
closed = 1;
nodes = (
(64,187,l),
(96,166,o),
(192,132,o),
(272,132,cs),
(341,132,o),
(372,159,o),
(379,191,cs),
(389,243,o),
(332,268,o),
(266,294,c),
(171,334,o),
(51,377,o),
(78,513,cs),
(102,637,o),
(223,717,o),
(386,717,cs),
(463,717,o),
(542,701,o),
(619,656,c),
(532,529,l),
(489,553,o),
(418,575,o),
(361,575,cs),
(314,575,o),
(269,560,o),
(262,525,cs),
(254,488,o),
(300,464,o),
(361,443,c),
(461,406,o),
(593,357,o),
(564,207,cs),
(538,72,o),
(404,-10,o),
(242,-10,cs),
(137,-10,o),
(42,23,o),
(-22,60,c)
);
}
);
width = 601;
},
{
layerId = "5A493680-E9A0-4F8D-8CB4-D0B9001A6F74";
shapes = (
{
closed = 1;
nodes = (
(64,187,l),
(96,166,o),
(192,132,o),
(272,132,cs),
(341,132,o),
(372,159,o),
(379,191,cs),
(389,243,o),
(332,268,o),
(266,294,c),
(171,334,o),
(51,377,o),
(78,513,cs),
(102,637,o),
(223,717,o),
(386,717,cs),
(463,717,o),
(542,701,o),
(619,656,c),
(532,529,l),
(489,553,o),
(418,575,o),
(361,575,cs),
(314,575,o),
(269,560,o),
(262,525,cs),
(254,488,o),
(300,464,o),
(361,443,c),
(461,406,o),
(593,357,o),
(564,207,cs),
(538,72,o),
(404,-10,o),
(242,-10,cs),
(137,-10,o),
(42,23,o),
(-22,60,c)
);
}
);
width = 601;
},
{
layerId = "06FCF6AF-AD24-43D8-9E05-32EA8B277EF6";
shapes = (
{
closed = 1;
nodes = (
(52,168,l),
(100,136,o),
(187,109,o),
(260,109,cs),
(339,109,o),
(385,140,o),
(394,188,cs),
(407,252,o),
(341,276,o),
(267,305,cs),
(171,342,o),
(59,383,o),
(85,518,c),
(112,647,o),
(234,717,o),
(380,717,cs),
(459,717,o),
(537,698,o),
(604,655,c),
(532,548,l),
(483,576,o),
(418,598,o),
(359,598,cs),
(303,598,o),
(242,577,o),
(234,528,c),
(223,478,o),
(278,453,o),
(346,429,c),
(445,392,o),
(572,346,o),
(543,199,cs),
(516,67,o),
(390,-10,o),
(233,-10,cs),
(138,-10,o),
(47,18,o),
(-20,61,c)
);
}
);
width = 591;
},
{
layerId = "55D47B1B-2A7A-4A7C-934D-E2DC43635214";
shapes = (
{
closed = 1;
nodes = (
(34,140,l),
(105,92,o),
(181,75,o),
(241,75,cs),
(332,75,o),
(402,111,o),
(417,183,cs),
(433,263,o),
(354,290,o),
(269,322,c),
(172,357,o),
(69,394,o),
(96,526,cs),
(123,662,o),
(253,717,o),
(371,717,cs),
(454,717,o),
(529,693,o),
(582,654,c),
(532,577,l),
(472,612,o),
(415,632,o),
(355,632,cs),
(285,632,o),
(205,604,o),
(192,532,cs),
(179,463,o),
(242,437,o),
(322,408,c),
(425,368,o),
(542,325,o),
(513,187,cs),
(486,59,o),
(367,-10,o),
(220,-10,cs),
(140,-10,o),
(56,10,o),
(-17,63,c)
);
}
);
width = 574;
},
{
layerId = "FCF11552-E371-44B4-9CC7-EF7308C46468";
shapes = (
{
closed = 1;
nodes = (
(8,87,l),
(79,44,o),
(147,26,o),
(216,26,cs),
(331,26,o),
(423,78,o),
(441,173,cs),
(460,272,o),
(380,305,o),
(270,348,c),
(164,391,o),
(81,426,o),
(102,539,cs),
(126,662,o),
(247,717,o),
(363,717,cs),
(430,717,o),
(494,700,o),
(554,665,c),
(532,632,l),
(475,663,o),
(414,681,o),
(354,681,cs),
(264,681,o),
(164,642,o),
(142,540,cs),
(123,452,o),
(188,427,o),
(295,384,cs),
(417,336,o),
(505,293,o),
(481,174,cs),
(457,57,o),
(353,-10,o),
(205,-10,cs),
(126,-10,o),
(56,10,o),
(-15,54,c)
);
}
);
width = 550;
}
);
unicode = 83;
}
{
glyphname = T;
layers = (
{
layerId = "8D3EB4C1-6EEE-43FB-8DDE-90F41862F4B3";
shapes = (
{
closed = 1;
nodes = (
(348,0,l),
(168,0,l),
(282.297,572,l),
(71.297,572,l),
(98.273,707,l),
(700.273,707,l),
(673.297,572,l),
(462.297,572,l)
);
}
);
width = 628;
},
{
layerId = "1EF0794B-345E-4E92-BB90-FDAF9EB84F98";
shapes = (
{
closed = 1;
nodes = (
(319,0,l),
(173,0,l),
(291.493,593,l),
(76.493,593,l),
(99.273,707,l),
(675.273,707,l),
(652.493,593,l),
(437.493,593,l)
);
}
);
width = 604;
},
{
layerId = "8BE48380-DCD1-4C25-918E-D8F452C40939";
shapes = (
{
closed = 1;
nodes = (
(275,0,l),
(181,0,l),
(306,625,l),
(85,625,l),
(101,707,l),
(637,707,l),
(621,625,l),
(400,625,l)
);
}
);
width = 568;
},
{
layerId = "7825C6D3-92E0-4D36-83E5-F278C36F463D";
shapes = (
{
closed = 1;
nodes = (
(231,0,l),
(193,0,l),
(327.279,672,l),
(96.279,672,l),
(103.273,707,l),
(603.273,707,l),
(596.279,672,l),
(365.279,672,l)
);
}
);
width = 536;
}
);
unicode = 84;
}
{
glyphname = U;
layers = (
{
anchors = (
{
name = t.uni0302;
position = "{298, 477}";
},
{
name = t.acutecomb;
position = "{316, 517}";
},
{
name = t.uni0307;
position = "{298, 457}";
},
{
name = t.uni030B;
position = "{328, 537}";
},
{
name = t.gravecomb;
position = "{276, 497}";
},
{
name = b.uni0329;
position = "{298, 0}";
}
);
layerId = "5A493680-E9A0-4F8D-8CB4-D0B9001A6F74";
shapes = (
{
closed = 1;
nodes = (
(648,273,l),
(613,94,o),
(477,-10,o),
(295,-10,cs),
(115,-10,o),
(19,94,o),
(54,273,c),
(141,707,l),
(320,707,l),
(235,281,ls),
(215,178,o),
(251,135,o),
(324,135,cs),
(396,135,o),
(450,180,o),
(470,281,cs),
(556,707,l),
(735,707,l)
);
}
);
width = 704;
},
{
anchors = (
{
name = t.uni0302;
position = "{298, 477}";
},
{
name = t.acutecomb;
position = "{316, 517}";
},
{
name = t.uni0307;
position = "{298, 457}";
},
{
name = t.uni030B;
position = "{328, 537}";
},
{
name = t.gravecomb;
position = "{276, 497}";
},
{
name = b.uni0329;
position = "{298, 0}";
}
);
layerId = "06FCF6AF-AD24-43D8-9E05-32EA8B277EF6";
shapes = (
{
closed = 1;
nodes = (
(634,272,ls),
(599,96,o),
(472,-10,o),
(294,-10,cs),
(120,-10,o),
(30,96,o),
(67,272,c),
(154,707,l),
(298,707,l),
(212,278,ls),
(190,167,o),
(226,111,o),
(319,111,cs),
(412,111,o),
(469,167,o),
(491,278,cs),
(576,707,l),
(721,707,l)
);
}
);
width = 703;
},
{
anchors = (
{
name = t.uni0302;
position = "{298, 477}";
},
{
name = t.acutecomb;
position = "{316, 517}";
},
{
name = t.uni0307;
position = "{298, 457}";
},
{
name = t.uni030B;
position = "{328, 537}";
},
{
name = t.gravecomb;
position = "{276, 497}";
},
{
name = b.uni0329;
position = "{298, 0}";
}
);
layerId = "55D47B1B-2A7A-4A7C-934D-E2DC43635214";
shapes = (
{
closed = 1;
nodes = (
(613,270,ls),
(578,98,o),
(464,-10,o),
(293,-10,cs),
(124,-10,o),
(50,98,o),
(85,270,cs),
(172,707,l),
(265,707,l),
(179,273,ls),
(154,149,o),
(186,75,o),
(310,75,cs),
(431,75,o),
(495,148,o),
(520,273,cs),
(607,707,l),
(700,707,l)
);
}
);
width = 701;
},
{
anchors = (
{
name = t.uni0302;
position = "{298, 477}";
},
{
name = t.acutecomb;
position = "{316, 517}";
},
{
name = t.uni0307;
position = "{298, 457}";
},
{
name = t.uni030B;
position = "{328, 537}";
},
{
name = t.gravecomb;
position = "{276, 497}";
},
{
name = b.uni0329;
position = "{298, 0}";
}
);
layerId = "FCF11552-E371-44B4-9CC7-EF7308C46468";
shapes = (
{
closed = 1;
nodes = (
(594,264,ls),
(560,97,o),
(450,-10,o),
(290,-10,cs),
(134,-10,o),
(63,97,o),
(97,264,cs),
(185,707,l),
(223,707,l),
(135,268,ls),
(104,115,o),
(155,26,o),
(298,26,cs),
(441,26,o),
(526,115,o),
(557,268,cs),
(645,707,l),
(682,707,l)
);
}
);
width = 696;
}
);
unicode = 85;
}
{
glyphname = V;
layers = (
{
layerId = "8D3EB4C1-6EEE-43FB-8DDE-90F41862F4B3";
shapes = (
{
closed = 1;
nodes = (
(384,0,l),
(206,0,l),
(94,707,l),
(283,707,l),
(341,213,l),
(593,707,l),
(779,707,l)
);
}
);
width = 702;
},
{
layerId = "1EF0794B-345E-4E92-BB90-FDAF9EB84F98";
shapes = (
{
closed = 1;
nodes = (
(353,0,l),
(209,0,l),
(96,707,l),
(250,707,l),
(318,174,l),
(598,707,l),
(748,707,l)
);
}
);
width = 673;
},
{
layerId = "8BE48380-DCD1-4C25-918E-D8F452C40939";
shapes = (
{
closed = 1;
nodes = (
(306,0,l),
(213,0,l),
(99,707,l),
(200,707,l),
(284,116,l),
(605,707,l),
(701,707,l)
);
}
);
width = 629;
},
{
layerId = "7825C6D3-92E0-4D36-83E5-F278C36F463D";
shapes = (
{
closed = 1;
nodes = (
(264,0,l),
(222,0,l),
(100,707,l),
(141,707,l),
(253,48,l),
(627,707,l),
(667,707,l)
);
}
);
width = 596;
}
);
unicode = 86;
}
{
glyphname = W;
layers = (
{
anchors = (
{
name = top;
position = "{539, 477}";
}
);
layerId = "3664570B-2F06-474D-8410-56569ABB35BC";
shapes = (
{
closed = 1;
nodes = (
(736,0,l),
(567,0,l),
(512.731,384,l),
(313,0,l),
(145,0,l),
(102.273,707,l),
(285.273,707,l),
(296.149,281,l),
(486.084,646,l),
(646.084,646,l),
(697.95,275,l),
(880.273,707,l),
(1061.273,707,l)
);
}
);
width = 993;
},
{
anchors = (
{
name = top;
position = "{527, 477}";
},
{
name = Anchor_7;
position = "{531, 517}";
},
{
name = Anchor_10;
position = "{526, 497}";
}
);
layerId = "452821E5-9DA0-4F55-A4C0-CD58A2FD2761";
shapes = (
{
closed = 1;
nodes = (
(716,0,l),
(576,0,l),
(514.721,439,l),
(288,0,l),
(148,0,l),
(105.273,707,l),
(254.273,707,l),
(270.96,220,l),
(491.084,646,l),
(625.084,646,l),
(683.161,216,l),
(894.273,707,l),
(1041.273,707,l)
);
}
);
width = 976;
},
{
anchors = (
{
name = top;
position = "{509, 477}";
},
{
name = Anchor_5;
position = "{513, 517}";
},
{
name = Anchor_8;
position = "{508, 497}";
}
);
layerId = "E64728B9-E266-466D-8B00-8DDE1D2CA3E4";
shapes = (
{
closed = 1;
nodes = (
(686,0,l),
(589,0,l),
(518,522,l),
(250,0,l),
(153,0,l),
(110,707,l),
(208,707,l),
(234,129,l),
(499,646,l),
(593,646,l),
(660,127,l),
(915,707,l),
(1011,707,l)
);
}
);
width = 951;
},
{
anchors = (
{
name = top;
position = "{489, 477}";
},
{
name = Anchor_6;
position = "{498, 517}";
},
{
name = Anchor_9;
position = "{488, 497}";
}
);
layerId = "FCB1C76D-2FA9-4C34-B9A5-09CF66038F2E";
shapes = (
{
closed = 1;
nodes = (
(630,0,l),
(586,0,l),
(507.297,572,l),
(207,0,l),
(163,0,l),
(113.273,707,l),
(154.273,707,l),
(196.191,51,l),
(498.287,627,l),
(540.287,627,l),
(617.191,51,l),
(922.273,707,l),
(962.273,707,l)
);
}
);
width = 905;
}
);
unicode = 87;
}
{
glyphname = X;
layers = (
{
layerId = "4183FC63-456F-477E-9B65-436D843A5C2D";
shapes = (
{
closed = 1;
nodes = (
(665,0,l),
(459,0,l),
(350.758,234,l),
(141,0,l),
(-44,0,l),
(272.736,354,l),
(102.273,707,l),
(308.273,707,l),
(408.113,481,l),
(606.273,707,l),
(793.273,707,l),
(486.935,360,l)
);
}
);
width = 733;
},
{
layerId = "E9E527C0-D75F-4862-A19F-02900F5EAE88";
shapes = (
{
closed = 1;
nodes = (
(624,0,l),
(456,0,l),
(336.954,255,l),
(110,0,l),
(-42,0,l),
(275.936,355,l),
(105.273,707,l),
(273.273,707,l),
(385.917,460,l),
(603.273,707,l),
(756.273,707,l),
(447.735,359,l)
);
}
);
width = 694;
},
{
layerId = "5887A550-6249-40A4-806C-FE2DD5168882";
shapes = (
{
closed = 1;
nodes = (
(562,0,l),
(452,0,l),
(316,286,l),
(64,0,l),
(-39,0,l),
(280,357,l),
(110,707,l),
(220,707,l),
(353,428,l),
(598,707,l),
(701,707,l),
(389,357,l)
);
}
);
width = 635;
},
{
layerId = "1321AD43-5B57-4768-A503-D178202AE048";
shapes = (
{
closed = 1;
nodes = (
(522,0,l),
(474,0,l),
(306.341,327,l),
(11,0,l),
(-37,0,l),
(289.735,359,l),
(112.273,707,l),
(160.273,707,l),
(322.53,388,l),
(613.273,707,l),
(661.273,707,l),
(338.336,357,l)
);
}
);
width = 597;
}
);
unicode = 88;
}
{
glyphname = Y;
layers = (
{
layerId = "8D3EB4C1-6EEE-43FB-8DDE-90F41862F4B3";
shapes = (
{
closed = 1;
nodes = (
(377,0,l),
(196,0,l),
(250.751,274,l),
(94.273,707,l),
(292.273,707,l),
(376.322,432,l),
(573.273,707,l),
(761.273,707,l),
(431.751,274,l)
);
}
);
width = 685;
},
{
layerId = "1EF0794B-345E-4E92-BB90-FDAF9EB84F98";
shapes = (
{
closed = 1;
nodes = (
(345,0,l),
(199,0,l),
(252.752,269,l),
(95.273,707,l),
(256.273,707,l),
(353.528,398,l),
(578.273,707,l),
(731.273,707,l),
(398.752,269,l)
);
}
);
width = 656;
},
{
layerId = "8BE48380-DCD1-4C25-918E-D8F452C40939";
shapes = (
{
closed = 1;
nodes = (
(297,0,l),
(203,0,l),
(255,261,l),
(96,707,l),
(202,707,l),
(319,347,l),
(585,707,l),
(686,707,l),
(349,261,l)
);
}
);
width = 612;
},
{
layerId = "7825C6D3-92E0-4D36-83E5-F278C36F463D";
shapes = (
{
closed = 1;
nodes = (
(249,0,l),
(211,0,l),
(262.553,258,l),
(97.273,707,l),
(141.273,707,l),
(290.546,298,l),
(602.273,707,l),
(645.273,707,l),
(300.553,258,l)
);
}
);
width = 572;
}
);
unicode = 89;
}
{
glyphname = Z;
layers = (
{
anchors = (
{
name = top;
position = "{347, 477}";
},
{
name = hook;
position = "{343, 457}";
}
);
layerId = "3664570B-2F06-474D-8410-56569ABB35BC";
shapes = (
{
closed = 1;
nodes = (
(536,0,l),
(-26,0,l),
(-19.816,86,l),
(418.297,572,l),
(87.297,572,l),
(114.273,707,l),
(671.273,707,l),
(665.088,621,l),
(226.976,135,l),
(562.976,135,l)
);
}
);
width = 619;
},
{
anchors = (
{
name = top;
position = "{333, 477}";
},
{
name = Anchor_7;
position = "{349, 517}";
},
{
name = hook;
position = "{329, 457}";
}
);
layerId = "452821E5-9DA0-4F55-A4C0-CD58A2FD2761";
shapes = (
{
closed = 1;
nodes = (
(505,0,l),
(-25,0,l),
(-19.014,75,l),
(437.493,593,l),
(94.493,593,l),
(117.273,707,l),
(642.273,707,l),
(636.286,632,l),
(179.779,114,l),
(527.779,114,l)
);
}
);
width = 592;
},
{
anchors = (
{
name = top;
position = "{312, 477}";
},
{
name = Anchor_5;
position = "{328, 517}";
},
{
name = hook;
position = "{308, 457}";
}
);
layerId = "E64728B9-E266-466D-8B00-8DDE1D2CA3E4";
shapes = (
{
closed = 1;
nodes = (
(458,0,l),
(-23,0,l),
(-17,58,l),
(467,625,l),
(106,625,l),
(122,707,l),
(598,707,l),
(593,649,l),
(108,82,l),
(474,82,l)
);
}
);
width = 551;
},
{
anchors = (
{
name = top;
position = "{302, 477}";
},
{
name = Anchor_6;
position = "{318, 517}";
},
{
name = hook;
position = "{298, 457}";
}
);
layerId = "FCB1C76D-2FA9-4C34-B9A5-09CF66038F2E";
shapes = (
{
closed = 1;
nodes = (
(433,0,l),
(-21,0,l),
(-19.005,30,l),
(524.279,672,l),
(120.279,672,l),
(127.273,707,l),
(575.273,707,l),
(573.278,677,l),
(29.994,35,l),
(439.994,35,l)
);
}
);
width = 530;
}
);
unicode = 90;
}
{
glyphname = bracketleft;
layers = (
{
layerId = "8D3EB4C1-6EEE-43FB-8DDE-90F41862F4B3";
shapes = (
{
closed = 1;
nodes = (
(316.64,-222,l),
(-39.36,-222,l),
(151.468,733,l),
(507.468,733,l),
(481.491,603,l),
(302.491,603,l),
(163.617,-92,l),
(342.617,-92,l)
);
}
);
width = 448;
},
{
layerId = "1EF0794B-345E-4E92-BB90-FDAF9EB84F98";
shapes = (
{
closed = 1;
nodes = (
(302.64,-222,l),
(-26.36,-222,l),
(164.468,733,l),
(493.468,733,l),
(471.688,624,l),
(285.688,624,l),
(138.42,-113,l),
(324.42,-113,l)
);
}
);
width = 429;
},
{
layerId = "8BE48380-DCD1-4C25-918E-D8F452C40939";
shapes = (
{
closed = 1;
nodes = (
(282,-222,l),
(-6,-222,l),
(184,733,l),
(472,733,l),
(457,656,l),
(260,656,l),
(100,-145,l),
(297,-145,l)
);
}
);
width = 400;
},
{
layerId = "7825C6D3-92E0-4D36-83E5-F278C36F463D";
shapes = (
{
closed = 1;
nodes = (
(246.64,-222,l),
(7.64,-222,l),
(198.468,733,l),
(437.468,733,l),
(431.074,701,l),
(228.074,701,l),
(50.034,-190,l),
(253.034,-190,l)
);
}
);
width = 367;
}
);
unicode = 91;
}
{
glyphname = backslash;
layers = (
{
layerId = "4183FC63-456F-477E-9B65-436D843A5C2D";
shapes = (
{
closed = 1;
nodes = (
(465.818,-101,l),
(286.818,-101,l),
(103.857,795,l),
(282.857,795,l)
);
}
);
width = 543;
},
{
layerId = "E9E527C0-D75F-4862-A19F-02900F5EAE88";
shapes = (
{
closed = 1;
nodes = (
(430.818,-101,l),
(286.818,-101,l),
(104.857,795,l),
(248.857,795,l)
);
}
);
width = 509;
},
{
layerId = "5887A550-6249-40A4-806C-FE2DD5168882";
shapes = (
{
closed = 1;
nodes = (
(379,-101,l),
(287,-101,l),
(106,795,l),
(198,795,l)
);
}
);
width = 458;
},
{
layerId = "1321AD43-5B57-4768-A503-D178202AE048";
shapes = (
{
closed = 1;
nodes = (
(325.818,-101,l),
(287.818,-101,l),
(105.857,795,l),
(143.857,795,l)
);
}
);
width = 405;
}
);
unicode = 92;
}
{
glyphname = bracketright;
layers = (
{
layerId = "3AC68A5C-915A-4DAB-90D3-514E1290D8F5";
name = "#instance";
width = 443;
},
{
layerId = "5A493680-E9A0-4F8D-8CB4-D0B9001A6F74";
shapes = (
{
closed = 1;
nodes = (
(284,-222,l),
(-70,-222,l),
(-44,-92,l),
(134,-92,l),
(272,603,l),
(95,603,l),
(121,733,l),
(475,733,l)
);
}
);
width = 443;
},
{
layerId = "06FCF6AF-AD24-43D8-9E05-32EA8B277EF6";
shapes = (
{
closed = 1;
nodes = (
(251,-222,l),
(-75,-222,l),
(-53,-113,l),
(131,-113,l),
(279,624,l),
(94,624,l),
(116,733,l),
(442,733,l)
);
}
);
width = 424;
},
{
layerId = "55D47B1B-2A7A-4A7C-934D-E2DC43635214";
shapes = (
{
closed = 1;
nodes = (
(203,-222,l),
(-83,-222,l),
(-67,-145,l),
(128,-145,l),
(288,656,l),
(93,656,l),
(108,733,l),
(393,733,l)
);
}
);
width = 396;
},
{
layerId = "FCF11552-E371-44B4-9CC7-EF7308C46468";
shapes = (
{
closed = 1;
nodes = (
(156,-222,l),
(-81,-222,l),
(-74,-190,l),
(127,-190,l),
(305,701,l),
(104,701,l),
(110,733,l),
(347,733,l)
);
}
);
width = 363;
}
);
unicode = 93;
}
{
glyphname = asciicircum;
layers = (
{
layerId = "3AC68A5C-915A-4DAB-90D3-514E1290D8F5";
name = "#instance";
width = 570;
},
{
layerId = "5A493680-E9A0-4F8D-8CB4-D0B9001A6F74";
shapes = (
{
closed = 1;
nodes = (
(552,302,l),
(391,274,l),
(331,517,l),
(175,274,l),
(26,302,l),
(307,707,l),
(433,707,l)
);
}
);
width = 570;
},
{
layerId = "06FCF6AF-AD24-43D8-9E05-32EA8B277EF6";
shapes = (
{
closed = 1;
nodes = (
(539,310,l),
(408,288,l),
(338,565,l),
(157,288,l),
(36,310,l),
(308,707,l),
(425,707,l)
);
}
);
width = 562;
},
{
layerId = "55D47B1B-2A7A-4A7C-934D-E2DC43635214";
shapes = (
{
closed = 1;
nodes = (
(519,322,l),
(434,309,l),
(347,637,l),
(129,309,l),
(50,322,l),
(310,707,l),
(413,707,l)
);
}
);
width = 552;
},
{
layerId = "FCF11552-E371-44B4-9CC7-EF7308C46468";
shapes = (
{
closed = 1;
nodes = (
(481,340,l),
(442,333,l),
(348,674,l),
(117,333,l),
(81,340,l),
(336,707,l),
(373,707,l)
);
}
);
width = 538;
}
);
unicode = 94;
}
{
glyphname = underscore;
layers = (
{
layerId = "3664570B-2F06-474D-8410-56569ABB35BC";
shapes = (
{
closed = 1;
nodes = (
(435,-190,l),
(-93,-190,l),
(-67,-59,l),
(461,-59,l)
);
}
);
width = 529;
},
{
layerId = "452821E5-9DA0-4F55-A4C0-CD58A2FD2761";
shapes = (
{
closed = 1;
nodes = (
(414,-176,l),
(-91,-176,l),
(-69,-66,l),
(436,-66,l)
);
}
);
width = 506;
},
{
layerId = "E64728B9-E266-466D-8B00-8DDE1D2CA3E4";
shapes = (
{
closed = 1;
nodes = (
(384,-155,l),
(-86,-155,l),
(-70,-77,l),
(400,-77,l)
);
}
);
width = 472;
},
{
layerId = "FCB1C76D-2FA9-4C34-B9A5-09CF66038F2E";
shapes = (
{
closed = 1;
nodes = (
(373,-110,l),
(-77,-110,l),
(-70,-77,l),
(380,-77,l)
);
}
);
width = 452;
}
);
unicode = 95;
}
{
glyphname = a;
layers = (
{
anchors = (
{
name = top;
position = "{310, 477}";
},
{
name = hook;
position = "{306, 457}";
},
{
name = bottom;
position = "{191, 0}";
}
);
layerId = "8D3EB4C1-6EEE-43FB-8DDE-90F41862F4B3";
shapes = (
{
closed = 1;
nodes = (
(289,0,l),
(288.199,6,o),
(285.996,20,o),
(288.391,52,c),
(235.197,16,o),
(181.001,-5,o),
(126.001,-5,cs),
(25.001,-5,o),
(-16.812,66,o),
(1.572,158,cs),
(21.354,257,o),
(101.342,322,o),
(242.342,322,cs),
(266.342,322,o),
(295.942,320,o),
(323.143,316,c),
(323.942,320,ls),
(333.933,370,o),
(298.527,403,o),
(235.527,403,cs),
(194.527,403,o),
(155.93,390,o),
(108.334,367,c),
(83.913,485,l),
(150.906,520,o),
(232.303,537,o),
(300.303,537,cs),
(449.303,537,o),
(525.517,458,o),
(494.545,303,cs),
(465.172,156,ls),
(458.178,121,o),
(445.39,57,o),
(447,0,c)
);
},
{
closed = 1;
nodes = (
(306.159,226,l),
(298.559,228,o),
(283.559,228,o),
(274.559,228,cs),
(208.559,228,o),
(174.763,204,o),
(166.77,164,cs),
(159.377,127,o),
(180.18,111,o),
(212.18,111,cs),
(239.18,111,o),
(266.378,122,o),
(287.376,132,c)
);
}
);
width = 539;
},
{
anchors = (
{
name = top;
position = "{297, 477}";
},
{
name = Anchor_7;
position = "{304, 517}";
},
{
name = hook;
position = "{293, 457}";
},
{
name = Anchor_10;
position = "{292, 497}";
},
{
name = bottom;
position = "{189, 0}";
}
);
layerId = "1EF0794B-345E-4E92-BB90-FDAF9EB84F98";
shapes = (
{
closed = 1;
nodes = (
(296,0,l),
(295.198,11,o),
(295.194,31,o),
(297.59,58,c),
(245.797,19,o),
(185.001,-5,o),
(128.001,-5,cs),
(32.001,-5,o),
(-12.411,63,o),
(5.972,155,cs),
(26.154,256,o),
(110.543,318,o),
(243.543,318,cs),
(272.543,318,o),
(305.943,315,o),
(336.944,310,c),
(338.742,319,ls),
(351.531,383,o),
(317.324,422,o),
(248.324,422,cs),
(205.324,422,o),
(160.327,407,o),
(112.731,384,c),
(92.313,482,l),
(151.907,515,o),
(227.504,533,o),
(295.504,533,cs),
(436.504,533,o),
(505.318,457,o),
(476.344,312,cs),
(442.574,143,ls),
(434.781,104,o),
(423.992,45,o),
(426,0,c)
);
},
{
closed = 1;
nodes = (
(321.959,230,l),
(306.558,233,o),
(283.758,234,o),
(268.758,234,cs),
(191.758,234,o),
(150.363,207,o),
(140.771,159,cs),
(132.179,116,o),
(154.983,95,o),
(194.983,95,cs),
(229.983,95,o),
(269.18,111,o),
(302.176,131,c)
);
}
);
width = 528;
},
{
anchors = (
{
name = top;
position = "{278, 477}";
},
{
name = Anchor_5;
position = "{294, 517}";
},
{
name = hook;
position = "{274, 457}";
},
{
name = Anchor_8;
position = "{272, 497}";
},
{
name = bottom;
position = "{186, 0}";
}
);
layerId = "8BE48380-DCD1-4C25-918E-D8F452C40939";
shapes = (
{
closed = 1;
nodes = (
(306,0,l),
(306,19,o),
(309,48,o),
(311,67,c),
(262,23,o),
(191,-5,o),
(131,-5,cs),
(43,-5,o),
(-5,59,o),
(13,150,cs),
(34,254,o),
(124,312,o),
(245,312,cs),
(281,312,o),
(321,308,o),
(358,301,c),
(361,317,ls),
(378,402,o),
(345,451,o),
(268,451,cs),
(221,451,o),
(168,433,o),
(120,409,c),
(105,478,l),
(153,507,o),
(220,527,o),
(288,527,cs),
(417,527,o),
(475,456,o),
(449,325,cs),
(409,123,ls),
(400,79,o),
(392,27,o),
(394,0,c)
);
},
{
closed = 1;
nodes = (
(345,236,l),
(318,241,o),
(285,243,o),
(261,243,cs),
(167,243,o),
(113,212,o),
(101,151,cs),
(91,100,o),
(117,71,o),
(169,71,cs),
(216,71,o),
(274,94,o),
(324,129,c)
);
}
);
width = 512;
},
{
anchors = (
{
name = top;
position = "{277, 477}";
},
{
name = Anchor_6;
position = "{289, 517}";
},
{
name = hook;
position = "{273, 457}";
},
{
name = Anchor_9;
position = "{267, 497}";
},
{
name = bottom;
position = "{181, 0}";
}
);
layerId = "7825C6D3-92E0-4D36-83E5-F278C36F463D";
shapes = (
{
closed = 1;
nodes = (
(340,0,l),
(337.196,21,o),
(339.792,44,o),
(343.388,67,c),
(299.593,38,o),
(214.401,-8,o),
(137.401,-8,cs),
(54.401,-8,o),
(-3.208,44,o),
(15.375,137,cs),
(35.557,238,o),
(127.147,296,o),
(263.147,296,cs),
(304.147,296,o),
(345.948,290,o),
(385.549,283,c),
(394.341,327,ls),
(412.924,420,o),
(381.512,488,o),
(272.512,488,cs),
(220.512,488,o),
(168.515,473,o),
(116.12,446,c),
(109.314,477,l),
(161.709,504,o),
(221.306,522,o),
(284.306,522,cs),
(420.306,522,o),
(450.723,429,o),
(431.74,334,cs),
(389.378,122,ls),
(381.585,83,o),
(372.793,39,o),
(376,0,c)
);
},
{
closed = 1;
nodes = (
(379.554,253,l),
(340.953,260,o),
(294.752,264,o),
(259.752,264,cs),
(146.752,264,o),
(68.161,216,o),
(52.175,136,cs),
(40.786,79,o),
(66.195,26,o),
(145.195,26,cs),
(213.195,26,o),
(297.188,66,o),
(349.182,101,c)
);
}
);
width = 502;
}
);
unicode = 97;
}
{
glyphname = b;
layers = (
{
layerId = "4183FC63-456F-477E-9B65-436D843A5C2D";
shapes = (
{
closed = 1;
nodes = (
(139,0,l),
(-2,0,l),
(145,738,l),
(323,753,l),
(269,480,l),
(310,512,o),
(365,537,o),
(425,537,cs),
(555,537,o),
(610,412,o),
(582,269,cs),
(551,115,o),
(431,-10,o),
(295,-10,cs),
(231,-10,o),
(195,15,o),
(160,53,c)
);
},
{
closed = 1;
nodes = (
(200,135,l),
(228,126,o),
(256,124,o),
(273,124,cs),
(341,124,o),
(386,175,o),
(404,265,cs),
(425,371,o),
(385,403,o),
(334,403,cs),
(310,403,o),
(283,397,o),
(250,383,c)
);
}
);
width = 615;
},
{
layerId = "E9E527C0-D75F-4862-A19F-02900F5EAE88";
shapes = (
{
closed = 1;
nodes = (
(124,0,l),
(9,0,l),
(157,741,l),
(300,753,l),
(245,473,l),
(293,508,o),
(350,533,o),
(410,533,cs),
(541,533,o),
(592,407,o),
(565,268,cs),
(534,116,o),
(418,-10,o),
(277,-10,cs),
(218,-10,o),
(177,11,o),
(143,46,c)
);
},
{
closed = 1;
nodes = (
(175,124,l),
(204,109,o),
(237,101,o),
(265,101,cs),
(349,101,o),
(403,169,o),
(422,266,cs),
(443,370,o),
(408,422,o),
(340,422,cs),
(305,422,o),
(265,408,o),
(228,389,c)
);
}
);
width = 604;
},
{
layerId = "5887A550-6249-40A4-806C-FE2DD5168882";
shapes = (
{
closed = 1;
nodes = (
(101,0,l),
(25,0,l),
(174,745,l),
(264,753,l),
(206,462,l),
(265,502,o),
(324,527,o),
(384,527,cs),
(517,527,o),
(565,399,o),
(538,266,cs),
(508,117,o),
(398,-10,o),
(249,-10,cs),
(198,-10,o),
(149,5,o),
(118,36,c)
);
},
{
closed = 1;
nodes = (
(135,107,l),
(167,83,o),
(208,67,o),
(253,67,cs),
(361,67,o),
(427,160,o),
(449,268,cs),
(469,368,o),
(443,450,o),
(349,450,cs),
(298,450,o),
(236,425,o),
(194,398,c)
);
}
);
width = 586;
},
{
layerId = "1321AD43-5B57-4768-A503-D178202AE048";
shapes = (
{
closed = 1;
nodes = (
(66,0,l),
(37,0,l),
(187,749,l),
(223,753,l),
(162,444,l),
(221,487,o),
(291,522,o),
(363,522,cs),
(490,522,o),
(540,405,o),
(512,264,cs),
(482,116,o),
(377,-10,o),
(237,-10,cs),
(169,-10,o),
(114,20,o),
(81,51,c)
);
},
{
closed = 1;
nodes = (
(91,90,l),
(128,54,o),
(182,24,o),
(243,24,cs),
(362,24,o),
(450,140,o),
(475,264,cs),
(499,383,o),
(460,488,o),
(353,488,cs),
(289,488,o),
(215,450,o),
(154,405,c)
);
}
);
width = 567;
}
);
unicode = 98;
}
{
glyphname = c;
layers = (
{
anchors = (
{
name = top;
position = "{326, 477}";
},
{
name = hook;
position = "{310, 457}";
}
);
layerId = "4183FC63-456F-477E-9B65-436D843A5C2D";
shapes = (
{
closed = 1;
nodes = (
(443.792,44,l),
(382.599,8,o),
(317.002,-10,o),
(248.002,-10,cs),
(99.002,-10,o),
(-9.815,81,o),
(26.153,261,cs),
(61.721,439,o),
(202.303,537,o),
(354.303,537,cs),
(428.303,537,o),
(479.707,514,o),
(522.913,485,c),
(452.134,366,l),
(414.529,393,o),
(382.527,403,o),
(346.527,403,cs),
(272.527,403,o),
(220.737,349,o),
(203.353,262,cs),
(185.769,174,o),
(216.778,124,o),
(291.778,124,cs),
(328.778,124,o),
(371.175,136,o),
(418.171,161,c)
);
}
);
width = 507;
},
{
anchors = (
{
name = top;
position = "{324, 477}";
},
{
name = Anchor_7;
position = "{326, 517}";
},
{
name = hook;
position = "{308, 457}";
}
);
layerId = "E9E527C0-D75F-4862-A19F-02900F5EAE88";
shapes = (
{
closed = 1;
nodes = (
(434.392,42,l),
(375.399,7,o),
(308.002,-10,o),
(241.002,-10,cs),
(89.002,-10,o),
(-2.416,88,o),
(31.953,260,cs),
(65.723,429,o),
(192.504,533,o),
(348.504,533,cs),
(420.504,533,o),
(473.108,511,o),
(514.313,482,c),
(454.531,383,l),
(412.926,410,o),
(377.324,422,o),
(338.324,422,cs),
(254.324,422,o),
(194.335,362,o),
(174.153,261,cs),
(154.77,164,o),
(187.182,101,o),
(276.182,101,cs),
(319.182,101,o),
(364.979,115,o),
(412.975,140,c)
);
}
);
width = 502;
},
{
anchors = (
{
name = top;
position = "{321, 477}";
},
{
name = Anchor_5;
position = "{308, 517}";
},
{
name = hook;
position = "{305, 457}";
}
);
layerId = "5887A550-6249-40A4-806C-FE2DD5168882";
shapes = (
{
closed = 1;
nodes = (
(421,39,l),
(365,6,o),
(295,-10,o),
(231,-10,cs),
(74,-10,o),
(9,99,o),
(41,259,cs),
(72,414,o),
(177,527,o),
(340,527,cs),
(409,527,o),
(463,506,o),
(502,478,c),
(458,408,l),
(410,436,o),
(369,450,o),
(326,450,cs),
(227,450,o),
(155,382,o),
(131,259,cs),
(109,149,o),
(143,67,o),
(253,67,cs),
(304,67,o),
(356,84,o),
(405,109,c)
);
}
);
width = 494;
},
{
anchors = (
{
name = top;
position = "{310, 477}";
},
{
name = Anchor_6;
position = "{313, 517}";
},
{
name = hook;
position = "{306, 457}";
}
);
layerId = "1321AD43-5B57-4768-A503-D178202AE048";
shapes = (
{
closed = 1;
nodes = (
(394.194,36,l),
(343.798,9,o),
(288.002,-10,o),
(224.002,-10,cs),
(75.002,-10,o),
(14.982,100,o),
(46.154,256,cs),
(77.326,412,o),
(181.306,522,o),
(329.306,522,cs),
(385.306,522,o),
(435.309,507,o),
(477.313,482,c),
(458.119,451,l),
(419.715,474,o),
(374.512,488,o),
(323.512,488,cs),
(195.512,488,o),
(110.13,391,o),
(83.154,256,cs),
(55.978,120,o),
(103.796,24,o),
(230.796,24,cs),
(279.796,24,o),
(331.593,38,o),
(387.188,66,c)
);
}
);
width = 471;
}
);
unicode = 99;
}
{
glyphname = d;
layers = (
{
anchors = (
{
name = bottom;
position = "{254, 0}";
},
{
name = caronslovak;
position = "{744, 517}";
}
);
layerId = "3664570B-2F06-474D-8410-56569ABB35BC";
shapes = (
{
closed = 1;
nodes = (
(353,0,l),
(350.598,13,o),
(351.394,32,o),
(355.189,61,c),
(304.396,22,o),
(244.002,-10,o),
(177.002,-10,cs),
(48.002,-10,o),
(-2.421,118,o),
(25.154,256,cs),
(55.726,409,o),
(173.303,537,o),
(306.303,537,cs),
(362.303,537,o),
(394.307,517,o),
(421.511,493,c),
(470.467,738,l),
(648.464,753,l),
(529.172,156,ls),
(521.379,117,o),
(508.791,49,o),
(512,0,c)
);
},
{
closed = 1;
nodes = (
(400.93,390,l),
(376.528,398,o),
(350.527,403,o),
(330.527,403,cs),
(267.527,403,o),
(221.137,351,o),
(203.353,262,cs),
(182.172,156,o),
(222.778,124,o),
(268.778,124,cs),
(295.778,124,o),
(326.175,136,o),
(351.175,141,c)
);
}
);
width = 607;
},
{
anchors = (
{
name = bottom;
position = "{247, 0}";
},
{
name = caronslovak;
position = "{719, 517}";
}
);
layerId = "452821E5-9DA0-4F55-A4C0-CD58A2FD2761";
shapes = (
{
closed = 1;
nodes = (
(358,0,l),
(356.598,13,o),
(357.194,31,o),
(359.99,55,c),
(309.797,19,o),
(248.002,-10,o),
(184.002,-10,cs),
(53.002,-10,o),
(3.179,116,o),
(30.954,255,cs),
(61.327,407,o),
(175.504,533,o),
(315.504,533,cs),
(366.504,533,o),
(403.307,517,o),
(433.912,490,c),
(484.066,741,l),
(627.464,753,l),
(505.574,143,ls),
(497.781,104,o),
(486.992,45,o),
(489,0,c)
);
},
{
closed = 1;
nodes = (
(415.728,399,l),
(387.725,414,o),
(355.324,422,o),
(327.324,422,cs),
(246.324,422,o),
(192.736,354,o),
(173.354,257,cs),
(152.572,153,o),
(186.182,101,o),
(254.182,101,cs),
(286.182,101,o),
(326.58,113,o),
(361.577,128,c)
);
}
);
width = 597;
},
{
anchors = (
{
name = bottom;
position = "{237, 0}";
},
{
name = caronslovak;
position = "{682, 517}";
}
);
layerId = "E64728B9-E266-466D-8B00-8DDE1D2CA3E4";
shapes = (
{
closed = 1;
nodes = (
(366,0,l),
(366,13,o),
(366,29,o),
(367,46,c),
(318,14,o),
(254,-10,o),
(194,-10,cs),
(61,-10,o),
(12,113,o),
(40,253,cs),
(70,404,o),
(178,527,o),
(329,527,cs),
(372,527,o),
(416,517,o),
(453,486,c),
(505,745,l),
(595,753,l),
(470,123,ls),
(462,84,o),
(454,39,o),
(455,0,c)
);
},
{
closed = 1;
nodes = (
(439,413,l),
(405,438,o),
(362,450,o),
(323,450,cs),
(214,450,o),
(151,359,o),
(129,250,cs),
(109,149,o),
(131,67,o),
(232,67,cs),
(271,67,o),
(327,79,o),
(378,108,c)
);
}
);
width = 582;
},
{
anchors = (
{
name = bottom;
position = "{223, 0}";
},
{
name = caronslovak;
position = "{627, 517}";
}
);
layerId = "FCB1C76D-2FA9-4C34-B9A5-09CF66038F2E";
shapes = (
{
closed = 1;
nodes = (
(389,0,l),
(386.196,21,o),
(388.992,45,o),
(392.588,68,c),
(332.995,25,o),
(263.002,-10,o),
(192.002,-10,cs),
(64.002,-10,o),
(16.581,108,o),
(44.555,248,cs),
(74.129,396,o),
(180.306,522,o),
(319.306,522,cs),
(387.306,522,o),
(438.912,490,o),
(470.317,462,c),
(527.665,749,l),
(564.464,753,l),
(438.378,122,ls),
(430.585,83,o),
(421.793,39,o),
(425,0,c)
);
},
{
closed = 1;
nodes = (
(462.124,421,l),
(428.118,456,o),
(377.512,488,o),
(314.512,488,cs),
(194.512,488,o),
(106.333,372,o),
(81.555,248,cs),
(57.777,129,o),
(95.796,24,o),
(202.796,24,cs),
(266.796,24,o),
(338.989,60,o),
(399.381,107,c)
);
}
);
width = 563;
}
);
unicode = 100;
}
{
glyphname = e;
layers = (
{
anchors = (
{
name = t.uni0302;
position = "{206, 477}";
},
{
name = t.acutecomb;
position = "{233, 517}";
},
{
name = t.uni0307;
position = "{214, 457}";
},
{
name = t.gravecomb;
position = "{194, 497}";
},
{
name = b.uni0329;
position = "{206, 0}";
}
);
layerId = "5A493680-E9A0-4F8D-8CB4-D0B9001A6F74";
shapes = (
{
closed = 1;
nodes = (
(456,49,l),
(367,-2,o),
(293,-10,o),
(238,-10,cs),
(100,-10,o),
(-11,76,o),
(27,269,cs),
(59,434,o),
(171,537,o),
(322,537,cs),
(473,537,o),
(542,431,o),
(515,302,c),
(510,274,o),
(498,234,o),
(487,209,c),
(187,209,l),
(194,145,o),
(233,124,o),
(288,124,cs),
(329,124,o),
(373,136,o),
(428,164,c)
);
},
{
closed = 1;
nodes = (
(354,315,l),
(363,375,o),
(347,404,o),
(298,404,cs),
(247,404,o),
(219,371,o),
(202,315,c)
);
}
);
width = 540;
},
{
anchors = (
{
name = t.uni0302;
position = "{206, 477}";
},
{
name = t.acutecomb;
position = "{233, 517}";
},
{
name = t.uni0307;
position = "{214, 457}";
},
{
name = t.gravecomb;
position = "{194, 497}";
},
{
name = b.uni0329;
position = "{206, 0}";
}
);
layerId = "06FCF6AF-AD24-43D8-9E05-32EA8B277EF6";
shapes = (
{
closed = 1;
nodes = (
(440,45,l),
(364,2,o),
(291,-10,o),
(235,-10,cs),
(87,-10,o),
(-2,87,o),
(33,267,c),
(65,422,o),
(165,533,o),
(318,533,cs),
(464,533,o),
(526,430,o),
(500,298,cs),
(495,271,o),
(486,239,o),
(475,216,c),
(161,216,l),
(161,139,o),
(201,101,o),
(272,101,cs),
(316,101,o),
(364,115,o),
(417,142,c)
);
},
{
closed = 1;
nodes = (
(369,308,l),
(381,380,o),
(361,423,o),
(298,423,cs),
(233,423,o),
(196,376,o),
(176,308,c)
);
}
);
width = 531;
},
{
anchors = (
{
name = t.uni0302;
position = "{206, 477}";
},
{
name = t.acutecomb;
position = "{233, 517}";
},
{
name = t.uni0307;
position = "{214, 457}";
},
{
name = t.gravecomb;
position = "{194, 497}";
},
{
name = b.uni0329;
position = "{206, 0}";
}
);
layerId = "55D47B1B-2A7A-4A7C-934D-E2DC43635214";
shapes = (
{
closed = 1;
nodes = (
(416,39,l),
(360,6,o),
(290,-10,o),
(230,-10,cs),
(70,-10,o),
(9,103,o),
(41,264,c),
(71,406,o),
(158,527,o),
(312,527,cs),
(448,527,o),
(504,429,o),
(477,292,cs),
(472,268,o),
(466,246,o),
(458,227,c),
(123,227,l),
(114,127,o),
(150,67,o),
(249,67,cs),
(300,67,o),
(352,84,o),
(400,109,c)
);
},
{
closed = 1;
nodes = (
(391,298,l),
(406,387,o),
(381,452,o),
(298,452,cs),
(211,452,o),
(163,383,o),
(136,298,c)
);
}
);
width = 518;
},
{
anchors = (
{
name = t.uni0302;
position = "{206, 477}";
},
{
name = t.acutecomb;
position = "{233, 517}";
},
{
name = t.uni0307;
position = "{214, 457}";
},
{
name = t.gravecomb;
position = "{194, 497}";
},
{
name = b.uni0329;
position = "{206, 0}";
}
);
layerId = "FCF11552-E371-44B4-9CC7-EF7308C46468";
shapes = (
{
closed = 1;
nodes = (
(401,36,l),
(346,8,o),
(297,-10,o),
(233,-10,cs),
(85,-10,o),
(14,91,o),
(46,258,c),
(75,402,o),
(170,522,o),
(310,522,cs),
(436,522,o),
(488,426,o),
(462,294,cs),
(459,279,o),
(455,262,o),
(450,249,c),
(81,249,l),
(57,108,o),
(117,24,o),
(241,24,cs),
(292,24,o),
(338,38,o),
(394,66,c)
);
},
{
closed = 1;
nodes = (
(425,281,l),
(450,410,o),
(407,488,o),
(303,488,cs),
(188,488,o),
(116,393,o),
(87,281,c)
);
}
);
width = 509;
}
);
unicode = 101;
}
{
glyphname = f;
layers = (
{
layerId = "3AC68A5C-915A-4DAB-90D3-514E1290D8F5";
name = "#instance";
shapes = (
{
closed = 1;
nodes = (
(213,0,l),
(39,0,l),
(119,399,l),
(35,399,l),
(60,527,l),
(144,527,l),
(145,532,ls),
(177,691,o),
(275,757,o),
(420,757,cs),
(455,757,o),
(486,754,o),
(537,738,c),
(487,612,l),
(464,620,o),
(446,623,o),
(423,623,cs),
(356,623,o),
(333,600,o),
(320,532,cs),
(319,527,l),
(441,527,l),
(416,399,l),
(293,399,l)
);
}
);
width = 414;
},
{
layerId = "5A493680-E9A0-4F8D-8CB4-D0B9001A6F74";
shapes = (
{
closed = 1;
nodes = (
(213,0,l),
(39,0,l),
(119,399,l),
(35,399,l),
(60,527,l),
(144,527,l),
(145,532,ls),
(177,691,o),
(275,757,o),
(420,757,cs),
(455,757,o),
(486,754,o),
(537,738,c),
(487,612,l),
(464,620,o),
(446,623,o),
(423,623,cs),
(356,623,o),
(333,600,o),
(320,532,cs),
(319,527,l),
(441,527,l),
(416,399,l),
(293,399,l)
);
}
);
width = 414;
},
{
layerId = "06FCF6AF-AD24-43D8-9E05-32EA8B277EF6";
shapes = (
{
closed = 1;
nodes = (
(191,0,l),
(51,0,l),
(134,417,l),
(39,417,l),
(60,523,l),
(155,523,l),
(159,541,l),
(188,690,o),
(273,757,o),
(413,757,cs),
(448,757,o),
(476,753,o),
(520,740,c),
(478,635,l),
(453,643,o),
(434,646,o),
(411,646,cs),
(335,646,o),
(313,611,o),
(297,533,cs),
(295,523,l),
(424,523,l),
(403,417,l),
(274,417,l)
);
}
);
width = 397;
},
{
layerId = "55D47B1B-2A7A-4A7C-934D-E2DC43635214";
shapes = (
{
closed = 1;
nodes = (
(157,0,l),
(69,0,l),
(157,444,l),
(46,444,l),
(60,517,l),
(172,517,l),
(179,554,ls),
(206,686,o),
(273,757,o),
(402,757,cs),
(437,757,o),
(461,752,o),
(493,743,c),
(464,669,l),
(435,677,o),
(415,680,o),
(392,680,cs),
(301,680,o),
(283,628,o),
(264,535,cs),
(260,517,l),
(397,517,l),
(382,444,l),
(246,444,l)
);
}
);
width = 372;
},
{
layerId = "FCF11552-E371-44B4-9CC7-EF7308C46468";
shapes = (
{
closed = 1;
nodes = (
(99,0,l),
(64,0,l),
(160,479,l),
(54,479,l),
(60,512,l),
(166,512,l),
(176,564,ls),
(201,693,o),
(274,757,o),
(377,757,cs),
(398,757,o),
(417,754,o),
(436,749,c),
(424,716,l),
(409,721,o),
(392,723,o),
(373,723,cs),
(285,723,o),
(234,674,o),
(211,558,cs),
(202,512,l),
(347,512,l),
(341,479,l),
(195,479,l)
);
}
);
width = 316;
}
);
unicode = 102;
}
{
glyphname = g;
layers = (
{
anchors = (
{
name = t.uni0302;
position = "{227, 477}";
},
{
name = t.acutecomb;
position = "{217, 517}";
},
{
name = t.uni0307;
position = "{227, 457}";
}
);
layerId = "5A493680-E9A0-4F8D-8CB4-D0B9001A6F74";
shapes = (
{
closed = 1;
nodes = (
(496,20,ls),
(459,-161,o),
(323,-242,o),
(168,-242,cs),
(96,-242,o),
(31,-224,o),
(-17,-188,c),
(53,-71,l),
(92,-98,o),
(133,-108,o),
(177,-108,cs),
(248,-108,o),
(304,-73,o),
(323,18,cs),
(328,44,l),
(283,13,o),
(228,-10,o),
(175,-10,cs),
(46,-10,o),
(-2,117,o),
(25,257,cs),
(54,409,o),
(173,537,o),
(305,537,cs),
(370,537,o),
(411,514,o),
(439,475,c),
(459,518,l),
(599,533,l)
);
},
{
closed = 1;
nodes = (
(397,390,l),
(372,398,o),
(347,403,o),
(327,403,cs),
(263,403,o),
(219,352,o),
(202,264,cs),
(181,155,o),
(217,124,o),
(266,124,cs),
(293,124,o),
(323,136,o),
(347,141,c)
);
}
);
width = 598;
},
{
anchors = (
{
name = t.uni0302;
position = "{227, 477}";
},
{
name = t.acutecomb;
position = "{217, 517}";
},
{
name = t.uni0307;
position = "{227, 457}";
}
);
layerId = "06FCF6AF-AD24-43D8-9E05-32EA8B277EF6";
shapes = (
{
closed = 1;
nodes = (
(476,21,ls),
(441,-154,o),
(324,-242,o),
(165,-242,cs),
(94,-242,o),
(34,-225,o),
(-15,-190,c),
(44,-92,l),
(85,-118,o),
(129,-131,o),
(174,-131,cs),
(262,-131,o),
(316,-81,o),
(336,19,cs),
(341,46,l),
(294,15,o),
(238,-8,o),
(182,-8,cs),
(53,-8,o),
(2,118,o),
(31,256,c),
(61,406,o),
(174,533,o),
(313,533,cs),
(368,533,o),
(411,515,o),
(444,479,c),
(460,517,l),
(577,529,l)
);
},
{
closed = 1;
nodes = (
(412,399,l),
(384,414,o),
(352,422,o),
(324,422,cs),
(244,422,o),
(191,354,o),
(172,258,cs),
(151,154,o),
(184,103,o),
(252,103,cs),
(284,103,o),
(323,115,o),
(358,130,c)
);
}
);
width = 589;
},
{
anchors = (
{
name = t.uni0302;
position = "{227, 477}";
},
{
name = t.acutecomb;
position = "{217, 517}";
},
{
name = t.uni0307;
position = "{227, 457}";
}
);
layerId = "55D47B1B-2A7A-4A7C-934D-E2DC43635214";
shapes = (
{
closed = 1;
nodes = (
(445,23,ls),
(413,-142,o),
(325,-242,o),
(161,-242,cs),
(93,-242,o),
(41,-226,o),
(-11,-193,c),
(32,-123,l),
(79,-150,o),
(122,-166,o),
(170,-166,cs),
(283,-166,o),
(332,-94,o),
(356,21,cs),
(362,49,l),
(314,18,o),
(252,-5,o),
(192,-5,cs),
(60,-5,o),
(12,120,o),
(39,254,cs),
(68,403,o),
(178,527,o),
(326,527,cs),
(370,527,o),
(414,516,o),
(451,485,c),
(462,515,l),
(544,523,l)
);
},
{
closed = 1;
nodes = (
(434,413,l),
(401,438,o),
(359,450,o),
(320,450,cs),
(211,450,o),
(151,358,o),
(127,249,c),
(108,156,o),
(134,72,o),
(231,72,cs),
(270,72,o),
(323,84,o),
(374,113,c)
);
}
);
width = 574;
},
{
anchors = (
{
name = t.uni0302;
position = "{227, 477}";
},
{
name = t.acutecomb;
position = "{217, 517}";
},
{
name = t.uni0307;
position = "{227, 457}";
}
);
layerId = "FCF11552-E371-44B4-9CC7-EF7308C46468";
shapes = (
{
closed = 1;
nodes = (
(413,19,ls),
(378,-153,o),
(301,-242,o),
(152,-242,cs),
(91,-242,o),
(37,-227,o),
(-7,-194,c),
(12,-165,l),
(57,-196,o),
(102,-209,o),
(158,-209,cs),
(288,-209,o),
(348,-129,o),
(377,17,cs),
(387,69,l),
(328,26,o),
(260,-7,o),
(191,-7,cs),
(65,-7,o),
(17,110,o),
(44,250,cs),
(73,398,o),
(180,522,o),
(318,522,cs),
(386,522,o),
(434,490,o),
(467,461,c),
(480,510,l),
(512,513,l)
);
},
{
closed = 1;
nodes = (
(458,422,l),
(425,457,o),
(375,488,o),
(312,488,cs),
(193,488,o),
(105,373,o),
(81,250,cs),
(57,131,o),
(96,27,o),
(202,27,cs),
(266,27,o),
(336,64,o),
(395,109,c)
);
}
);
width = 554;
}
);
unicode = 103;
}
{
glyphname = h;
layers = (
{
anchors = (
{
name = top;
position = "{179, 477}";
}
);
layerId = "4183FC63-456F-477E-9B65-436D843A5C2D";
shapes = (
{
closed = 1;
nodes = (
(327,0,l),
(323.791,49,o),
(336.379,117,o),
(344.172,156,cs),
(377.342,322,ls),
(386.134,366,o),
(381.527,403,o),
(334.527,403,cs),
(307.527,403,o),
(279.929,395,o),
(246.932,375,c),
(172,0,l),
(-3,0,l),
(144.467,738,l),
(322.464,753,l),
(267.114,476,l),
(313.909,505,o),
(369.303,537,o),
(436.303,537,cs),
(545.303,537,o),
(579.119,451,o),
(555.74,334,cs),
(520.172,156,ls),
(512.379,117,o),
(499.791,49,o),
(502,0,c)
);
}
);
width = 592;
},
{
anchors = (
{
name = top;
position = "{173, 477}";
}
);
layerId = "E9E527C0-D75F-4862-A19F-02900F5EAE88";
shapes = (
{
closed = 1;
nodes = (
(344,0,l),
(341.992,45,o),
(352.781,104,o),
(360.574,143,cs),
(396.142,321,ls),
(407.332,377,o),
(400.324,422,o),
(343.324,422,cs),
(308.324,422,o),
(267.327,407,o),
(224.931,380,c),
(149,0,l),
(8,0,l),
(156.066,741,l),
(299.464,753,l),
(242.316,467,l),
(296.709,504,o),
(355.504,533,o),
(419.504,533,cs),
(530.504,533,o),
(561.92,445,o),
(538.941,330,cs),
(501.574,143,ls),
(493.781,104,o),
(482.992,45,o),
(485,0,c)
);
}
);
width = 587;
},
{
anchors = (
{
name = top;
position = "{164, 477}";
}
);
layerId = "5887A550-6249-40A4-806C-FE2DD5168882";
shapes = (
{
closed = 1;
nodes = (
(370,0,l),
(369,39,o),
(377,84,o),
(385,123,cs),
(424,320,ls),
(439,393,o),
(429,450,o),
(356,450,cs),
(309,450,o),
(248,425,o),
(192,388,c),
(114,0,l),
(25,0,l),
(174,745,l),
(264,753,l),
(205,454,l),
(272,503,o),
(335,527,o),
(394,527,cs),
(508,527,o),
(536,436,o),
(514,324,cs),
(474,123,ls),
(466,84,o),
(458,39,o),
(459,0,c)
);
}
);
width = 579;
},
{
anchors = (
{
name = top;
position = "{150, 477}";
}
);
layerId = "1321AD43-5B57-4768-A503-D178202AE048";
shapes = (
{
closed = 1;
nodes = (
(400,0,l),
(396.793,39,o),
(405.585,83,o),
(413.378,122,cs),
(452.942,320,ls),
(471.126,411,o),
(454.512,488,o),
(361.512,488,cs),
(295.512,488,o),
(214.519,448,o),
(153.927,405,c),
(73,0,l),
(37,0,l),
(186.665,749,l),
(223.464,753,l),
(161.72,444,l),
(220.713,484,o),
(298.306,522,o),
(371.306,522,cs),
(481.306,522,o),
(512.321,437,o),
(489.941,325,cs),
(449.378,122,ls),
(441.585,83,o),
(432.793,39,o),
(436,0,c)
);
}
);
width = 565;
}
);
unicode = 104;
}
{
glyphname = i;
layers = (
{
layerId = "8D3EB4C1-6EEE-43FB-8DDE-90F41862F4B3";
shapes = (
{
closed = 1;
nodes = (
(279.504,533,l),
(101.507,518,l),
(-2,0,l),
(173,0,l)
);
},
{
closed = 1;
nodes = (
(335.464,753,o),
(296.46,778,o),
(240.46,778,cs),
(184.46,778,o),
(135.065,751,o),
(123.075,691,cs),
(110.886,630,o),
(147.291,602,o),
(205.291,602,cs),
(263.291,602,o),
(310.687,629,o),
(323.075,691,cs)
);
}
);
width = 282;
},
{
layerId = "1EF0794B-345E-4E92-BB90-FDAF9EB84F98";
shapes = (
{
closed = 1;
nodes = (
(256,529,l),
(112,517,l),
(9,0,l),
(150,0,l)
);
},
{
closed = 1;
nodes = (
(311,744,o),
(279,767,o),
(232,767,cs),
(185,767,o),
(144,743,o),
(134,693,cs),
(124,643,o),
(154,617,o),
(202,617,cs),
(250,617,o),
(290,642,o),
(300,693,cs)
);
}
);
width = 270;
},
{
layerId = "8BE48380-DCD1-4C25-918E-D8F452C40939";
shapes = (
{
closed = 1;
nodes = (
(220,523,l),
(129,515,l),
(26,0,l),
(115,0,l)
);
},
{
closed = 1;
nodes = (
(274,731,o),
(254,751,o),
(220,751,cs),
(186,751,o),
(158,731,o),
(151,696,cs),
(144,662,o),
(165,640,o),
(198,640,cs),
(231,640,o),
(260,662,o),
(267,696,cs)
);
}
);
width = 252;
},
{
layerId = "7825C6D3-92E0-4D36-83E5-F278C36F463D";
shapes = (
{
closed = 1;
nodes = (
(177,513,l),
(140,510,l),
(38,0,l),
(74,0,l)
);
},
{
closed = 1;
nodes = (
(230,716,o),
(223,729,o),
(202,729,cs),
(182,729,o),
(168,715,o),
(164,696,cs),
(160,677,o),
(168,663,o),
(188,663,cs),
(208,663,o),
(222,677,o),
(226,696,cs)
);
}
);
width = 223;
}
);
unicode = 105;
}
{
glyphname = j;
layers = (
{
layerId = "3664570B-2F06-474D-8410-56569ABB35BC";
shapes = (
{
closed = 1;
nodes = (
(170.2,1,ls),
(138.828,-156,o),
(58.644,-242,o),
(-79.356,-242,cs),
(-131.356,-242,o),
(-163.759,-229,o),
(-187.561,-218,c),
(-131.183,-96,l),
(-114.981,-105,o),
(-96.581,-108,o),
(-84.581,-108,cs),
(-30.581,-108,o),
(-15.99,-55,o),
(1.794,34,cs),
(98.507,518,l),
(276.504,533,l)
);
},
{
closed = 1;
nodes = (
(309.285,637,o),
(267.291,602,o),
(202.291,602,cs),
(137.291,602,o),
(109.285,637,o),
(120.075,691,cs),
(130.266,742,o),
(172.46,778,o),
(237.46,778,cs),
(286.46,778,o),
(327.669,729,o),
(320.075,691,cs)
);
}
);
width = 277;
},
{
layerId = "452821E5-9DA0-4F55-A4C0-CD58A2FD2761";
shapes = (
{
closed = 1;
nodes = (
(144.003,-15,ls),
(115.229,-159,o),
(37.644,-242,o),
(-85.356,-242,cs),
(-128.356,-242,o),
(-159.358,-232,o),
(-183.96,-220,c),
(-137.978,-120,l),
(-122.577,-128,o),
(-104.176,-131,o),
(-89.176,-131,cs),
(-29.176,-131,o),
(-9.586,-78,o),
(10.396,22,cs),
(109.307,517,l),
(252.705,529,l)
);
},
{
closed = 1;
nodes = (
(288.483,648,o),
(252.289,617,o),
(199.289,617,cs),
(146.289,617,o),
(122.483,648,o),
(131.475,693,cs),
(140.267,737,o),
(176.262,767,o),
(229.262,767,cs),
(269.262,767,o),
(304.069,726,o),
(297.475,693,cs)
);
}
);
width = 265;
},
{
layerId = "E64728B9-E266-466D-8B00-8DDE1D2CA3E4";
shapes = (
{
closed = 1;
nodes = (
(104,-39,ls),
(79,-164,o),
(7,-242,o),
(-94,-242,cs),
(-124,-242,o),
(-152,-236,o),
(-179,-223,c),
(-148,-156,l),
(-135,-163,o),
(-115,-166,o),
(-96,-166,cs),
(-27,-166,o),
(0,-113,o),
(24,4,cs),
(126,515,l),
(217,523,l)
);
},
{
closed = 1;
nodes = (
(258,664,o),
(230,640,o),
(195,640,cs),
(160,640,o),
(142,664,o),
(148,696,cs),
(155,729,o),
(182,751,o),
(217,751,cs),
(243,751,o),
(269,721,o),
(264,696,cs)
);
}
);
width = 247;
},
{
layerId = "FCB1C76D-2FA9-4C34-B9A5-09CF66038F2E";
shapes = (
{
closed = 1;
nodes = (
(60.409,-48,ls),
(34.632,-177,o),
(-25.356,-242,o),
(-118.356,-242,cs),
(-146.356,-242,o),
(-171.157,-236,o),
(-189.759,-229,c),
(-175.364,-197,l),
(-153.763,-204,o),
(-132.563,-208,o),
(-113.563,-208,cs),
(-36.563,-208,o),
(3.827,-151,o),
(26.407,-38,cs),
(135.908,510,l),
(172.508,513,l)
);
},
{
closed = 1;
nodes = (
(217.878,675,o),
(203.48,663,o),
(184.48,663,cs),
(165.48,663,o),
(155.878,675,o),
(160.075,696,cs),
(164.271,717,o),
(178.669,729,o),
(197.669,729,cs),
(211.669,729,o),
(225.272,712,o),
(222.075,696,cs)
);
}
);
width = 216;
}
);
unicode = 106;
}
{
glyphname = k;
layers = (
{
layerId = "8D3EB4C1-6EEE-43FB-8DDE-90F41862F4B3";
shapes = (
{
closed = 1;
nodes = (
(391.403,-18,l),
(328.991,50,o),
(280.775,139,o),
(249.362,212,c),
(206.769,174,l),
(172,0,l),
(-3,0,l),
(144.467,738,l),
(322.464,753,l),
(244.734,364,l),
(409.305,527,l),
(601.305,527,l),
(377.543,318,l),
(406.553,258,o),
(474.971,160,o),
(533.583,93,c)
);
}
);
width = 575;
},
{
layerId = "1EF0794B-345E-4E92-BB90-FDAF9EB84F98";
shapes = (
{
closed = 1;
nodes = (
(389.003,-15,l),
(332.992,45,o),
(284.376,132,o),
(242.959,225,c),
(183.369,172,l),
(149,0,l),
(8,0,l),
(156.066,741,l),
(299.464,753,l),
(214.741,329,l),
(418.506,523,l),
(575.506,523,l),
(347.743,314,l),
(383.357,237,o),
(442.174,146,o),
(504.787,74,c)
);
}
);
width = 552;
},
{
layerId = "8BE48380-DCD1-4C25-918E-D8F452C40939";
shapes = (
{
closed = 1;
nodes = (
(386,-10,l),
(340,38,o),
(289,122,o),
(233,245,c),
(148,169,l),
(114,0,l),
(25,0,l),
(174,745,l),
(264,753,l),
(169,277,l),
(432,517,l),
(537,517,l),
(304,308,l),
(348,205,o),
(393,125,o),
(462,45,c)
);
}
);
width = 517;
},
{
layerId = "7825C6D3-92E0-4D36-83E5-F278C36F463D";
shapes = (
{
closed = 1;
nodes = (
(392.401,-3,l),
(336.186,76,o),
(278.769,174,o),
(234.151,271,c),
(103.972,155,l),
(73,0,l),
(37,0,l),
(186.665,749,l),
(223.464,753,l),
(113.563,203,l),
(459.308,512,l),
(504.308,512,l),
(264.546,298,l),
(309.364,197,o),
(365.982,100,o),
(425.196,21,c)
);
}
);
width = 486;
}
);
unicode = 107;
}
{
glyphname = l;
layers = (
{
anchors = (
{
name = top;
position = "{179, 477}";
},
{
name = bottom;
position = "{84, 0}";
},
{
name = caronslovak;
position = "{418, 517}";
}
);
layerId = "4183FC63-456F-477E-9B65-436D843A5C2D";
shapes = (
{
closed = 1;
nodes = (
(172,0,l),
(-3,0,l),
(144.467,738,l),
(322.464,753,l)
);
}
);
width = 281;
},
{
anchors = (
{
name = top;
position = "{173, 477}";
},
{
name = Anchor_7;
position = "{213, 677}";
},
{
name = bottom;
position = "{78, 0}";
},
{
name = caronslovak;
position = "{391, 517}";
}
);
layerId = "E9E527C0-D75F-4862-A19F-02900F5EAE88";
shapes = (
{
closed = 1;
nodes = (
(149,0,l),
(8,0,l),
(156.066,741,l),
(299.464,753,l)
);
}
);
width = 269;
},
{
anchors = (
{
name = top;
position = "{164, 477}";
},
{
name = Anchor_5;
position = "{204, 674}";
},
{
name = bottom;
position = "{69, 0}";
},
{
name = caronslovak;
position = "{351, 517}";
}
);
layerId = "5887A550-6249-40A4-806C-FE2DD5168882";
shapes = (
{
closed = 1;
nodes = (
(114,0,l),
(25,0,l),
(174,745,l),
(264,753,l)
);
}
);
width = 251;
},
{
anchors = (
{
name = top;
position = "{150, 477}";
},
{
name = Anchor_6;
position = "{190, 677}";
},
{
name = bottom;
position = "{55, 0}";
},
{
name = caronslovak;
position = "{286, 517}";
}
);
layerId = "1321AD43-5B57-4768-A503-D178202AE048";
shapes = (
{
closed = 1;
nodes = (
(73,0,l),
(37,0,l),
(186.665,749,l),
(223.464,753,l)
);
}
);
width = 222;
}
);
unicode = 108;
}
{
glyphname = m;
layers = (
{
layerId = "3AC68A5C-915A-4DAB-90D3-514E1290D8F5";
name = "#instance";
shapes = (
{
closed = 1;
nodes = (
(620,0,l),
(618,47,o),
(629,111,o),
(637,150,cs),
(671,322,ls),
(680,370,o),
(680,413,o),
(625,413,cs),
(598,413,o),
(566,404,o),
(533,384,c),
(531,366,o),
(531,350,o),
(527,332,cs),
(490,150,ls),
(482,111,o),
(471,47,o),
(473,0,c),
(316,0,l),
(315,47,o),
(326,111,o),
(334,150,cs),
(368,322,l),
(378,368,o),
(375,413,o),
(322,413,cs),
(295,413,o),
(261,401,o),
(233,385,c),
(157,0,l),
(-1,0,l),
(104,518,l),
(229,531,l),
(228,462,l),
(282,502,o),
(342,535,o),
(410,535,cs),
(474,535,o),
(509,506,o),
(525,459,c),
(582,501,o),
(643,535,o),
(713,535,cs),
(828,535,o),
(851,434,o),
(830,332,cs),
(794,150,ls),
(784,102,o),
(776,51,o),
(777,0,c)
);
}
);
width = 873;
},
{
layerId = "5A493680-E9A0-4F8D-8CB4-D0B9001A6F74";
shapes = (
{
closed = 1;
nodes = (
(612,0,l),
(609,49,o),
(622,117,o),
(630,156,cs),
(663,322,l),
(669,359,o),
(676,403,o),
(622,403,cs),
(599,403,o),
(573,397,o),
(544,380,c),
(541,363,o),
(541,349,o),
(537,334,c),
(502,156,ls),
(494,117,o),
(481,49,o),
(484,0,c),
(309,0,l),
(309,49,o),
(320,117,o),
(328,156,cs),
(361,322,l),
(370,358,o),
(370,403,o),
(320,403,cs),
(299,403,o),
(272,396,o),
(244,382,c),
(168,0,l),
(-6,0,l),
(98,518,l),
(235,533,l),
(235,462,l),
(290,503,o),
(351,537,o),
(420,537,cs),
(484,537,o),
(519,508,o),
(536,461,c),
(591,501,o),
(651,537,o),
(722,537,cs),
(842,537,o),
(859,426,o),
(839,334,c),
(804,156,ls),
(793,100,o),
(786,57,o),
(786,0,c)
);
}
);
width = 877;
},
{
layerId = "06FCF6AF-AD24-43D8-9E05-32EA8B277EF6";
shapes = (
{
closed = 1;
nodes = (
(627,0,l),
(626,45,o),
(636,104,o),
(644,143,cs),
(679,321,ls),
(691,381,o),
(684,422,o),
(628,422,cs),
(597,422,o),
(559,410,o),
(522,387,c),
(521,368,o),
(520,350,o),
(516,330,cs),
(478,143,ls),
(470,104,o),
(461,45,o),
(462,0,c),
(322,0,l),
(321,45,o),
(331,104,o),
(339,143,cs),
(374,321,ls),
(386,378,o),
(379,422,o),
(324,422,cs),
(291,422,o),
(250,406,o),
(222,388,c),
(145,0,l),
(5,0,l),
(109,517,l),
(223,529,l),
(221,461,l),
(273,500,o),
(332,533,o),
(400,533,cs),
(464,533,o),
(498,503,o),
(514,456,c),
(573,501,o),
(635,533,o),
(703,533,cs),
(813,533,o),
(842,442,o),
(821,330,c),
(783,143,ls),
(775,104,o),
(766,45,o),
(767,0,c)
);
}
);
width = 869;
},
{
layerId = "55D47B1B-2A7A-4A7C-934D-E2DC43635214";
shapes = (
{
closed = 1;
nodes = (
(650,0,l),
(649,39,o),
(657,84,o),
(665,123,cs),
(704,320,ls),
(719,396,o),
(706,450,o),
(637,450,cs),
(594,450,o),
(539,429,o),
(491,398,c),
(492,375,o),
(489,351,o),
(484,324,cs),
(444,123,ls),
(436,84,o),
(428,39,o),
(429,0,c),
(341,0,l),
(340,39,o),
(348,84,o),
(356,123,cs),
(395,320,ls),
(409,393,o),
(400,450,o),
(331,450,cs),
(288,450,o),
(238,429,o),
(190,397,c),
(110,0,l),
(22,0,l),
(125,515,l),
(206,523,l),
(200,460,l),
(251,496,o),
(308,527,o),
(371,527,cs),
(435,527,o),
(469,497,o),
(482,449,c),
(549,501,o),
(614,527,o),
(675,527,cs),
(788,527,o),
(814,436,o),
(793,324,c),
(753,123,ls),
(745,84,o),
(737,39,o),
(738,0,c)
);
}
);
width = 857;
},
{
layerId = "FCF11552-E371-44B4-9CC7-EF7308C46468";
shapes = (
{
closed = 1;
nodes = (
(683,0,l),
(680,39,o),
(688,83,o),
(696,122,cs),
(736,320,l),
(755,409,o),
(737,488,o),
(647,488,cs),
(584,488,o),
(517,450,o),
(464,411,c),
(467,385,o),
(465,356,o),
(458,325,c),
(418,122,ls),
(410,83,o),
(401,39,o),
(404,0,c),
(369,0,l),
(366,39,o),
(374,83,o),
(382,122,cs),
(422,320,l),
(441,409,o),
(425,488,o),
(337,488,cs),
(277,488,o),
(211,452,o),
(151,413,c),
(69,0,l),
(33,0,l),
(135,510,l),
(165,513,l),
(157,448,l),
(212,487,o),
(280,522,o),
(347,522,cs),
(408,522,o),
(445,492,o),
(458,441,c),
(515,482,o),
(586,522,o),
(658,522,cs),
(761,522,o),
(796,437,o),
(772,325,c),
(732,122,ls),
(724,83,o),
(715,39,o),
(718,0,c)
);
}
);
width = 846;
}
);
unicode = 109;
}
{
glyphname = n;
layers = (
{
layerId = "3AC68A5C-915A-4DAB-90D3-514E1290D8F5";
name = "#instance";
shapes = (
{
closed = 1;
nodes = (
(321,0,l),
(318,49,o),
(331,117,o),
(339,156,cs),
(372,322,ls),
(381,366,o),
(376,403,o),
(329,403,cs),
(302,403,o),
(275,395,o),
(243,375,c),
(168,0,l),
(-6,0,l),
(98,518,l),
(235,533,l),
(235,456,l),
(290,496,o),
(353,537,o),
(430,537,cs),
(538,537,o),
(572,450,o),
(548,334,c),
(513,156,ls),
(505,117,o),
(494,49,o),
(494,0,c)
);
}
);
width = 584;
},
{
layerId = "5A493680-E9A0-4F8D-8CB4-D0B9001A6F74";
shapes = (
{
closed = 1;
nodes = (
(321,0,l),
(318,49,o),
(331,117,o),
(339,156,cs),
(372,322,ls),
(381,366,o),
(376,403,o),
(329,403,cs),
(302,403,o),
(275,395,o),
(243,375,c),
(168,0,l),
(-6,0,l),
(98,518,l),
(235,533,l),
(235,456,l),
(290,496,o),
(353,537,o),
(430,537,cs),
(538,537,o),
(572,450,o),
(548,334,c),
(513,156,ls),
(505,117,o),
(494,49,o),
(494,0,c)
);
}
);
width = 584;
},
{
layerId = "06FCF6AF-AD24-43D8-9E05-32EA8B277EF6";
shapes = (
{
closed = 1;
nodes = (
(338,0,l),
(337,45,o),
(347,104,o),
(355,143,cs),
(390,321,ls),
(401,377,o),
(395,422,o),
(338,422,cs),
(303,422,o),
(264,407,o),
(221,380,c),
(145,0,l),
(5,0,l),
(109,517,l),
(223,529,l),
(221,455,l),
(280,498,o),
(342,533,o),
(414,533,cs),
(525,533,o),
(553,445,o),
(532,330,c),
(494,143,ls),
(486,104,o),
(475,45,o),
(478,0,c)
);
}
);
width = 579;
},
{
layerId = "55D47B1B-2A7A-4A7C-934D-E2DC43635214";
shapes = (
{
closed = 1;
nodes = (
(364,0,l),
(363,39,o),
(371,84,o),
(378,123,c),
(418,320,ls),
(432,393,o),
(423,450,o),
(351,450,cs),
(304,450,o),
(244,425,o),
(188,388,c),
(110,0,l),
(22,0,l),
(125,515,l),
(206,523,l),
(200,454,l),
(266,503,o),
(329,527,o),
(389,527,cs),
(501,527,o),
(528,436,o),
(507,324,c),
(467,123,ls),
(459,84,o),
(451,39,o),
(452,0,c)
);
}
);
width = 571;
},
{
layerId = "FCF11552-E371-44B4-9CC7-EF7308C46468";
shapes = (
{
closed = 1;
nodes = (
(392,0,l),
(389,39,o),
(398,83,o),
(406,122,cs),
(446,320,ls),
(465,411,o),
(447,488,o),
(355,488,cs),
(288,488,o),
(211,448,o),
(150,405,c),
(69,0,l),
(33,0,l),
(135,510,l),
(165,513,l),
(156,444,l),
(215,484,o),
(293,522,o),
(365,522,cs),
(473,522,o),
(506,437,o),
(482,325,c),
(442,122,ls),
(434,83,o),
(425,39,o),
(428,0,c)
);
}
);
width = 556;
}
);
unicode = 110;
}
{
glyphname = o;
layers = (
{
anchors = (
{
name = t.uni0302;
position = "{235, 477}";
},
{
name = t.acutecomb;
position = "{235, 517}";
},
{
name = t.uni0307;
position = "{235, 457}";
},
{
name = t.uni030B;
position = "{277, 537}";
},
{
name = t.gravecomb;
position = "{235, 497}";
},
{
name = b.uni0329;
position = "{235, 0}";
}
);
layerId = "5A493680-E9A0-4F8D-8CB4-D0B9001A6F74";
shapes = (
{
closed = 1;
nodes = (
(353,124,o),
(381,194,o),
(394,262,cs),
(407,333,o),
(410,403,o),
(325,403,cs),
(243,403,o),
(214,329,o),
(201,262,cs),
(188,194,o),
(190,124,o),
(270,124,cs)
);
},
{
closed = 1;
nodes = (
(83,-10,o),
(-9,94,o),
(26,262,c),
(58,425,o),
(185,537,o),
(352,537,cs),
(515,537,o),
(604,433,o),
(569,262,cs),
(534,93,o),
(404,-10,o),
(243,-10,cs)
);
}
);
width = 601;
},
{
anchors = (
{
name = t.uni0302;
position = "{235, 477}";
},
{
name = t.acutecomb;
position = "{235, 517}";
},
{
name = t.uni0307;
position = "{235, 457}";
},
{
name = t.uni030B;
position = "{277, 537}";
},
{
name = t.gravecomb;
position = "{235, 497}";
},
{
name = b.uni0329;
position = "{235, 0}";
}
);
layerId = "06FCF6AF-AD24-43D8-9E05-32EA8B277EF6";
shapes = (
{
closed = 1;
nodes = (
(354,101,o),
(395,180,o),
(411,261,cs),
(427,341,o),
(419,422,o),
(324,422,cs),
(232,422,o),
(188,341,o),
(172,261,cs),
(156,180,o),
(167,101,o),
(260,101,cs)
);
},
{
closed = 1;
nodes = (
(78,-10,o),
(0,97,o),
(32,261,c),
(64,418,o),
(179,533,o),
(347,533,cs),
(507,533,o),
(584,425,o),
(552,261,cs),
(520,96,o),
(395,-10,o),
(238,-10,cs)
);
}
);
width = 591;
},
{
anchors = (
{
name = t.uni0302;
position = "{235, 477}";
},
{
name = t.acutecomb;
position = "{235, 517}";
},
{
name = t.uni0307;
position = "{235, 457}";
},
{
name = t.uni030B;
position = "{277, 537}";
},
{
name = t.gravecomb;
position = "{235, 497}";
},
{
name = b.uni0329;
position = "{235, 0}";
}
);
layerId = "55D47B1B-2A7A-4A7C-934D-E2DC43635214";
shapes = (
{
closed = 1;
nodes = (
(356,67,o),
(417,160,o),
(436,259,cs),
(455,356,o),
(437,450,o),
(322,450,cs),
(212,450,o),
(150,362,o),
(129,259,c),
(110,160,o),
(132,67,o),
(245,67,cs)
);
},
{
closed = 1;
nodes = (
(72,-10,o),
(11,101,o),
(40,259,cs),
(69,411,o),
(175,527,o),
(337,527,cs),
(494,527,o),
(557,417,o),
(525,259,cs),
(493,102,o),
(389,-10,o),
(230,-10,cs)
);
}
);
width = 574;
},
{
anchors = (
{
name = t.uni0302;
position = "{235, 477}";
},
{
name = t.acutecomb;
position = "{235, 517}";
},
{
name = t.uni0307;
position = "{235, 457}";
},
{
name = t.uni030B;
position = "{277, 537}";
},
{
name = t.gravecomb;
position = "{235, 497}";
},
{
name = b.uni0329;
position = "{235, 0}";
}
);
layerId = "FCF11552-E371-44B4-9CC7-EF7308C46468";
shapes = (
{
closed = 1;
nodes = (
(355,24,o),
(436,133,o),
(460,256,cs),
(484,374,o),
(451,488,o),
(318,488,cs),
(188,488,o),
(106,377,o),
(82,256,cs),
(58,135,o),
(96,24,o),
(225,24,cs)
);
},
{
closed = 1;
nodes = (
(66,-10,o),
(17,117,o),
(46,256,c),
(73,395,o),
(170,522,o),
(325,522,cs),
(476,522,o),
(526,403,o),
(497,256,cs),
(470,117,o),
(373,-10,o),
(218,-10,cs)
);
}
);
width = 552;
}
);
unicode = 111;
}
{
glyphname = p;
layers = (
{
layerId = "5A493680-E9A0-4F8D-8CB4-D0B9001A6F74";
shapes = (
{
closed = 1;
nodes = (
(121,-232,l),
(-52,-232,l),
(98,518,l),
(235,533,l),
(235,458,l),
(279,497,o),
(347,537,o),
(419,537,cs),
(548,537,o),
(602,412,o),
(573,269,cs),
(541,115,o),
(424,-10,o),
(289,-10,cs),
(238,-10,o),
(203,7,o),
(174,32,c)
);
},
{
closed = 1;
nodes = (
(195,135,l),
(223,126,o),
(250,124,o),
(267,124,cs),
(334,124,o),
(378,174,o),
(397,265,c),
(418,372,o),
(379,403,o),
(327,403,cs),
(303,403,o),
(275,396,o),
(244,383,c)
);
}
);
width = 604;
},
{
layerId = "06FCF6AF-AD24-43D8-9E05-32EA8B277EF6";
shapes = (
{
closed = 1;
nodes = (
(99,-232,l),
(-41,-232,l),
(109,517,l),
(223,529,l),
(221,459,l),
(272,499,o),
(335,533,o),
(403,533,cs),
(533,533,o),
(583,407,o),
(556,268,cs),
(527,116,o),
(410,-10,o),
(271,-10,cs),
(220,-10,o),
(183,6,o),
(152,33,c)
);
},
{
closed = 1;
nodes = (
(170,124,l),
(199,109,o),
(231,101,o),
(259,101,cs),
(342,101,o),
(395,169,o),
(415,266,cs),
(436,370,o),
(402,422,o),
(334,422,cs),
(299,422,o),
(259,408,o),
(223,389,c)
);
}
);
width = 594;
},
{
layerId = "55D47B1B-2A7A-4A7C-934D-E2DC43635214";
shapes = (
{
closed = 1;
nodes = (
(64,-232,l),
(-24,-232,l),
(125,515,l),
(206,523,l),
(200,461,l),
(260,502,o),
(319,527,o),
(379,527,cs),
(511,527,o),
(558,399,o),
(531,266,cs),
(502,117,o),
(388,-10,o),
(244,-10,cs),
(195,-10,o),
(152,5,o),
(117,34,c)
);
},
{
closed = 1;
nodes = (
(132,107,l),
(163,83,o),
(204,67,o),
(248,67,cs),
(356,67,o),
(421,161,o),
(442,268,c),
(463,368,o),
(436,450,o),
(344,450,cs),
(293,450,o),
(233,425,o),
(190,398,c)
);
}
);
width = 578;
},
{
layerId = "FCF11552-E371-44B4-9CC7-EF7308C46468";
shapes = (
{
closed = 1;
nodes = (
(22,-232,l),
(-13,-232,l),
(135,510,l),
(165,513,l),
(156,444,l),
(216,487,o),
(286,522,o),
(357,522,cs),
(484,522,o),
(531,405,o),
(504,264,c),
(474,116,o),
(372,-10,o),
(232,-10,cs),
(165,-10,o),
(111,18,o),
(79,49,c)
);
},
{
closed = 1;
nodes = (
(87,90,l),
(123,54,o),
(176,24,o),
(237,24,cs),
(355,24,o),
(443,140,o),
(467,264,cs),
(491,383,o),
(452,488,o),
(346,488,cs),
(282,488,o),
(210,450,o),
(150,405,c)
);
}
);
width = 557;
}
);
unicode = 112;
}
{
glyphname = q;
layers = (
{
layerId = "5A493680-E9A0-4F8D-8CB4-D0B9001A6F74";
shapes = (
{
closed = 1;
nodes = (
(446,-232,l),
(273,-232,l),
(330,54,l),
(283,15,o),
(233,-10,o),
(174,-10,cs),
(49,-10,o),
(-4,119,o),
(25,255,cs),
(57,410,o),
(171,537,o),
(305,537,cs),
(370,537,o),
(407,509,o),
(438,472,c),
(459,518,l),
(599,533,l)
);
},
{
closed = 1;
nodes = (
(397,390,l),
(372,398,o),
(347,403,o),
(327,403,cs),
(263,403,o),
(220,351,o),
(201,262,c),
(180,155,o),
(224,124,o),
(263,124,cs),
(295,124,o),
(324,139,o),
(349,151,c)
);
}
);
width = 598;
},
{
layerId = "06FCF6AF-AD24-43D8-9E05-32EA8B277EF6";
shapes = (
{
closed = 1;
nodes = (
(425,-232,l),
(286,-232,l),
(342,50,l),
(295,15,o),
(240,-10,o),
(181,-10,cs),
(54,-10,o),
(2,116,o),
(31,255,c),
(60,407,o),
(174,533,o),
(313,533,cs),
(370,533,o),
(411,512,o),
(443,477,c),
(460,517,l),
(577,529,l)
);
},
{
closed = 1;
nodes = (
(412,399,l),
(384,414,o),
(352,422,o),
(324,422,cs),
(244,422,o),
(191,354,o),
(172,257,cs),
(151,153,o),
(185,101,o),
(249,101,cs),
(284,101,o),
(323,115,o),
(359,134,c)
);
}
);
width = 589;
},
{
layerId = "55D47B1B-2A7A-4A7C-934D-E2DC43635214";
shapes = (
{
closed = 1;
nodes = (
(394,-232,l),
(306,-232,l),
(361,44,l),
(313,13,o),
(251,-10,o),
(191,-10,cs),
(59,-10,o),
(11,112,o),
(40,255,cs),
(69,403,o),
(177,527,o),
(326,527,cs),
(370,527,o),
(415,516,o),
(451,485,c),
(462,515,l),
(544,523,l)
);
},
{
closed = 1;
nodes = (
(434,413,l),
(401,438,o),
(359,450,o),
(320,450,cs),
(212,450,o),
(149,359,o),
(128,250,c),
(107,148,o),
(129,67,o),
(230,67,cs),
(269,67,o),
(322,79,o),
(373,108,c)
);
}
);
width = 574;
},
{
layerId = "FCF11552-E371-44B4-9CC7-EF7308C46468";
shapes = (
{
closed = 1;
nodes = (
(363,-232,l),
(327,-232,l),
(387,67,l),
(328,24,o),
(258,-10,o),
(190,-10,cs),
(62,-10,o),
(17,108,o),
(44,248,cs),
(73,396,o),
(179,522,o),
(317,522,cs),
(385,522,o),
(436,489,o),
(467,461,c),
(480,510,l),
(512,513,l)
);
},
{
closed = 1;
nodes = (
(458,421,l),
(425,456,o),
(375,488,o),
(312,488,cs),
(193,488,o),
(105,372,o),
(81,248,cs),
(57,129,o),
(95,24,o),
(200,24,cs),
(264,24,o),
(335,60,o),
(395,107,c)
);
}
);
width = 554;
}
);
unicode = 113;
}
{
glyphname = r;
layers = (
{
layerId = "3AC68A5C-915A-4DAB-90D3-514E1290D8F5";
name = "#instance";
shapes = (
{
closed = 1;
nodes = (
(168,0,l),
(-6,0,l),
(98,518,l),
(235,533,l),
(235,452,l),
(280,503,o),
(323,537,o),
(383,537,cs),
(400,537,o),
(419,533,o),
(440,526,c),
(381,378,l),
(358,387,o),
(340,388,o),
(325,388,cs),
(293,388,o),
(272,382,o),
(241,365,c)
);
}
);
width = 396;
},
{
layerId = "5A493680-E9A0-4F8D-8CB4-D0B9001A6F74";
shapes = (
{
closed = 1;
nodes = (
(168,0,l),
(-6,0,l),
(98,518,l),
(235,533,l),
(235,452,l),
(280,503,o),
(323,537,o),
(383,537,cs),
(400,537,o),
(419,533,o),
(440,526,c),
(381,378,l),
(358,387,o),
(340,388,o),
(325,388,cs),
(293,388,o),
(272,382,o),
(241,365,c)
);
}
);
width = 396;
},
{
layerId = "06FCF6AF-AD24-43D8-9E05-32EA8B277EF6";
shapes = (
{
closed = 1;
nodes = (
(145,0,l),
(5,0,l),
(109,517,l),
(223,529,l),
(221,449,l),
(269,500,o),
(316,533,o),
(371,533,cs),
(388,533,o),
(407,529,o),
(428,522,c),
(378,399,l),
(357,407,o),
(338,408,o),
(325,408,cs),
(285,408,o),
(256,396,o),
(219,372,c)
);
}
);
width = 388;
},
{
layerId = "55D47B1B-2A7A-4A7C-934D-E2DC43635214";
shapes = (
{
closed = 1;
nodes = (
(110,0,l),
(22,0,l),
(125,515,l),
(206,523,l),
(199,444,l),
(251,496,o),
(303,527,o),
(354,527,cs),
(371,527,o),
(390,523,o),
(411,516,c),
(373,430,l),
(354,437,o),
(336,438,o),
(323,438,cs),
(271,438,o),
(232,417,o),
(187,382,c)
);
}
);
width = 375;
},
{
layerId = "FCF11552-E371-44B4-9CC7-EF7308C46468";
shapes = (
{
closed = 1;
nodes = (
(69,0,l),
(33,0,l),
(135,510,l),
(165,513,l),
(155,435,l),
(203,482,o),
(265,522,o),
(328,522,cs),
(345,522,o),
(367,519,o),
(383,514,c),
(369,480,l),
(356,484,o),
(336,487,o),
(320,487,cs),
(263,487,o),
(203,450,o),
(147,390,c)
);
}
);
width = 348;
}
);
unicode = 114;
}
{
glyphname = s;
layers = (
{
layerId = "8D3EB4C1-6EEE-43FB-8DDE-90F41862F4B3";
shapes = (
{
closed = 1;
nodes = (
(415.535,363,l),
(364.328,397,o),
(321.927,405,o),
(286.927,405,cs),
(255.927,405,o),
(231.129,396,o),
(227.132,376,cs),
(222.736,354,o),
(253.739,339,o),
(295.141,326,cs),
(364.545,303,o),
(459.552,268,o),
(436.572,153,cs),
(412.394,32,o),
(297.002,-10,o),
(183.002,-10,cs),
(105.002,-10,o),
(38.798,9,o),
(-20.208,44,c),
(49.371,162,l),
(95.976,135,o),
(145.378,122,o),
(192.378,122,cs),
(224.378,122,o),
(257.777,129,o),
(261.773,149,cs),
(265.969,170,o),
(238.367,182,o),
(202.564,198,c),
(134.96,220,o),
(29.154,256,o),
(52.533,373,cs),
(74.713,484,o),
(187.303,537,o),
(292.303,537,cs),
(359.303,537,o),
(433.107,516,o),
(484.113,481,c)
);
}
);
width = 488;
},
{
layerId = "1EF0794B-345E-4E92-BB90-FDAF9EB84F98";
shapes = (
{
closed = 1;
nodes = (
(412.131,381,l),
(362.326,412,o),
(318.724,424,o),
(278.724,424,cs),
(239.724,424,o),
(204.926,410,o),
(199.131,381,cs),
(192.737,349,o),
(231.34,332,o),
(279.943,315,cs),
(351.148,291,o),
(442.354,257,o),
(420.174,146,cs),
(396.995,30,o),
(287.002,-10,o),
(177.002,-10,cs),
(104.002,-10,o),
(39.399,7,o),
(-15.608,42,c),
(44.175,141,l),
(90.779,114,o),
(142.782,99,o),
(191.782,99,cs),
(231.782,99,o),
(272.98,110,o),
(279.374,142,cs),
(285.769,174,o),
(248.966,190,o),
(199.762,209,c),
(130.558,233,o),
(36.752,269,o),
(58.332,377,cs),
(79.313,482,o),
(184.504,533,o),
(288.504,533,cs),
(352.504,533,o),
(421.907,515,o),
(470.913,480,c)
);
}
);
width = 479;
},
{
layerId = "8BE48380-DCD1-4C25-918E-D8F452C40939";
shapes = (
{
closed = 1;
nodes = (
(408,408,l),
(360,435,o),
(314,452,o),
(266,452,cs),
(215,452,o),
(165,431,o),
(157,389,cs),
(147,342,o),
(197,321,o),
(258,299,cs),
(332,273,o),
(417,240,o),
(396,135,cs),
(374,27,o),
(272,-10,o),
(168,-10,cs),
(103,-10,o),
(40,4,o),
(-8,39,c),
(37,109,l),
(83,82,o),
(139,65,o),
(191,65,cs),
(243,65,o),
(296,82,o),
(306,131,cs),
(316,180,o),
(264,202,o),
(196,226,cs),
(124,253,o),
(48,288,o),
(67,383,cs),
(86,479,o),
(180,527,o),
(283,527,cs),
(342,527,o),
(406,513,o),
(452,478,c)
);
}
);
width = 465;
},
{
layerId = "7825C6D3-92E0-4D36-83E5-F278C36F463D";
shapes = (
{
closed = 1;
nodes = (
(415.919,450,l),
(371.914,475,o),
(319.512,488,o),
(271.512,488,cs),
(196.512,488,o),
(124.318,457,o),
(110.93,390,cs),
(98.941,330,o),
(148.944,310,o),
(237.95,275,cs),
(322.556,243,o),
(394.162,211,o),
(376.778,124,cs),
(358.394,32,o),
(265.002,-10,o),
(167.002,-10,cs),
(100.002,-10,o),
(38.798,9,o),
(-3.406,33,c),
(15.788,64,l),
(59.993,40,o),
(118.796,24,o),
(175.796,24,cs),
(245.796,24,o),
(324.591,48,o),
(339.578,123,cs),
(352.766,189,o),
(298.962,210,o),
(208.956,245,cs),
(123.35,277,o),
(57.544,308,o),
(73.93,390,cs),
(91.714,479,o),
(184.306,522,o),
(278.306,522,cs),
(334.306,522,o),
(385.508,508,o),
(435.113,481,c)
);
}
);
width = 454;
}
);
unicode = 115;
}
{
glyphname = t;
layers = (
{
anchors = (
{
name = bottom;
position = "{186, 0}";
},
{
name = caronslovak;
position = "{465, 517}";
}
);
layerId = "3664570B-2F06-474D-8410-56569ABB35BC";
shapes = (
{
closed = 1;
nodes = (
(365.797,19,l),
(322.2,1,o),
(269.002,-10,o),
(224.002,-10,cs),
(102.002,-10,o),
(49.19,56,o),
(77.364,197,cs),
(117.728,399,l),
(33.728,399,l),
(59.305,527,l),
(143.305,527,l),
(167.483,648,l),
(348.48,663,l),
(321.305,527,l),
(446.305,527,l),
(420.728,399,l),
(295.728,399,l),
(260.56,223,ls),
(246.173,151,o),
(257.778,124,o),
(303.778,124,cs),
(317.778,124,o),
(336.577,128,o),
(357.976,135,c)
);
}
);
width = 429;
},
{
anchors = (
{
name = bottom;
position = "{186, 0}";
},
{
name = caronslovak;
position = "{431, 517}";
}
);
layerId = "452821E5-9DA0-4F55-A4C0-CD58A2FD2761";
shapes = (
{
closed = 1;
nodes = (
(345.997,15,l),
(304.6,-2,o),
(264.002,-10,o),
(225.002,-10,cs),
(104.002,-10,o),
(63.389,62,o),
(89.965,195,cs),
(134.325,417,l),
(38.325,417,l),
(59.506,523,l),
(155.506,523,l),
(180.283,647,l),
(324.681,659,l),
(297.506,523,l),
(426.506,523,l),
(405.325,417,l),
(276.325,417,l),
(235.961,215,ls),
(222.174,146,o),
(226.182,101,o),
(281.182,101,cs),
(298.182,101,o),
(317.981,105,o),
(340.38,112,c)
);
}
);
width = 413;
},
{
anchors = (
{
name = bottom;
position = "{186, 0}";
},
{
name = caronslovak;
position = "{380, 517}";
}
);
layerId = "E64728B9-E266-466D-8B00-8DDE1D2CA3E4";
shapes = (
{
closed = 1;
nodes = (
(317,9,l),
(279,-6,o),
(256,-10,o),
(227,-10,cs),
(107,-10,o),
(84,71,o),
(108,192,cs),
(159,444,l),
(46,444,l),
(60,517,l),
(173,517,l),
(199,645,l),
(289,653,l),
(262,517,l),
(397,517,l),
(383,444,l),
(248,444,l),
(200,203,ls),
(187,138,o),
(178,67,o),
(247,67,cs),
(268,67,o),
(290,71,o),
(314,78,c)
);
}
);
width = 389;
},
{
anchors = (
{
name = bottom;
position = "{160, 0}";
},
{
name = caronslovak;
position = "{328, 517}";
}
);
layerId = "FCB1C76D-2FA9-4C34-B9A5-09CF66038F2E";
shapes = (
{
closed = 1;
nodes = (
(275,0,l),
(254.601,-7,o),
(234.002,-10,o),
(213.002,-10,cs),
(117.002,-10,o),
(81.59,53,o),
(106.968,180,cs),
(166.714,479,l),
(53.714,479,l),
(60.308,512,l),
(173.308,512,l),
(200.283,647,l),
(237.083,651,l),
(209.308,512,l),
(356.308,512,l),
(349.714,479,l),
(202.714,479,l),
(143.967,185,ls),
(122.186,76,o),
(142.796,24,o),
(221.796,24,cs),
(240.796,24,o),
(256.395,27,o),
(273.194,31,c)
);
}
);
width = 351;
}
);
unicode = 116;
}
{
glyphname = u;
layers = (
{
layerId = "3AC68A5C-915A-4DAB-90D3-514E1290D8F5";
name = "#instance";
shapes = (
{
closed = 1;
nodes = (
(331,0,l),
(330,11,o),
(334,40,o),
(334,60,c),
(285,25,o),
(224,-10,o),
(155,-10,cs),
(44,-10,o),
(12,77,o),
(36,193,cs),
(101,518,l),
(278,533,l),
(213,205,ls),
(201,146,o),
(213,124,o),
(253,124,cs),
(278,124,o),
(306,133,o),
(329,145,c),
(404,518,l),
(580,533,l),
(505,156,ls),
(497,118,o),
(483,48,o),
(488,0,c)
);
}
);
width = 580;
},
{
layerId = "5A493680-E9A0-4F8D-8CB4-D0B9001A6F74";
shapes = (
{
closed = 1;
nodes = (
(331,0,l),
(330,11,o),
(334,40,o),
(334,60,c),
(285,25,o),
(224,-10,o),
(155,-10,cs),
(44,-10,o),
(12,77,o),
(36,193,cs),
(101,518,l),
(278,533,l),
(213,205,ls),
(201,146,o),
(213,124,o),
(253,124,cs),
(278,124,o),
(306,133,o),
(329,145,c),
(404,518,l),
(580,533,l),
(505,156,ls),
(497,118,o),
(483,48,o),
(488,0,c)
);
}
);
width = 580;
},
{
layerId = "06FCF6AF-AD24-43D8-9E05-32EA8B277EF6";
shapes = (
{
closed = 1;
nodes = (
(332,0,l),
(331,13,o),
(334,37,o),
(334,56,c),
(281,19,o),
(221,-10,o),
(158,-10,cs),
(46,-10,o),
(16,78,o),
(40,193,c),
(105,517,l),
(247,529,l),
(181,202,ls),
(168,138,o),
(180,101,o),
(232,101,cs),
(263,101,o),
(301,114,o),
(336,134,c),
(413,517,l),
(555,529,l),
(477,143,ls),
(469,104,o),
(460,45,o),
(461,0,c)
);
}
);
width = 566;
},
{
layerId = "55D47B1B-2A7A-4A7C-934D-E2DC43635214";
shapes = (
{
closed = 1;
nodes = (
(333,0,l),
(333,17,o),
(334,33,o),
(335,50,c),
(274,10,o),
(216,-10,o),
(163,-10,cs),
(50,-10,o),
(25,81,o),
(46,193,c),
(110,515,l),
(200,523,l),
(135,197,ls),
(121,124,o),
(129,67,o),
(202,67,cs),
(242,67,o),
(294,86,o),
(347,117,c),
(426,515,l),
(516,523,l),
(436,123,ls),
(428,84,o),
(420,39,o),
(421,0,c)
);
}
);
width = 545;
},
{
layerId = "FCF11552-E371-44B4-9CC7-EF7308C46468";
shapes = (
{
closed = 1;
nodes = (
(364,0,l),
(363,19,o),
(365,41,o),
(366,62,c),
(309,25,o),
(237,-10,o),
(170,-10,cs),
(65,-10,o),
(30,75,o),
(54,187,c),
(118,510,l),
(154,513,l),
(90,192,l),
(71,103,o),
(90,24,o),
(179,24,cs),
(243,24,o),
(314,59,o),
(373,99,c),
(455,510,l),
(491,513,l),
(413,122,ls),
(405,83,o),
(396,39,o),
(399,0,c)
);
}
);
width = 533;
}
);
unicode = 117;
}
{
glyphname = v;
layers = (
{
layerId = "8D3EB4C1-6EEE-43FB-8DDE-90F41862F4B3";
shapes = (
{
closed = 1;
nodes = (
(306,0,l),
(134,0,l),
(56,527,l),
(241,527,l),
(257,174,l),
(420,527,l),
(592,527,l)
);
}
);
width = 550;
},
{
layerId = "1EF0794B-345E-4E92-BB90-FDAF9EB84F98";
shapes = (
{
closed = 1;
nodes = (
(279,0,l),
(136,0,l),
(56,523,l),
(206,523,l),
(237,143,l),
(428,523,l),
(568,523,l)
);
}
);
width = 527;
},
{
layerId = "8BE48380-DCD1-4C25-918E-D8F452C40939";
shapes = (
{
closed = 1;
nodes = (
(241,0,l),
(141,0,l),
(56,517,l),
(154,517,l),
(209,96,l),
(440,517,l),
(532,517,l)
);
}
);
width = 493;
},
{
layerId = "7825C6D3-92E0-4D36-83E5-F278C36F463D";
shapes = (
{
closed = 1;
nodes = (
(189,0,l),
(153,0,l),
(56,512,l),
(95,512,l),
(181,46,l),
(452,512,l),
(489,512,l)
);
}
);
width = 452;
}
);
unicode = 118;
}
{
glyphname = w;
layers = (
{
anchors = (
{
name = top;
position = "{440, 477}";
}
);
layerId = "B4A5DE42-3F2E-4279-A036-A3B49F620938";
shapes = (
{
closed = 1;
nodes = (
(593,0,l),
(418,0,l),
(394.953,260,l),
(270,0,l),
(98,0,l),
(63.305,527,l),
(239.305,527,l),
(231.968,180,l),
(370.112,486,l),
(512.112,486,l),
(530.366,187,l),
(666.305,527,l),
(836.305,527,l)
);
}
);
width = 801;
},
{
anchors = (
{
name = top;
position = "{429, 477}";
},
{
name = Anchor_7;
position = "{437, 517}";
},
{
name = Anchor_10;
position = "{433, 497}";
}
);
layerId = "7A2D1CAB-A283-4D96-9C16-88BF86DF5DBE";
shapes = (
{
closed = 1;
nodes = (
(568,0,l),
(423,0,l),
(390.148,291,l),
(245,0,l),
(101,0,l),
(65.506,523,l),
(206.506,523,l),
(210.373,147,l),
(372.313,482,l),
(487.313,482,l),
(516.973,150,l),
(676.506,523,l),
(811.506,523,l)
);
}
);
width = 780;
},
{
anchors = (
{
name = top;
position = "{413, 477}";
},
{
name = Anchor_5;
position = "{426, 517}";
},
{
name = Anchor_8;
position = "{422, 497}";
}
);
layerId = "EAA4FF5F-B48D-48C5-8560-F51BB314283C";
shapes = (
{
closed = 1;
nodes = (
(531,0,l),
(430,0,l),
(383,338,l),
(207,0,l),
(106,0,l),
(68,517,l),
(157,517,l),
(177,97,l),
(376,476,l),
(450,476,l),
(497,95,l),
(691,517,l),
(774,517,l)
);
}
);
width = 748;
},
{
anchors = (
{
name = top;
position = "{393, 477}";
},
{
name = Anchor_6;
position = "{416, 517}";
},
{
name = Anchor_9;
position = "{388, 497}";
}
);
layerId = "46A11582-2913-4625-BD09-5353CD2303E1";
shapes = (
{
closed = 1;
nodes = (
(471,0,l),
(433,0,l),
(378.126,411,l),
(160,0,l),
(122,0,l),
(70.308,512,l),
(110.308,512,l),
(151.591,48,l),
(369.317,462,l),
(408.317,462,l),
(461.591,48,l),
(689.308,512,l),
(726.308,512,l)
);
}
);
width = 704;
}
);
unicode = 119;
}
{
glyphname = x;
layers = (
{
layerId = "B4A5DE42-3F2E-4279-A036-A3B49F620938";
shapes = (
{
closed = 1;
nodes = (
(520,0,l),
(331,0,l),
(264.37,167,l),
(127,0,l),
(-48,0,l),
(184.35,277,l),
(69.305,527,l),
(259.305,527,l),
(317.331,382,l),
(439.305,527,l),
(614.305,527,l),
(396.15,276,l)
);
}
);
width = 584;
},
{
layerId = "7A2D1CAB-A283-4D96-9C16-88BF86DF5DBE";
shapes = (
{
closed = 1;
nodes = (
(481,0,l),
(328,0,l),
(248.968,180,l),
(96,0,l),
(-47,0,l),
(187.551,273,l),
(69.506,523,l),
(222.506,523,l),
(293.335,362,l),
(431.506,523,l),
(574.506,523,l),
(354.351,272,l)
);
}
);
width = 546;
},
{
layerId = "EAA4FF5F-B48D-48C5-8560-F51BB314283C";
shapes = (
{
closed = 1;
nodes = (
(422,0,l),
(324,0,l),
(226,199,l),
(49,0,l),
(-45,0,l),
(192,267,l),
(69,517,l),
(167,517,l),
(257,332,l),
(420,517,l),
(514,517,l),
(291,266,l)
);
}
);
width = 489;
},
{
layerId = "46A11582-2913-4625-BD09-5353CD2303E1";
shapes = (
{
closed = 1;
nodes = (
(387,0,l),
(343,0,l),
(217.958,235,l),
(0,0,l),
(-44,0,l),
(202.553,263,l),
(69.308,512,l),
(113.308,512,l),
(230.948,290,l),
(434.308,512,l),
(478.308,512,l),
(246.353,262,l)
);
}
);
width = 455;
}
);
unicode = 120;
}
{
glyphname = y;
layers = (
{
anchors = (
{
name = top;
position = "{311, 477}";
},
{
name = hook;
position = "{307, 457}";
},
{
name = bottom;
position = "{410, 0}";
}
);
layerId = "8D3EB4C1-6EEE-43FB-8DDE-90F41862F4B3";
shapes = (
{
closed = 1;
nodes = (
(-23.173,-151,l),
(50.016,-90,o),
(106.806,-36,o),
(142.998,10,c),
(55.305,527,l),
(240.305,527,l),
(266.765,194,l),
(419.305,527,l),
(591.305,527,l),
(345.587,73,ls),
(276.41,-53,o),
(174.833,-181,o),
(58.047,-260,c)
);
}
);
width = 549;
},
{
anchors = (
{
name = top;
position = "{302, 477}";
},
{
name = Anchor_7;
position = "{353, 517}";
},
{
name = hook;
position = "{298, 457}";
},
{
name = Anchor_10;
position = "{261, 497}";
},
{
name = bottom;
position = "{381, 0}";
}
);
layerId = "1EF0794B-345E-4E92-BB90-FDAF9EB84F98";
shapes = (
{
closed = 1;
nodes = (
(-20.37,-167,l),
(53.419,-103,o),
(105.009,-50,o),
(144.599,3,c),
(55.506,523,l),
(205.506,523,l),
(243.972,155,l),
(427.506,523,l),
(567.506,523,l),
(314.389,62,ls),
(245.411,-63,o),
(152.032,-180,o),
(47.846,-256,c)
);
}
);
width = 526;
},
{
anchors = (
{
name = top;
position = "{288, 477}";
},
{
name = Anchor_5;
position = "{339, 517}";
},
{
name = hook;
position = "{284, 457}";
},
{
name = Anchor_8;
position = "{233, 497}";
},
{
name = bottom;
position = "{338, 0}";
}
);
layerId = "8BE48380-DCD1-4C25-918E-D8F452C40939";
shapes = (
{
closed = 1;
nodes = (
(-16,-191,l),
(58,-123,o),
(102,-71,o),
(146,-8,c),
(55,517,l),
(153,517,l),
(209,96,l),
(439,517,l),
(531,517,l),
(267,45,ls),
(198,-78,o),
(118,-178,o),
(33,-250,c)
);
}
);
width = 492;
},
{
anchors = (
{
name = top;
position = "{266, 477}";
},
{
name = Anchor_6;
position = "{313, 517}";
},
{
name = hook;
position = "{262, 457}";
},
{
name = Anchor_9;
position = "{235, 497}";
},
{
name = bottom;
position = "{309, 0}";
}
);
layerId = "7825C6D3-92E0-4D36-83E5-F278C36F463D";
shapes = (
{
closed = 1;
nodes = (
(-34.961,-215,l),
(28.029,-160,o),
(98.015,-85,o),
(150.801,-6,c),
(55.308,512,l),
(94.308,512,l),
(178.593,38,l),
(451.308,512,l),
(488.308,512,l),
(216.992,45,ls),
(145.414,-78,o),
(66.63,-167,o),
(-14.557,-238,c)
);
}
);
width = 451;
}
);
unicode = 121;
}
{
glyphname = z;
layers = (
{
layerId = "56E18E9B-B806-41A9-AC2F-A405CDEE66B8";
name = "#instance";
shapes = (
{
closed = 1;
nodes = (
(413,0,l),
(-27,0,l),
(-20.816,86,l),
(267.328,397,l),
(60.328,397,l),
(86.305,527,l),
(508.305,527,l),
(500.721,439,l),
(211.577,128,l),
(438.577,128,l)
);
}
);
width = 494;
},
{
layerId = "8D3EB4C1-6EEE-43FB-8DDE-90F41862F4B3";
shapes = (
{
closed = 1;
nodes = (
(413,0,l),
(-27,0,l),
(-20.816,86,l),
(267.328,397,l),
(60.328,397,l),
(86.305,527,l),
(508.305,527,l),
(500.721,439,l),
(211.577,128,l),
(438.577,128,l)
);
}
);
width = 494;
},
{
layerId = "1EF0794B-345E-4E92-BB90-FDAF9EB84F98";
shapes = (
{
closed = 1;
nodes = (
(394,0,l),
(-25,0,l),
(-18.614,77,l),
(297.925,415,l),
(67.925,415,l),
(89.506,523,l),
(490.506,523,l),
(482.92,445,l),
(166.381,107,l),
(415.381,107,l)
);
}
);
width = 481;
},
{
layerId = "8BE48380-DCD1-4C25-918E-D8F452C40939";
shapes = (
{
closed = 1;
nodes = (
(366,0,l),
(-22,0,l),
(-15,63,l),
(343,442,l),
(79,442,l),
(94,517,l),
(463,517,l),
(457,454,l),
(98,75,l),
(381,75,l)
);
}
);
width = 461;
},
{
layerId = "7825C6D3-92E0-4D36-83E5-F278C36F463D";
shapes = (
{
closed = 1;
nodes = (
(342,0,l),
(-20,0,l),
(-16.607,37,l),
(396.714,479,l),
(90.714,479,l),
(97.308,512,l),
(440.308,512,l),
(436.914,475,l),
(23.594,33,l),
(348.594,33,l)
);
}
);
width = 442;
}
);
unicode = 122;
}
{
glyphname = braceleft;
layers = (
{
layerId = "3AC68A5C-915A-4DAB-90D3-514E1290D8F5";
name = "#instance";
width = 484;
},
{
layerId = "5A493680-E9A0-4F8D-8CB4-D0B9001A6F74";
shapes = (
{
closed = 1;
nodes = (
(373,-221,l),
(357,-226,o),
(296,-232,o),
(253,-232,cs),
(113,-232,o),
(59,-163,o),
(82,-55,cs),
(90,-16,o),
(107,29,o),
(115,68,cs),
(134,165,o),
(77,188,o),
(7,188,c),
(34,323,l),
(103,323,o),
(171,346,o),
(190,443,cs),
(198,482,o),
(198,527,o),
(206,566,cs),
(227,675,o),
(308,743,o),
(448,743,cs),
(492,743,o),
(550,735,o),
(563,732,c),
(526,606,l),
(515,609,o),
(489,611,o),
(473,611,cs),
(407,611,o),
(381,561,o),
(373,518,cs),
(365,479,o),
(365,432,o),
(358,399,cs),
(343,323,o),
(290,286,o),
(218,257,c),
(277,225,o),
(317,188,o),
(301,113,cs),
(294,80,o),
(276,32,o),
(268,-7,c),
(260,-52,o),
(264,-100,o),
(332,-100,cs),
(348,-100,o),
(375,-98,o),
(386,-95,c)
);
}
);
width = 484;
},
{
layerId = "06FCF6AF-AD24-43D8-9E05-32EA8B277EF6";
shapes = (
{
closed = 1;
nodes = (
(350,-222,l),
(335,-227,o),
(284,-232,o),
(246,-232,cs),
(110,-232,o),
(65,-162,o),
(88,-54,cs),
(97,-10,o),
(115,39,o),
(123,78,cs),
(142,177,o),
(87,199,o),
(15,199,c),
(38,312,l),
(109,312,o),
(173,334,o),
(194,433,cs),
(202,472,o),
(203,521,o),
(211,565,cs),
(232,674,o),
(305,743,o),
(441,743,cs),
(481,743,o),
(525,736,o),
(541,733,c),
(508,627,l),
(495,630,o),
(470,632,o),
(454,632,cs),
(387,632,o),
(359,592,o),
(348,536,cs),
(340,497,o),
(339,446,o),
(332,410,cs),
(316,329,o),
(264,285,o),
(193,256,c),
(252,225,o),
(286,182,o),
(270,102,cs),
(262,65,o),
(244,14,o),
(236,-25,cs),
(225,-81,o),
(236,-121,o),
(305,-121,cs),
(320,-121,o),
(344,-119,o),
(359,-116,c)
);
}
);
width = 463;
},
{
layerId = "55D47B1B-2A7A-4A7C-934D-E2DC43635214";
shapes = (
{
closed = 1;
nodes = (
(316,-224,l),
(301,-228,o),
(268,-232,o),
(236,-232,cs),
(104,-232,o),
(76,-160,o),
(97,-52,c),
(108,-1,o),
(127,53,o),
(135,93,cs),
(157,195,o),
(98,215,o),
(28,215,c),
(44,296,l),
(117,296,o),
(178,316,o),
(200,418,cs),
(208,458,o),
(209,512,o),
(220,563,cs),
(242,673,o),
(299,743,o),
(431,743,cs),
(463,743,o),
(493,739,o),
(508,735,c),
(481,659,l),
(460,663,o),
(442,664,o),
(427,664,cs),
(359,664,o),
(325,639,o),
(310,563,cs),
(302,522,o),
(300,467,o),
(291,426,c),
(274,338,o),
(224,284,o),
(155,255,c),
(212,227,o),
(242,173,o),
(223,85,c),
(215,42,o),
(195,-11,o),
(187,-52,cs),
(172,-125,o),
(193,-153,o),
(265,-153,cs),
(278,-153,o),
(296,-152,o),
(319,-148,c)
);
}
);
width = 432;
},
{
layerId = "FCF11552-E371-44B4-9CC7-EF7308C46468";
shapes = (
{
closed = 1;
nodes = (
(273,-228,l),
(258,-231,o),
(240,-232,o),
(225,-232,cs),
(122,-232,o),
(80,-180,o),
(104,-59,cs),
(113,-10,o),
(133,37,o),
(145,93,cs),
(164,189,o),
(137,231,o),
(38,239,c),
(45,273,l),
(146,281,o),
(190,323,o),
(210,418,cs),
(221,474,o),
(221,521,o),
(230,570,cs),
(254,691,o),
(317,743,o),
(420,743,cs),
(435,743,o),
(451,742,o),
(466,739,c),
(455,709,l),
(447,710,o),
(434,711,o),
(419,711,cs),
(331,711,o),
(287,672,o),
(266,565,cs),
(255,509,o),
(255,464,o),
(246,417,cs),
(226,316,o),
(176,269,o),
(85,256,c),
(169,243,o),
(202,198,o),
(182,94,cs),
(173,47,o),
(153,2,o),
(142,-54,cs),
(121,-161,o),
(148,-200,o),
(237,-200,cs),
(252,-200,o),
(266,-199,o),
(274,-198,c)
);
}
);
width = 392;
}
);
unicode = 123;
}
{
glyphname = bar;
layers = (
{
layerId = "8D3EB4C1-6EEE-43FB-8DDE-90F41862F4B3";
shapes = (
{
closed = 1;
nodes = (
(168,-232,l),
(-15,-247,l),
(181,738,l),
(364,753,l)
);
}
);
width = 360;
},
{
layerId = "1EF0794B-345E-4E92-BB90-FDAF9EB84F98";
shapes = (
{
closed = 1;
nodes = (
(145,-232,l),
(-2,-244,l),
(195,741,l),
(341,753,l)
);
}
);
width = 350;
},
{
layerId = "8BE48380-DCD1-4C25-918E-D8F452C40939";
shapes = (
{
closed = 1;
nodes = (
(111,-232,l),
(18,-240,l),
(215,745,l),
(307,753,l)
);
}
);
width = 335;
},
{
layerId = "7825C6D3-92E0-4D36-83E5-F278C36F463D";
shapes = (
{
closed = 1;
nodes = (
(68,-236,l),
(31,-240,l),
(229,749,l),
(265,753,l)
);
}
);
width = 306;
}
);
unicode = 124;
}
{
glyphname = braceright;
layers = (
{
layerId = "3AC68A5C-915A-4DAB-90D3-514E1290D8F5";
name = "#instance";
width = 484;
},
{
layerId = "5A493680-E9A0-4F8D-8CB4-D0B9001A6F74";
shapes = (
{
closed = 1;
nodes = (
(-52,-95,l),
(-41,-98,o),
(-17,-100,o),
(2,-100,cs),
(68,-100,o),
(92,-52,o),
(100,-7,c),
(108,32,o),
(108,80,o),
(115,112,cs),
(131,188,o),
(185,225,o),
(255,255,c),
(195,290,o),
(158,323,o),
(172,398,cs),
(179,433,o),
(197,479,o),
(205,518,cs),
(213,561,o),
(209,611,o),
(141,611,cs),
(126,611,o),
(99,609,o),
(88,606,c),
(101,732,l),
(119,735,o),
(177,743,o),
(221,743,cs),
(360,743,o),
(414,673,o),
(393,566,cs),
(385,527,o),
(367,482,o),
(359,443,cs),
(340,346,o),
(398,323,o),
(467,323,c),
(440,188,l),
(372,188,o),
(303,165,o),
(284,68,cs),
(276,29,o),
(276,-16,o),
(269,-55,c),
(246,-166,o),
(166,-232,o),
(26,-232,cs),
(-18,-232,o),
(-76,-226,o),
(-89,-221,c)
);
}
);
width = 484;
},
{
layerId = "06FCF6AF-AD24-43D8-9E05-32EA8B277EF6";
shapes = (
{
closed = 1;
nodes = (
(-54,-116,l),
(-41,-119,o),
(-17,-121,o),
(-1,-121,cs),
(66,-121,o),
(94,-81,o),
(105,-25,cs),
(113,14,o),
(114,65,o),
(122,101,c),
(138,182,o),
(189,226,o),
(260,255,c),
(201,286,o),
(167,329,o),
(183,409,cs),
(191,446,o),
(210,497,o),
(217,536,cs),
(228,592,o),
(217,632,o),
(148,632,cs),
(133,632,o),
(109,630,o),
(94,627,c),
(103,733,l),
(138,737,o),
(172,743,o),
(207,743,cs),
(343,743,o),
(387,673,o),
(366,565,cs),
(357,521,o),
(338,472,o),
(330,433,cs),
(311,334,o),
(367,312,o),
(438,312,c),
(415,199,l),
(345,199,o),
(279,177,o),
(260,78,cs),
(252,39,o),
(251,-10,o),
(242,-54,cs),
(221,-163,o),
(148,-232,o),
(12,-232,cs),
(-26,-232,o),
(-75,-227,o),
(-87,-222,c)
);
}
);
width = 463;
},
{
layerId = "55D47B1B-2A7A-4A7C-934D-E2DC43635214";
shapes = (
{
closed = 1;
nodes = (
(-58,-148,l),
(-37,-152,o),
(-18,-153,o),
(-5,-153,cs),
(66,-153,o),
(98,-125,o),
(113,-52,cs),
(121,-11,o),
(123,42,o),
(131,85,cs),
(148,173,o),
(198,227,o),
(267,255,c),
(210,284,o),
(182,338,o),
(199,426,cs),
(207,467,o),
(227,522,o),
(236,563,cs),
(251,639,o),
(227,664,o),
(159,664,cs),
(144,664,o),
(127,663,o),
(103,659,c),
(107,735,l),
(122,739,o),
(155,743,o),
(187,743,cs),
(319,743,o),
(348,673,o),
(326,563,cs),
(315,512,o),
(296,458,o),
(288,418,cs),
(266,316,o),
(324,296,o),
(395,296,c),
(379,215,l),
(306,215,o),
(245,195,o),
(223,93,cs),
(215,53,o),
(212,-1,o),
(203,-52,c),
(182,-160,o),
(124,-232,o),
(-8,-232,cs),
(-40,-232,o),
(-72,-228,o),
(-85,-224,c)
);
}
);
width = 432;
},
{
layerId = "FCF11552-E371-44B4-9CC7-EF7308C46468";
shapes = (
{
closed = 1;
nodes = (
(-73,-198,l),
(-65,-199,o),
(-50,-200,o),
(-37,-200,cs),
(51,-200,o),
(95,-161,o),
(116,-54,cs),
(127,2,o),
(127,47,o),
(136,94,cs),
(157,198,o),
(208,243,o),
(297,256,c),
(213,269,o),
(180,316,o),
(201,417,cs),
(210,464,o),
(229,509,o),
(240,565,cs),
(261,672,o),
(234,711,o),
(145,711,cs),
(130,711,o),
(117,710,o),
(108,709,c),
(109,739,l),
(124,742,o),
(142,743,o),
(157,743,cs),
(260,743,o),
(302,691,o),
(278,570,cs),
(269,521,o),
(249,474,o),
(237,418,cs),
(218,323,o),
(245,281,o),
(344,273,c),
(337,239,l),
(236,231,o),
(192,189,o),
(172,93,cs),
(161,37,o),
(161,-10,o),
(152,-59,cs),
(128,-180,o),
(65,-232,o),
(-38,-232,cs),
(-53,-232,o),
(-69,-231,o),
(-84,-228,c)
);
}
);
width = 392;
}
);
unicode = 125;
}
{
glyphname = asciitilde;
layers = (
{
layerId = "3AC68A5C-915A-4DAB-90D3-514E1290D8F5";
name = "#instance";
width = 570;
},
{
layerId = "5A493680-E9A0-4F8D-8CB4-D0B9001A6F74";
shapes = (
{
closed = 1;
nodes = (
(562,390,l),
(506,286,o),
(435,252,o),
(365,252,cs),
(317,252,o),
(289,268,o),
(262,281,c),
(241,294,o),
(224,304,o),
(207,304,cs),
(174,304,o),
(151,287,o),
(119,236,c),
(36,307,l),
(93,412,o),
(162,446,o),
(233,446,cs),
(282,446,o),
(308,429,o),
(336,417,c),
(357,402,o),
(375,394,o),
(391,394,cs),
(424,394,o),
(446,411,o),
(479,462,c)
);
}
);
width = 570;
},
{
layerId = "06FCF6AF-AD24-43D8-9E05-32EA8B277EF6";
shapes = (
{
closed = 1;
nodes = (
(551,387,l),
(496,295,o),
(435,258,o),
(364,258,cs),
(321,258,o),
(292,275,o),
(264,290,c),
(240,305,o),
(221,317,o),
(202,317,cs),
(166,317,o),
(141,294,o),
(109,246,c),
(39,306,l),
(94,398,o),
(154,435,o),
(226,435,cs),
(269,435,o),
(298,418,o),
(325,403,c),
(349,388,o),
(370,376,o),
(387,376,cs),
(423,376,o),
(449,399,o),
(481,447,c)
);
}
);
width = 562;
},
{
layerId = "55D47B1B-2A7A-4A7C-934D-E2DC43635214";
shapes = (
{
closed = 1;
nodes = (
(534,382,l),
(482,310,o),
(435,267,o),
(363,267,cs),
(328,267,o),
(296,285,o),
(268,304,cs),
(241,321,o),
(218,337,o),
(195,337,cs),
(155,337,o),
(127,305,o),
(94,261,c),
(43,304,l),
(95,376,o),
(142,419,o),
(215,419,cs),
(250,419,o),
(281,401,o),
(309,382,cs),
(336,365,o),
(359,349,o),
(382,349,cs),
(422,349,o),
(451,381,o),
(483,425,c)
);
}
);
width = 552;
},
{
layerId = "FCF11552-E371-44B4-9CC7-EF7308C46468";
shapes = (
{
closed = 1;
nodes = (
(498,377,l),
(455,326,o),
(418,291,o),
(363,291,cs),
(323,291,o),
(296,308,o),
(269,327,cs),
(246,343,o),
(223,358,o),
(194,358,cs),
(151,358,o),
(122,327,o),
(87,288,c),
(65,306,l),
(108,357,o),
(145,392,o),
(201,392,cs),
(241,392,o),
(267,375,o),
(294,356,cs),
(317,340,o),
(341,325,o),
(369,325,cs),
(412,325,o),
(441,356,o),
(476,395,c)
);
}
);
width = 538;
}
);
unicode = 126;
}
{
glyphname = exclamdown;
layers = (
{
layerId = "4183FC63-456F-477E-9B65-436D843A5C2D";
shapes = (
{
closed = 1;
nodes = (
(244.948,290,l),
(67.948,290,l),
(-27.566,-188,l),
(152.431,-173,l)
);
},
{
closed = 1;
nodes = (
(305.309,507,o),
(263.303,537,o),
(204.303,537,cs),
(149.303,537,o),
(91.709,504,o),
(79.72,444,cs),
(67.531,383,o),
(113.137,351,o),
(167.137,351,cs),
(226.137,351,o),
(280.131,381,o),
(292.72,444,cs)
);
}
);
width = 307;
},
{
layerId = "E9E527C0-D75F-4862-A19F-02900F5EAE88";
shapes = (
{
closed = 1;
nodes = (
(221.346,297,l),
(79.346,297,l),
(-18.365,-192,l),
(126.032,-180,l)
);
},
{
closed = 1;
nodes = (
(280.109,506,o),
(246.504,533,o),
(196.504,533,cs),
(148.504,533,o),
(101.909,505,o),
(91.518,453,cs),
(81.128,401,o),
(116.533,373,o),
(164.533,373,cs),
(214.533,373,o),
(258.928,400,o),
(269.518,453,cs)
);
}
);
width = 292;
},
{
layerId = "5887A550-6249-40A4-806C-FE2DD5168882";
shapes = (
{
closed = 1;
nodes = (
(186,308,l),
(97,308,l),
(-5,-198,l),
(86,-190,l)
);
},
{
closed = 1;
nodes = (
(243,505,o),
(221,527,o),
(184,527,cs),
(147,527,o),
(117,506,o),
(109,467,cs),
(102,428,o),
(122,406,o),
(160,406,cs),
(197,406,o),
(228,429,o),
(235,467,cs)
);
}
);
width = 270;
},
{
layerId = "1321AD43-5B57-4768-A503-D178202AE048";
shapes = (
{
closed = 1;
nodes = (
(134.947,295,l),
(98.947,295,l),
(-0.563,-203,l),
(36.236,-199,l)
);
},
{
closed = 1;
nodes = (
(191.508,508,o),
(182.306,522,o),
(162.306,522,cs),
(142.306,522,o),
(127.508,508,o),
(123.512,488,cs),
(119.516,468,o),
(128.718,454,o),
(148.718,454,cs),
(168.718,454,o),
(183.516,468,o),
(187.512,488,cs)
);
}
);
width = 228;
}
);
unicode = 161;
}
{
glyphname = cent;
layers = (
{
layerId = "3AC68A5C-915A-4DAB-90D3-514E1290D8F5";
name = "#instance";
width = 574;
},
{
layerId = "5A493680-E9A0-4F8D-8CB4-D0B9001A6F74";
shapes = (
{
closed = 1;
nodes = (
(303,-116,l),
(192,-126,l),
(222,24,l),
(95,43,o),
(10,129,o),
(42,291,c),
(74,447,o),
(191,541,o),
(330,562,c),
(356,693,l),
(467,703,l),
(438,562,l),
(486,553,o),
(528,538,o),
(559,515,c),
(490,396,l),
(459,411,o),
(436,421,o),
(411,426,c),
(358,158,l),
(390,165,o),
(420,175,o),
(456,191,c),
(480,74,l),
(433,47,o),
(384,30,o),
(331,23,c)
);
},
{
closed = 1;
nodes = (
(301,420,l),
(252,401,o),
(220,356,o),
(207,291,cs),
(194,223,o),
(206,181,o),
(250,164,c)
);
}
);
width = 574;
},
{
layerId = "06FCF6AF-AD24-43D8-9E05-32EA8B277EF6";
shapes = (
{
closed = 1;
nodes = (
(294,-117,l),
(197,-126,l),
(227,23,l),
(100,42,o),
(30,135,o),
(59,290,cs),
(88,442,o),
(197,538,o),
(334,559,c),
(361,694,l),
(458,703,l),
(429,559,l),
(481,552,o),
(521,535,o),
(552,512,c),
(494,413,l),
(462,430,o),
(435,442,o),
(407,447,c),
(344,134,l),
(379,140,o),
(415,152,o),
(452,170,c),
(472,72,l),
(425,45,o),
(375,28,o),
(322,22,c)
);
},
{
closed = 1;
nodes = (
(311,442,l),
(252,423,o),
(210,371,o),
(194,290,cs),
(178,213,o),
(194,158,o),
(250,139,c)
);
}
);
width = 574;
},
{
layerId = "55D47B1B-2A7A-4A7C-934D-E2DC43635214";
shapes = (
{
closed = 1;
nodes = (
(280,-119,l),
(205,-126,l),
(235,22,l),
(108,41,o),
(57,145,o),
(86,289,cs),
(115,430,o),
(203,535,o),
(341,554,c),
(369,696,l),
(444,703,l),
(414,555,l),
(469,550,o),
(510,531,o),
(542,508,c),
(499,438,l),
(463,459,o),
(431,473,o),
(399,478,c),
(323,98,l),
(364,103,o),
(406,118,o),
(446,139,c),
(462,69,l),
(415,42,o),
(361,26,o),
(308,21,c)
);
},
{
closed = 1;
nodes = (
(325,475,l),
(250,456,o),
(196,393,o),
(175,289,cs),
(156,196,o),
(175,123,o),
(250,102,c)
);
}
);
width = 574;
},
{
layerId = "FCF11552-E371-44B4-9CC7-EF7308C46468";
shapes = (
{
closed = 1;
nodes = (
(234,-122,l),
(200,-126,l),
(230,23,l),
(98,34,o),
(47,140,o),
(77,288,cs),
(106,436,o),
(200,542,o),
(336,553,c),
(365,699,l),
(399,703,l),
(370,554,l),
(419,551,o),
(464,538,o),
(504,514,c),
(485,484,l),
(449,505,o),
(408,517,o),
(363,520,c),
(270,56,l),
(315,57,o),
(363,71,o),
(414,97,c),
(421,68,l),
(372,43,o),
(319,25,o),
(263,22,c)
);
},
{
closed = 1;
nodes = (
(329,519,l),
(214,506,o),
(141,416,o),
(114,288,cs),
(87,161,o),
(128,68,o),
(237,57,c)
);
}
);
width = 574;
}
);
unicode = 162;
}
{
glyphname = sterling;
layers = (
{
layerId = "3AC68A5C-915A-4DAB-90D3-514E1290D8F5";
name = "#instance";
width = 574;
},
{
layerId = "5A493680-E9A0-4F8D-8CB4-D0B9001A6F74";
shapes = (
{
closed = 1;
nodes = (
(492,0,l),
(28,0,l),
(37,93,l),
(111,140,o),
(132,212,o),
(140,253,cs),
(143,268,o),
(145,285,o),
(148,304,c),
(40,304,l),
(58,392,l),
(152,392,l),
(151,423,o),
(157,461,o),
(161,484,cs),
(185,604,o),
(267,707,o),
(434,707,cs),
(523,707,o),
(584,679,o),
(628,636,c),
(533,517,l),
(496,550,o),
(462,562,o),
(425,562,cs),
(372,562,o),
(339,537,o),
(327,474,cs),
(323,451,o),
(321,420,o),
(318,392,c),
(465,392,l),
(447,304,l),
(309,304,l),
(308,284,o),
(303,261,o),
(302,250,c),
(294,211,o),
(278,175,o),
(255,140,c),
(520,140,l)
);
}
);
width = 574;
},
{
layerId = "06FCF6AF-AD24-43D8-9E05-32EA8B277EF6";
shapes = (
{
closed = 1;
nodes = (
(487,0,l),
(33,0,l),
(41,79,l),
(118,135,o),
(138,206,o),
(149,252,c),
(152,270,o),
(155,288,o),
(157,307,c),
(54,307,l),
(70,390,l),
(161,390,l),
(161,421,o),
(165,456,o),
(170,483,cs),
(194,600,o),
(270,703,o),
(431,703,cs),
(519,703,o),
(576,673,o),
(620,630,c),
(540,532,l),
(501,567,o),
(467,583,o),
(420,583,cs),
(361,583,o),
(322,556,o),
(307,477,cs),
(302,450,o),
(300,419,o),
(297,390,c),
(450,390,l),
(433,307,l),
(290,307,l),
(289,287,o),
(286,265,o),
(283,250,cs),
(274,203,o),
(254,158,o),
(224,117,c),
(510,117,l)
);
}
);
width = 574;
},
{
layerId = "55D47B1B-2A7A-4A7C-934D-E2DC43635214";
shapes = (
{
closed = 1;
nodes = (
(478,0,l),
(41,0,l),
(47,58,l),
(126,121,o),
(150,199,o),
(161,250,cs),
(165,271,o),
(169,292,o),
(170,312,c),
(74,312,l),
(89,387,l),
(173,387,l),
(174,418,o),
(176,449,o),
(183,482,cs),
(205,592,o),
(273,697,o),
(427,697,cs),
(514,697,o),
(564,664,o),
(609,621,c),
(551,554,l),
(507,593,o),
(473,614,o),
(413,614,cs),
(345,614,o),
(297,586,o),
(276,482,cs),
(269,449,o),
(266,418,o),
(266,387,c),
(426,387,l),
(411,312,l),
(263,312,l),
(262,291,o),
(259,271,o),
(254,250,c),
(242,190,o),
(217,135,o),
(176,82,c),
(494,82,l)
);
}
);
width = 574;
},
{
layerId = "FCF11552-E371-44B4-9CC7-EF7308C46468";
shapes = (
{
closed = 1;
nodes = (
(444,0,l),
(43,0,l),
(45,35,l),
(116,90,o),
(150,179,o),
(163,250,cs),
(167,269,o),
(170,295,o),
(173,332,c),
(80,332,l),
(86,366,l),
(175,366,l),
(178,418,o),
(180,460,o),
(187,495,cs),
(214,631,o),
(316,697,o),
(417,697,cs),
(477,697,o),
(532,675,o),
(580,634,c),
(554,605,l),
(514,641,o),
(462,662,o),
(409,662,cs),
(327,662,o),
(248,611,o),
(224,488,cs),
(217,453,o),
(215,417,o),
(211,366,c),
(388,366,l),
(382,332,l),
(210,332,l),
(207,293,o),
(204,268,o),
(200,248,cs),
(184,170,o),
(147,85,o),
(88,34,c),
(451,34,l)
);
}
);
width = 574;
}
);
unicode = 163;
}
{
glyphname = currency;
layers = (
{
layerId = "B4A5DE42-3F2E-4279-A036-A3B49F620938";
shapes = (
{
closed = 1;
nodes = (
(441,230,l),
(472,269,o),
(491,301,o),
(500,346,cs),
(509,391,o),
(504,426,o),
(487,462,c),
(584,545,l),
(520,624,l),
(423,541,l),
(386,560,o),
(363,567,o),
(318,567,cs),
(273,567,o),
(249,560,o),
(204,541,c),
(140,624,l),
(44,545,l),
(107,462,l),
(79,427,o),
(56,387,o),
(48,346,cs),
(40,305,o),
(45,265,o),
(61,230,c),
(-36,147,l),
(29,68,l),
(126,152,l),
(157,136,o),
(192,125,o),
(230,125,cs),
(268,125,o),
(307,136,o),
(345,152,c),
(409,68,l),
(504,147,l)
);
},
{
closed = 1;
nodes = (
(223,273,o),
(194,307,o),
(202,346,cs),
(210,384,o),
(250,419,o),
(289,419,cs),
(327,419,o),
(354,384,o),
(346,346,cs),
(339,308,o),
(296,273,o),
(260,273,cs)
);
}
);
width = 574;
},
{
layerId = "7A2D1CAB-A283-4D96-9C16-88BF86DF5DBE";
shapes = (
{
closed = 1;
nodes = (
(434,227,l),
(466,264,o),
(485,300,o),
(494,345,cs),
(503,390,o),
(498,426,o),
(482,463,c),
(574,542,l),
(519,610,l),
(425,530,l),
(390,551,o),
(362,559,o),
(318,559,cs),
(274,559,o),
(242,551,o),
(199,530,c),
(137,610,l),
(54,542,l),
(116,463,l),
(86,428,o),
(64,387,o),
(56,345,cs),
(48,303,o),
(52,262,o),
(68,227,c),
(-24,148,l),
(31,80,l),
(125,160,l),
(156,142,o),
(193,131,o),
(232,131,cs),
(271,131,o),
(312,142,o),
(351,160,c),
(413,80,l),
(496,148,l)
);
},
{
closed = 1;
nodes = (
(204,252,o),
(171,292,o),
(182,345,cs),
(193,398,o),
(241,438,o),
(294,438,cs),
(347,438,o),
(379,398,o),
(368,345,cs),
(357,292,o),
(308,252,o),
(256,252,cs)
);
}
);
width = 574;
},
{
layerId = "EAA4FF5F-B48D-48C5-8560-F51BB314283C";
shapes = (
{
closed = 1;
nodes = (
(422,222,l),
(455,257,o),
(475,299,o),
(484,343,cs),
(493,388,o),
(488,426,o),
(471,464,c),
(558,537,l),
(517,589,l),
(427,514,l),
(395,537,o),
(357,547,o),
(315,547,cs),
(272,547,o),
(230,537,o),
(190,514,c),
(131,589,l),
(68,537,l),
(127,464,l),
(94,429,o),
(74,387,o),
(66,343,c),
(57,300,o),
(62,258,o),
(77,222,c),
(-9,150,l),
(33,98,l),
(121,172,l),
(153,151,o),
(193,140,o),
(234,140,cs),
(275,140,o),
(318,151,o),
(358,172,c),
(419,98,l),
(481,150,l)
);
},
{
closed = 1;
nodes = (
(175,220,o),
(136,269,o),
(151,344,cs),
(166,419,o),
(225,467,o),
(299,467,cs),
(374,467,o),
(414,419,o),
(399,344,cs),
(384,268,o),
(326,220,o),
(250,220,cs)
);
}
);
width = 574;
},
{
layerId = "46A11582-2913-4625-BD09-5353CD2303E1";
shapes = (
{
closed = 1;
nodes = (
(393,220,l),
(430,254,o),
(453,298,o),
(462,343,cs),
(471,390,o),
(466,431,o),
(442,467,c),
(538,547,l),
(517,573,l),
(419,491,l),
(389,517,o),
(352,527,o),
(309,527,cs),
(266,527,o),
(225,516,o),
(185,491,c),
(119,573,l),
(88,547,l),
(152,467,l),
(116,433,o),
(93,388,o),
(84,343,cs),
(75,298,o),
(80,254,o),
(103,220,c),
(7,140,l),
(28,114,l),
(126,196,l),
(154,172,o),
(195,160,o),
(236,160,cs),
(277,160,o),
(321,171,o),
(360,196,c),
(426,114,l),
(457,140,l)
);
},
{
closed = 1;
nodes = (
(139,435,o),
(213,493,o),
(303,493,cs),
(393,493,o),
(443,435,o),
(425,344,cs),
(407,253,o),
(333,194,o),
(243,194,cs),
(153,194,o),
(103,253,o),
(121,344,cs)
);
}
);
width = 574;
}
);
unicode = 164;
}
{
glyphname = yen;
layers = (
{
layerId = "B4A5DE42-3F2E-4279-A036-A3B49F620938";
shapes = (
{
closed = 1;
nodes = (
(510,105,l),
(358,105,l),
(337,0,l),
(158,0,l),
(179,105,l),
(27,105,l),
(45,196,l),
(197,196,l),
(211,265,l),
(59,265,l),
(77,355,l),
(190,355,l),
(94,697,l),
(277,697,l),
(335,434,l),
(494,697,l),
(680,697,l),
(448,355,l),
(560,355,l),
(542,265,l),
(390,265,l),
(376,196,l),
(528,196,l)
);
}
);
width = 574;
},
{
layerId = "7A2D1CAB-A283-4D96-9C16-88BF86DF5DBE";
shapes = (
{
closed = 1;
nodes = (
(494,110,l),
(343,110,l),
(321,0,l),
(177,0,l),
(199,110,l),
(48,110,l),
(65,193,l),
(216,193,l),
(230,266,l),
(79,266,l),
(96,349,l),
(215,349,l),
(113,693,l),
(263,693,l),
(331,411,l),
(511,693,l),
(661,693,l),
(423,349,l),
(542,349,l),
(525,266,l),
(374,266,l),
(360,193,l),
(511,193,l)
);
}
);
width = 574;
},
{
layerId = "EAA4FF5F-B48D-48C5-8560-F51BB314283C";
shapes = (
{
closed = 1;
nodes = (
(469,117,l),
(319,117,l),
(296,0,l),
(205,0,l),
(228,117,l),
(78,117,l),
(93,189,l),
(243,189,l),
(259,268,l),
(109,268,l),
(123,340,l),
(251,340,l),
(141,687,l),
(242,687,l),
(325,376,l),
(536,687,l),
(633,687,l),
(385,340,l),
(514,340,l),
(500,268,l),
(350,268,l),
(334,189,l),
(484,189,l)
);
}
);
width = 574;
},
{
layerId = "46A11582-2913-4625-BD09-5353CD2303E1";
shapes = (
{
closed = 1;
nodes = (
(454,136,l),
(293,136,l),
(266,0,l),
(229,0,l),
(256,136,l),
(95,136,l),
(102,169,l),
(263,169,l),
(286,286,l),
(125,286,l),
(132,319,l),
(275,319,l),
(160,682,l),
(204,682,l),
(313,326,l),
(563,682,l),
(606,682,l),
(347,319,l),
(491,319,l),
(484,286,l),
(323,286,l),
(300,169,l),
(461,169,l)
);
}
);
width = 574;
}
);
unicode = 165;
}
{
glyphname = brokenbar;
layers = (
{
layerId = "4183FC63-456F-477E-9B65-436D843A5C2D";
shapes = (
{
closed = 1;
nodes = (
(168,-232,l),
(-15,-247,l),
(65,154,l),
(248,169,l)
);
},
{
closed = 1;
nodes = (
(284,352,l),
(101,337,l),
(181,738,l),
(364,753,l)
);
}
);
width = 360;
},
{
layerId = "E9E527C0-D75F-4862-A19F-02900F5EAE88";
shapes = (
{
closed = 1;
nodes = (
(145,-232,l),
(-2,-244,l),
(79,161,l),
(226,173,l)
);
},
{
closed = 1;
nodes = (
(261,348,l),
(114,336,l),
(195,741,l),
(341,753,l)
);
}
);
width = 350;
},
{
layerId = "5887A550-6249-40A4-806C-FE2DD5168882";
shapes = (
{
closed = 1;
nodes = (
(111,-232,l),
(18,-240,l),
(100,171,l),
(193,179,l)
);
},
{
closed = 1;
nodes = (
(225,342,l),
(133,334,l),
(215,745,l),
(307,753,l)
);
}
);
width = 335;
},
{
layerId = "1321AD43-5B57-4768-A503-D178202AE048";
shapes = (
{
closed = 1;
nodes = (
(68,-236,l),
(31,-240,l),
(111,159,l),
(148,163,l)
);
},
{
closed = 1;
nodes = (
(186,354,l),
(149,350,l),
(229,749,l),
(265,753,l)
);
}
);
width = 306;
}
);
unicode = 166;
}
